<svg xmlns="http://www.w3.org/2000/svg" width="20" height="21" viewBox="0 0 20 21">
    <g fill="none" fill-rule="evenodd">
        <path d="M15.38 3.962c.134 0 .242-.107.242-.24 0-.1-.062-.187-.15-.223.007.025.012.05.012.078 0 .161-.13.292-.29.293.043.056.11.092.187.092zM16.438 6.53c.201-.413.563-.952.743-1.21-.139-.061-.267-.13-.353-.183-.08-.05-.192-.122-.314-.202-.026.189-.091.365-.188.52-.02.113-.034.231-.034.352 0 .2.05.463.105.64l.041.084zM15 3.962c.076 0 .144-.036.187-.092-.16-.002-.29-.132-.29-.293 0-.027.006-.053.013-.078-.089.035-.151.122-.151.223 0 .133.108.24.24.24zM7.967 6.107v-.001c.057-.183.09-.382.09-.59 0-.106-.012-.209-.028-.31-.13-.187-.209-.41-.233-.649-.128.086-.25.165-.333.216-.085.053-.212.12-.349.182.192.275.595.874.778 1.291.023-.047.047-.094.075-.139zM14.03 6.371c.055-.175.086-.365.086-.564 0-.102-.01-.2-.026-.296-.125-.18-.207-.393-.23-.621-.122.079-.235.155-.316.203-.08.05-.202.115-.334.175.183.262.57.835.746 1.237.023-.046.047-.09.074-.134zM2.835 5.731c0 .014-.003.026-.003.04l.01-.047-.015.002.008.005zM10.425 6.19c.015.027.031.053.045.082.208-.431.588-.993.774-1.262-.144-.065-.277-.135-.367-.19-.083-.052-.203-.13-.33-.215-.027.195-.092.377-.19.538-.023.12-.037.245-.037.374 0 .208.05.481.108.664l-.003.008zM9.108 18.158c-.036 0-.064.028-.064.064v.73l-.603.603c-.025.025-.025.065 0 .09.012.012.029.019.045.019.016 0 .033-.007.045-.019l.64-.64v-.783c0-.035-.028-.064-.063-.064z"/>
        <path fill="#E6001B" fill-rule="nonzero" d="M9.108 17.6c-.751 0-1.36.609-1.36 1.36 0 .75.61 1.358 1.36 1.358.75 0 1.358-.608 1.358-1.359 0-.75-.608-1.359-1.358-1.359zm.063 1.405l-.64.64c-.012.012-.029.018-.045.018-.016 0-.033-.006-.045-.018-.025-.025-.025-.066 0-.09l.603-.603v-.73c0-.036.028-.064.064-.064.035 0 .063.028.063.064v.783z"/>
        <path fill="#FF001E" fill-rule="nonzero" d="M19.085 16.442L17.388 15.463 17.388 16.246 0.133 16.246 0.133 16.639 17.388 16.639 17.388 17.422z"/>
        <circle cx="9.174" cy="1.33" r="1.321" fill="#FF001E" fill-rule="nonzero"/>
        <path fill="#CA0000" fill-rule="nonzero" d="M14.123 2.436c0 .05.031.092.074.109-.023.014-.04.04-.04.069 0 .045.037.082.083.082.034 0 .062-.02.075-.049.221.248.542.404.9.404s.678-.156.9-.404c.013.029.041.05.075.05.045 0 .082-.038.082-.083 0-.03-.016-.055-.04-.07.044-.016.074-.058.074-.108 0-.018-.005-.035-.013-.05.083-.164.13-.347.13-.543 0-.667-.54-1.207-1.208-1.207-.667 0-1.208.54-1.208 1.207 0 .196.047.38.13.543-.008.015-.014.032-.014.05z"/>
        <path fill="#CA0000" fill-rule="nonzero" d="M15.215.597c.184 0 .358.04.515.113.004-.025.006-.05.006-.074 0-.288-.233-.522-.521-.522-.288 0-.522.234-.522.522 0 .025.002.05.006.074.157-.072.332-.113.516-.113z"/>
        <path fill="#FF001E" fill-rule="nonzero" d="M7.757 6.676c-.098.354-.211.883-.258 1.48h-.003l-.002.051c-.009.125-.014.253-.016.382l-.108 2.494h.429c-.002.017-.01.033-.01.05 0 0 .035 3.584.614 3.584.578 0 .613-3.583.613-3.583 0-.018-.004-.034-.005-.051h.407c-.004.03-.01.062-.01.094 0 0 .035 3.583.614 3.583.578 0 .613-3.583.613-3.583 0-.033-.012-.063-.017-.094h.423l-.095-2.185c.004-.248-.008-.492-.031-.726v-.017h-.002c-.056-.564-.173-1.067-.276-1.416.478-.335 1.314-1.444 1.314-1.444.066-.09.082-.2.06-.3-.003-.011-.002-.02-.005-.033-.31-1.22-2.383-1.986-2.353-1.878-.15-.06-.31-.099-.48-.099-.204 0-.398.048-.57.132-.218.01-1.939.715-2.212 1.792v.007c-.03.102-.016.216.053.309 0 0 .894 1.258 1.313 1.45zm2.6-1.533c.098-.16.163-.343.19-.538.127.085.247.163.33.214.09.055.223.126.367.191-.186.269-.566.83-.774 1.262-.013-.029-.03-.056-.045-.083 0-.003.002-.005.003-.008-.057-.183-.108-.456-.108-.664 0-.13.014-.254.036-.374zm-2.894-.37c.084-.051.205-.13.333-.215.024.239.103.461.233.649.016.1.027.203.027.31 0 .208-.033.406-.09.59h.001c-.028.045-.052.092-.075.14-.183-.418-.586-1.017-.778-1.292.137-.062.264-.13.349-.181z"/>
        <path fill="#FF5B5B" fill-rule="nonzero" d="M1.712 11.008c.032.012.065.018.098.018.11 0 .213-.067.255-.175l.824-2.145V10.58l.003.034v3.451h.001v.352c0 .182.149.33.331.33h.068c.182 0 .331-.148.331-.33v-2.592-.731h.4v2.971h.003v.355c0 .18.148.328.328.328h.06c.18 0 .328-.148.328-.328v-.355h.011v-3.438c.002-.016.005-.031.005-.048V10.4 8.706l.823 2.145c.042.108.146.175.256.175.032 0 .065-.006.097-.018.141-.054.212-.213.157-.353L4.99 7.787c-.039-.101-.131-.165-.232-.174v-.005h-.566v-.27c.242-.096.439-.281.544-.518.006.013.01.026.018.037.05.044-.011-.113.082-.214.094-.102.09-.23.025-.346-.065-.117-.043-.225-.023-.258v-.002c.008-.016.013-.034.013-.054 0-.564-.458-1.021-1.022-1.021-.13 0-.253.024-.368.069l.004-.002c-.043-.005-.087-.004-.13 0-.059-.254-.286-.445-.558-.445-.316 0-.573.257-.573.574 0 .068.014.132.035.192l-.003-.002s.317.976-.032 1.299c-.02.07.426-.046.579-.578.032.04.075.116.022.212-.066.116-.075.241.018.343.094.1.033.258.082.214.005-.007.008-.016.012-.024.103.235.295.42.532.519v.275h-.56v.006c-.102.009-.194.072-.233.173l-1.101 2.868c-.054.14.016.299.157.353zm1.12-5.237l.002-.04-.007-.005.015-.002-.01.047z"/>
        <path fill="#CA0000" fill-rule="nonzero" d="M13.827 6.922c-.11.402-.243 1.037-.266 1.737l-.032.232-.555 3.94s.356.18.993.308c.08.786.226 1.514.482 1.514.244 0 .386-.66.472-1.4.192.01.395.011.611.002.082.757.227 1.44.474 1.44.259 0 .405-.745.486-1.54.303-.052.623-.123.956-.22l-.546-4.044-.007-.05V8.84l-.227-1.6c-.003-.016-.008-.03-.012-.044-.018-.075-.039-.147-.058-.213.46-.322 1.264-1.388 1.264-1.388.068-.093.084-.208.053-.313v-.007c-.294-1.152-2.218-1.88-2.26-1.81-.145-.057-.301-.092-.464-.092-.198 0-.383.047-.55.127-.207.01-1.864.689-2.126 1.724v.007c-.03.098-.016.207.051.296 0 .001.858 1.21 1.261 1.396zm2.5-1.467c.096-.155.16-.331.187-.52.122.08.235.152.314.202.086.053.214.122.353.184-.18.257-.542.796-.743 1.21l-.041-.084c-.055-.177-.105-.44-.105-.64 0-.12.014-.239.034-.352zm-.843-1.878c0-.027-.005-.053-.012-.078.088.036.15.122.15.223 0 .133-.108.24-.241.24-.077 0-.144-.036-.188-.092.161-.001.291-.132.291-.293zm-.574-.078c-.007.025-.012.05-.012.078 0 .16.13.291.29.293-.044.056-.112.092-.188.092-.133 0-.241-.108-.241-.24 0-.101.062-.188.15-.223zm-1.366 1.594c.08-.048.194-.124.316-.203.022.228.105.441.23.621.015.096.026.194.026.296 0 .199-.031.39-.086.564-.028.043-.052.088-.074.134-.177-.401-.563-.975-.747-1.237.133-.06.255-.126.335-.175z"/>
    </g>
</svg>
