<svg xmlns="http://www.w3.org/2000/svg" width="18" height="19" viewBox="0 0 18 19">
    <g fill="none">
        <path fill="#FF5B5B" d="M4.3 11.366c.34 0 .615-.275.615-.614V7.767c0-1.308-.984-2.452-2.29-2.539C1.196 5.132 0 6.27 0 7.68v3.072c0 .339.276.614.614.614V7.987c0-.17.138-.307.308-.307.17 0 .307.138.307.307v9.677c0 .254.207.46.46.46.255 0 .461-.206.461-.46V9.83h.615v7.834c0 .254.207.46.46.46.255 0 .461-.206.461-.46V7.987c0-.17.138-.307.308-.307.17 0 .307.138.307.307v3.38z"/>
        <circle cx="2.458" cy="3.072" r="1.536" fill="#FF5B5B"/>
        <path fill="#FF001E" d="M13.776 4.625c-1.91.18-3.331 1.859-3.331 3.777v2.043c0 .509.412.921.921.921h.308V7.373c0-.17.137-.307.307-.307.17 0 .307.137.307.307v9.939c0 .401.288.768.688.809.46.047.848-.314.848-.764V9.83h.614v7.482c0 .401.289.768.689.809.459.047.847-.314.847-.764V7.373c0-.17.138-.307.308-.307.17 0 .307.137.307.307v3.993h.307c.509 0 .922-.412.922-.921v-2.15c0-2.15-1.85-3.877-4.042-3.67z"/>
        <circle cx="14.131" cy="2.15" r="1.843" fill="#FF001E"/>
        <path fill="#FF5B5B" d="M4.301 14.926L4.301 15.794 6.271 13.824 9.83 13.824 9.83 13.21 6.017 13.21zM9.216 14.438L9.83 14.438 9.83 15.053 9.216 15.053z"/>
        <path fill="#FF5B5B" d="M6.144 14.438L8.602 14.438 8.602 15.053 6.144 15.053z"/>
        <path fill="#FF001E" d="M11.674 2.585v-.127c-.013-.099-.01-.195 0-.29v-.452L9.958 0H6.144v.614h3.56l1.97 1.97z"/>
        <path fill="#FF001E" d="M6.144 1.229L8.602 1.229 8.602 1.843 6.144 1.843zM9.216 1.229L9.83 1.229 9.83 1.843 9.216 1.843z"/>
    </g>
</svg>
