<svg xmlns="http://www.w3.org/2000/svg" width="16" height="16" viewBox="0 0 16 16">
    <path fill="#EB0B0B" d="M12.06.18c-.199 0-.36.161-.36.36 0 .199.161.36.36.36h2.188l-2.666 2.66C10.86 3.022 9.968 2.7 9 2.7c-.862 0-1.665.255-2.34.692-.675-.437-1.478-.692-2.34-.692C1.938 2.7 0 4.638 0 7.02c0 2.26 1.747 4.118 3.96 4.303v1.997H2.34c-.199 0-.36.161-.36.36 0 .199.161.36.36.36h1.62v1.62c0 .199.161.36.36.36.199 0 .36-.161.36-.36v-1.62H6.3c.199 0 .36-.161.36-.36 0-.199-.161-.36-.36-.36H4.68v-1.997c.725-.06 1.4-.3 1.98-.675.675.437 1.478.692 2.34.692 2.382 0 4.32-1.938 4.32-4.32 0-1.154-.453-2.206-1.193-2.981l2.633-2.633-.006 2.194h.006c0 .199.161.36.36.36.199 0 .36-.161.36-.36h-.006L15.48.54c0-.199-.161-.36-.36-.36h-3.06zM4.32 3.42c.63 0 1.218.162 1.732.444-.844.79-1.372 1.912-1.372 3.156 0 1.244.528 2.367 1.373 3.156-.515.282-1.103.444-1.733.444-1.992 0-3.6-1.608-3.6-3.6s1.608-3.6 3.6-3.6zm4.68 0c1.992 0 3.6 1.608 3.6 3.6s-1.608 3.6-3.6 3.6c-.63 0-1.218-.162-1.732-.444.844-.79 1.372-1.912 1.372-3.156 0-1.244-.528-2.367-1.373-3.156C7.782 3.582 8.37 3.42 9 3.42zm-2.34.866c.77.66 1.26 1.638 1.26 2.734s-.49 2.074-1.26 2.734C5.89 9.094 5.4 8.116 5.4 7.02s.49-2.074 1.26-2.734z"/>
</svg>
