<svg xmlns="http://www.w3.org/2000/svg" width="12" height="20" viewBox="0 0 12 20">
    <g fill="none" fill-rule="evenodd">
        <path fill="#AB2300" d="M5.77.002c1.074-.03 4.885.322 5.708 4.079.699 3.692-1.176 8.188-2.197 9.033-.814.778-1.963 1.646-3.51 1.646-1.549 0-6.026-.95-5.76-10.356C.686.226 4.696.032 5.771.002z"/>
        <path fill="#FF5B5B" d="M5.816.112c1.04-.029 4.731.312 5.527 3.95.678 3.574-1.138 7.926-2.127 8.744-.93.848-1.901 1.593-3.4 1.593-1.5 0-5.836-.92-5.578-10.025C.89.329 4.775.142 5.816.112z"/>
        <rect width="1.512" height="3.478" x="5.065" y="8.956" fill="#FFF" rx=".756"/>
        <path fill="#CD2A00" d="M.53 7.832c1.881.16 2.98.82 3.295 1.98.316 1.16.434 2.52.355 4.08-1.023-.376-1.937-1.293-2.744-2.75-.48-1.045-.783-2.148-.907-3.31zM11.008 7.832c-1.882.16-2.981.82-3.296 1.98-.316 1.16-.434 2.52-.355 4.08 1.023-.376 1.937-1.293 2.744-2.75.48-1.045.783-2.148.907-3.31z"/>
        <path fill="#FFE4E4" d="M3.541 6.847h4.476c1.03-.218 1.546-.71 1.546-1.476 0-1.148-1.25-2.59-3.87-2.59S2.171 4.29 2.171 5.37c0 .721.457 1.213 1.37 1.476z"/>
        <text fill="#292929" font-family="SFProDisplay-Medium, SF Pro Display" font-size="2.722" font-weight="400">
            <tspan x="3.783" y="6.362">6.4</tspan>
        </text>
        <path fill="#FFF" d="M8.467 10.227L8.467 11.724 9.322 10.869 8.467 10.014z"/>
        <path fill="#FFF" d="M2.344 10.227L2.344 11.724 3.198 10.869 2.344 10.014z" transform="matrix(-1 0 0 1 5.542 0)"/>
        <path fill="#5B9ED6" fill-rule="nonzero" d="M4.5 19.785c0 .118.115.213.256.213h1.928c.142 0 .257-.095.257-.213v-5.187H4.5v5.187z"/>
        <path fill="#E8F8FF" fill-rule="nonzero" d="M4.5 17.376h2.44v2.366c0 .142-.114.256-.256.256H4.756c-.141 0-.256-.114-.256-.256v-2.366z"/>
        <path fill="#C7D6DB" fill-rule="nonzero" d="M6.125 17.376v2.622h.56c.14 0 .256-.114.256-.256v-2.366h-.816z"/>
        <path fill="#D81229" fill-rule="nonzero" d="M6.125 18.732c0 .223-.181.404-.405.404-.223 0-.404-.18-.404-.404 0-.223.181-.404.404-.404.224 0 .405.18.405.404z"/>
    </g>
</svg>
