<svg xmlns="http://www.w3.org/2000/svg" width="21" height="16" viewBox="0 0 21 16">
    <g fill="none" transform="translate(.142)">
        <path fill="#FF5B5B" d="M9.962 6.655l-1.494 1.75c-.149.191-.384.298-.64.298h-1.3c-.235 0-.47-.107-.64-.299L4.393 6.655c-.234-.256-.618-.298-.896-.064-.256.235-.298.619-.064.896l2.027 2.368v5.205c0 .341.277.64.64.64.341 0 .64-.278.64-.64v-2.517c0-.086.085-.171.17-.171h.576c.086 0 .17.085.17.17v2.518c0 .341.278.64.64.64.342 0 .64-.278.64-.64V9.834l2.027-2.368c.235-.256.192-.661-.064-.896-.32-.213-.704-.17-.938.085z"/>
        <circle cx="7.167" cy="6.57" r="1.536" fill="#FF5B5B"/>
        <path fill="#FF001E" d="M20.222 7.892l-1.963-2.88c-.34-.511-.917-.81-1.535-.81h-1.259c-.619 0-1.173.299-1.536.81l-1.94 2.88c-.214.32-.193.747.084 1.003.342.341.896.256 1.152-.128l1.003-1.493v7.594c0 .384.256.725.64.789.469.085.874-.277.874-.747v-4.5c0-.086.086-.171.171-.171h.405c.086 0 .17.085.17.17v4.501c0 .384.257.726.64.79.47.085.875-.278.875-.747V7.295l1.003 1.493c.15.214.384.32.619.32.192 0 .384-.064.533-.234.256-.235.277-.662.064-.982z"/>
        <circle cx="16.105" cy="2.112" r="1.685" fill="#FF001E"/>
        <path fill="#FF4F63" d="M2.922 14.398h-1.77v-1.002h.938c.3 0 .534-.235.534-.533 0-.299-.235-.534-.534-.534h-.938v-1.002h.938c.3 0 .534-.235.534-.533 0-.3-.235-.534-.534-.534h-.938V9.258h.938c.3 0 .534-.235.534-.534 0-.298-.235-.533-.534-.533h-.938V7.19h.938c.3 0 .534-.235.534-.534 0-.298-.235-.533-.534-.533h-.938V5.119h.938c.3 0 .534-.234.534-.533 0-.298-.235-.533-.534-.533h-.938V3.05h.938c.3 0 .534-.234.534-.533 0-.299-.235-.384-.512-.384h-.96V1.131h1.77c.299 0 .534-.235.534-.534 0-.298-.235-.533-.534-.533H.64C.34.064.107.299.107.597v14.335c0 .298.234.533.533.533h2.304c.298 0 .533-.235.533-.533-.021-.299-.256-.534-.555-.534z"/>
    </g>
</svg>
