<svg xmlns="http://www.w3.org/2000/svg" width="30" height="36" viewBox="0 0 30 36">
    <g fill="none">
        <path fill="#D04D7F" d="M4.832 18.542H.645c-.33 0-.598-.268-.598-.598 0-.33.267-.598.598-.598h4.187c.33 0 .598.268.598.598 0 .33-.268.598-.598.598z"/>
        <path fill="#FF5A7F" d="M6.027 16.15c-.09 0-.18-.02-.266-.064L3.368 14.89c-.296-.148-.415-.507-.268-.802.149-.296.508-.416.803-.268l2.393 1.196c.295.148.415.507.267.803-.105.21-.316.33-.536.33zM3.636 22.13c-.22 0-.43-.12-.536-.33-.147-.295-.028-.655.268-.802L5.76 19.8c.296-.147.655-.028.803.268.148.295.028.655-.267.802l-2.393 1.197c-.086.043-.177.063-.267.063z"/>
        <path fill="#D04D7F" d="M29.355 18.542h-4.187c-.33 0-.598-.268-.598-.598 0-.33.268-.598.598-.598h4.187c.33 0 .598.268.598.598 0 .33-.267.598-.598.598z"/>
        <path fill="#FF5A7F" d="M26.364 22.13c-.09 0-.181-.02-.267-.062l-2.393-1.197c-.295-.147-.415-.507-.267-.802.148-.296.506-.415.803-.268l2.392 1.197c.296.147.415.507.268.802-.106.21-.316.33-.536.33zM23.973 16.15c-.22 0-.431-.121-.536-.331-.148-.296-.028-.655.267-.803l2.393-1.196c.295-.148.654-.028.802.268.148.295.029.654-.267.802l-2.392 1.196c-.086.043-.177.064-.267.064z"/>
        <path fill="#FF9A9F" d="M8.42 19.14H15v-2.392H8.42c-.66 0-1.196.535-1.196 1.196 0 .66.536 1.196 1.197 1.196z"/>
        <path fill="#FBB1A6" d="M21.58 16.748H15v2.392h6.58c.66 0 1.196-.535 1.196-1.196 0-.66-.536-1.196-1.197-1.196z"/>
        <path fill="#FFA991" d="M17.99 14.355h-5.98l-.942 1.795v2.635c0 .991.803 1.794 1.794 1.794h5.129l1.794-.84v-3.59c0-.99-.803-1.794-1.794-1.794z"/>
        <path fill="#F49176" d="M13.804 17.346v.534c0 .596.407 1.148.995 1.244.75.122 1.397-.454 1.397-1.18v-.598c0-.33-.268-.598-.598-.598h-1.196c-.33 0-.598.267-.598.598z"/>
        <path fill="#F49176" d="M12.01 17.944v-3.589c-.992 0-1.795.803-1.795 1.795v3.588c0 .991.803 1.795 1.794 1.795h5.982c.99 0 1.794-.804 1.794-1.795h-5.981c-.991 0-1.795-.803-1.795-1.794z"/>
        <path fill="#EAC89F" d="M8.42 4.785H15V2.392H8.42c-.66 0-1.196.536-1.196 1.197 0 .66.536 1.196 1.197 1.196z"/>
        <path fill="#F4DBB3" d="M21.58 2.393H15v2.392h6.58c.66 0 1.196-.536 1.196-1.196 0-.66-.536-1.196-1.197-1.196z"/>
        <path fill="#F5EBCD" d="M17.99 0h-5.98l-.942 1.794v2.657c0 .991.803 1.794 1.794 1.794h5.129l1.794-.862V1.794c0-.99-.803-1.794-1.794-1.794z"/>
        <path fill="#F4DBB3" d="M13.804 2.99v.535c0 .596.407 1.148.995 1.244.75.122 1.397-.454 1.397-1.18V2.99c0-.33-.268-.598-.598-.598h-1.196c-.33 0-.598.267-.598.598z"/>
        <path fill="#F4DBB3" d="M12.01 3.589V0c-.992 0-1.795.803-1.795 1.794v3.59c0 .99.803 1.794 1.794 1.794h5.982c.99 0 1.794-.804 1.794-1.795h-5.981c-.991 0-1.795-.803-1.795-1.794z"/>
        <path fill="#EAC89F" d="M8.42 11.963H15V9.57H8.42c-.66 0-1.196.536-1.196 1.196 0 .661.536 1.197 1.197 1.197z"/>
        <path fill="#F4DBB3" d="M21.58 9.57H15v2.393h6.58c.66 0 1.196-.536 1.196-1.197 0-.66-.536-1.196-1.197-1.196z"/>
        <path fill="#F5EBCD" d="M17.99 7.178h-5.98l-.942 1.794v2.657c0 .99.803 1.794 1.794 1.794h5.129l1.794-.862V8.972c0-.991-.803-1.794-1.794-1.794z"/>
        <path fill="#F4DBB3" d="M13.804 10.168v.534c0 .596.407 1.149.995 1.244.75.122 1.397-.453 1.397-1.18v-.598c0-.33-.268-.598-.598-.598h-1.196c-.33 0-.598.268-.598.598z"/>
        <path fill="#F4DBB3" d="M12.01 10.766V7.178c-.992 0-1.795.803-1.795 1.794v3.589c0 .99.803 1.794 1.794 1.794h5.982c.99 0 1.794-.803 1.794-1.794h-5.981c-.991 0-1.795-.804-1.795-1.795z"/>
        <path fill="#EAC89F" d="M8.42 4.785H15V2.392H8.42c-.66 0-1.196.536-1.196 1.197 0 .66.536 1.196 1.197 1.196z"/>
        <path fill="#F4DBB3" d="M21.58 2.393H15v2.392h6.58c.66 0 1.196-.536 1.196-1.196 0-.66-.536-1.196-1.197-1.196z"/>
        <path fill="#FFD3BE" d="M17.99 0h-5.98l-.942 1.794v2.657c0 .991.803 1.794 1.794 1.794h5.129l1.794-.862V1.794c0-.99-.803-1.794-1.794-1.794z"/>
        <path fill="#F4DBB3" d="M13.804 2.99v.535c0 .596.407 1.148.995 1.244.75.122 1.397-.454 1.397-1.18V2.99c0-.33-.268-.598-.598-.598h-1.196c-.33 0-.598.267-.598.598z"/>
        <path fill="#F6C1A8" d="M12.01 3.589V0c-.992 0-1.795.803-1.795 1.794v3.59c0 .99.803 1.794 1.794 1.794h5.982c.99 0 1.794-.804 1.794-1.795h-5.981c-.991 0-1.795-.803-1.795-1.794z"/>
        <path fill="#EAC89F" d="M8.42 11.963H15V9.57H8.42c-.66 0-1.196.536-1.196 1.196 0 .661.536 1.197 1.197 1.197z"/>
        <path fill="#F4DBB3" d="M21.58 9.57H15v2.393h6.58c.66 0 1.196-.536 1.196-1.197 0-.66-.536-1.196-1.197-1.196z"/>
        <path fill="#FFD3BE" d="M17.99 7.178h-5.98l-.942 1.794v2.657c0 .99.803 1.794 1.794 1.794h5.129l1.794-.862V8.972c0-.991-.803-1.794-1.794-1.794z"/>
        <path fill="#F6C1A8" d="M13.804 10.168v.534c0 .596.407 1.149.995 1.244.75.122 1.397-.453 1.397-1.18v-.598c0-.33-.268-.598-.598-.598h-1.196c-.33 0-.598.268-.598.598z"/>
        <path fill="#F6C1A8" d="M12.01 10.766V7.178c-.992 0-1.795.803-1.795 1.794v3.589c0 .99.803 1.794 1.794 1.794h5.982c.99 0 1.794-.803 1.794-1.794h-5.981c-.991 0-1.795-.804-1.795-1.795z"/>
        <path fill="#EAC89F" d="M8.42 26.318H15v-2.393H8.42c-.66 0-1.196.536-1.196 1.197 0 .66.536 1.196 1.197 1.196z"/>
        <path fill="#F4DBB3" d="M21.58 23.925H15v2.393h6.58c.66 0 1.196-.536 1.196-1.197 0-.66-.536-1.196-1.197-1.196z"/>
        <path fill="#FFD3BE" d="M17.99 21.533h-5.98l-.942 1.794v2.657c0 .99.803 1.794 1.794 1.794h5.129l1.794-.862v-3.589c0-.99-.803-1.794-1.794-1.794z"/>
        <path fill="#F6C1A8" d="M13.804 24.523v.535c0 .595.407 1.148.995 1.243.75.122 1.397-.453 1.397-1.18v-.598c0-.33-.268-.598-.598-.598h-1.196c-.33 0-.598.268-.598.598z"/>
        <path fill="#F6C1A8" d="M12.01 25.121v-3.588c-.992 0-1.795.803-1.795 1.794v3.589c0 .99.803 1.794 1.794 1.794h5.982c.99 0 1.794-.803 1.794-1.794h-5.981c-.991 0-1.795-.803-1.795-1.795z"/>
        <path fill="#EAC89F" d="M8.42 33.495H15v-2.392H8.42c-.66 0-1.196.535-1.196 1.196 0 .66.536 1.196 1.197 1.196z"/>
        <path fill="#F4DBB3" d="M21.58 31.103H15v2.392h6.58c.66 0 1.196-.535 1.196-1.196 0-.66-.536-1.196-1.197-1.196z"/>
        <path fill="#FFD3BE" d="M17.99 28.71h-5.98l-.942 1.795v2.656c0 .991.803 1.795 1.794 1.795h5.129l1.794-.863v-3.588c0-.991-.803-1.795-1.794-1.795z"/>
        <g fill="#F6C1A8">
            <path d="M3.64 3.033v.534c0 .596.407 1.148.995 1.244.75.122 1.398-.454 1.398-1.18v-.598c0-.33-.268-.598-.598-.598H4.238c-.33 0-.598.267-.598.598z" transform="translate(10.164 28.668)"/>
            <path d="M1.846 3.63V.043C.855.042.05.845.05 1.836v3.59c0 .99.804 1.794 1.795 1.794h5.981c.991 0 1.794-.804 1.794-1.795h-5.98c-.992 0-1.795-.803-1.795-1.794z" transform="translate(10.164 28.668)"/>
        </g>
    </g>
</svg>
