<svg xmlns="http://www.w3.org/2000/svg" width="52" height="39" viewBox="0 0 52 39">
    <g fill="none">
        <path fill="#FFD3BE" d="M13.548 10.685h4.311l7.082-3.807 5.03-6.764c2.53 1.124 3.636 4.115 2.445 6.615l-2.03 4.264h16.52c1.417 0 2.566 1.149 2.566 2.566 0 1.417-1.149 2.566-2.566 2.566h-8.795v4.62h-1.136v4.412h-2.272v4.311H23.002l-6.476-2.771h-2.978V10.685z"/>
        <path fill="#FF5A7F" d="M0 9.146L13.548 9.146 13.548 28.237 0 28.237z"/>
        <path fill="#EE3535" d="M46.598 24.336l-4.332 6.696c-2.155 3.331.297 7.674 4.332 7.674s6.487-4.343 4.332-7.674l-4.332-6.696z"/>
        <path fill="#FFF" d="M10.469 14.278c0 1.133-.919 2.052-2.053 2.052-1.133 0-2.053-.919-2.053-2.052 0-1.134.92-2.053 2.053-2.053 1.134 0 2.053.92 2.053 2.053z"/>
        <path fill="#D04D7F" d="M0 25.157L13.548 25.157 13.548 28.237 0 28.237z"/>
        <path fill="#FFA991" d="M23.632 26.389L17.157 23.618 13.548 23.618 13.548 26.697 16.526 26.697 23.002 29.468 34.703 29.468 34.703 26.389z"/>
        <path fill="#DB0E0E" d="M46.598 35.627c-2.394 0-4.23-1.53-4.879-3.469-1.05 3.106 1.287 6.548 4.879 6.548 3.592 0 5.93-3.442 4.879-6.548-.648 1.94-2.485 3.469-4.879 3.469z"/>
        <path fill="#000" d="M45.829 19.256L47.368 19.256 47.368 20.795 45.829 20.795zM11.239 14.278c0-1.556-1.266-2.823-2.823-2.823-1.556 0-2.822 1.267-2.822 2.823S6.86 17.1 8.416 17.1c1.557 0 2.823-1.266 2.823-2.822zm-4.106 0c0-.708.576-1.283 1.283-1.283.708 0 1.284.575 1.284 1.283 0 .707-.576 1.283-1.284 1.283-.707 0-1.283-.576-1.283-1.283z"/>
        <g fill="#FFF">
            <path d="M4.675 1.542h-1.54V.003h1.54v1.54zm-3.08 0H.057V.003h1.54v1.54zM41.338 6.355L42.63 5.519 44.272 8.057 42.98 8.893z" transform="translate(4.82 24.385)"/>
        </g>
    </g>
</svg>
