<svg xmlns="http://www.w3.org/2000/svg" width="38" height="41" viewBox="0 0 38 41">
    <g fill="none">
        <path fill="#FFA991" d="M31.203 12.325c-3.167-1.469-2.316-5.615-2.316-5.615-3.119 2.852-8.27.422-8.27.422-3.394 2.616-6.805.478-6.805.478C10.54 8.999 8 6.74 8 6.74c.541 2.89-1.802 3.85-1.802 3.85 2.515 4.012.336 6.718.336 6.718 3.985.95 4.477 6.42 3.017 8.104l.65.542c1.68 1.402 3.813 2.142 6 2.08l8.071-.224c.357-1.002.507-2.878 3.831-3.632-.666-2.674-.198-4.776 2.495-5.967-1.1-3.52.605-5.886.605-5.886z"/>
        <path fill="#DE9191" d="M8.093 6.803L8 6.74c.064.275.032.342.093.062zM28.902 6.71c-.075.056-.071.002-.052.264.028-.168.052-.264.052-.264zM24.32 26.4l-8.07.226c-2.176.06-4.255-.624-6.172-2.223-.127.405-.304.752-.527 1.01l.65.541c1.68 1.402 3.813 2.142 6 2.08l8.071-.224c.357-1.002.507-2.878 3.831-3.632-.116-.465-.196-.911-.238-1.34-3.047.795-3.198 2.59-3.544 3.563z"/>
        <path fill="#DE9191" d="M7.717 9.134c1.218.527 3.235 1.037 5.57.19 0 0 3.99 2.138 7.961-.478 0 0 4.193 1.69 7.7.596-.332-1.414-.061-2.732-.061-2.732-3.119 2.852-8.27.422-8.27.422-3.394 2.616-6.805.478-6.805.478C10.54 8.999 8 6.74 8 6.74c.192 1.028.02 1.811-.283 2.394zM14.715 16.892c-.025-.033-.05-.068-.074-.103-.063.013-.125.026-.187.041.154.034.261.062.261.062z"/>
        <g fill="#B86C72">
            <path d="M22.642 16.606c-.165 0-.33-.063-.457-.19-.9-.899-.855-2.714-.847-2.918.057-1.444-.468-2.658-1.434-3.679-.8-.846-.47-2.229.62-2.619.896-.32 2.043-.894 2.415-1.8.135-.331.513-.489.843-.354.33.136.489.514.353.844-.438 1.066-1.536 1.94-3.175 2.527-.217.078-.273.349-.117.514.877.927 1.898 2.48 1.787 4.62-.016.47.077 1.559.47 1.952.408.408.113 1.103-.458 1.103zM5.108 14.607c-.13-.416-.377-.817-.64-1.226-.133-.209-.412-.568-.774-.636-.186-.035-.582.22-.62.367-.068.35-.407.579-.758.51-.35-.068-.58-.408-.511-.758.222-1.144 2.33-2.393 3.751-.182.3.467.608.97.786 1.54.635 2.034 2.046 2.961 4.313 2.838.356-.019.661.253.68.61.02.356-.253.661-.61.68-2.859.158-4.803-1.135-5.617-3.743zM15.184 21.011c-.593 0-.87-.737-.43-1.13.071-.064.34-.453.246-1.062-.11-.717-.808-2.154-4.25-3.71-.325-.147-.469-.53-.322-.856.147-.325.53-.47.856-.322 3.051 1.38 4.732 2.96 4.995 4.698.171 1.133-.339 1.928-.667 2.22-.123.108-.276.162-.428.162z" transform="translate(6.708 6.061)"/>
            <path d="M5.698 14.871c-.278 0-.535-.18-.62-.461-.363-1.22.15-2.91 1.099-3.617 1.259-.939 3.034-.967 4.529-.464.696.234 1.02.421 4.489 2.176.318.16.446.55.285.868-.161.319-.55.447-.869.285-3.479-1.76-3.73-1.906-4.318-2.104-1.071-.36-2.43-.405-3.343.275-.514.383-.839 1.52-.632 2.21.124.415-.188.832-.62.832z" transform="translate(6.708 6.061)"/>
            <path d="M10.218 11.501c-.196 0-.39-.089-.517-.258C7.957 8.92 7.905 5.63 10.93 5.219c2.38-.324 3.757-1.135 4.493-1.759.85-.719 1.087-1.373 1.102-1.504.008-.354.302-.636.653-.633.357.003.643.296.64.653-.005.557-.466 1.517-1.484 2.406-1.576 1.377-3.714 1.912-5.23 2.118-.623.085-1.013.334-1.191.76-.275.658-.08 2.005.822 3.207.323.43.007 1.034-.517 1.034zM15.326 18.485c-.677 0-.897-.913-.296-1.221 1.024-.527 2.088-1.113 2.84-1.979.595-.685 1.117-1.79.796-2.836-.296-.963-1.467-2.317-3.198-2.905-1.24-.421-1.323-2.115-.176-2.689 2.933-1.468 3.967-2.909 3.354-4.673-.118-.337.06-.706.398-.823.337-.118.705.06.823.398 1.26 3.624-2.697 5.604-3.997 6.255-.134.066-.127.26.014.308 2.122.72 3.6 2.389 4.017 3.749.4 1.298-.005 2.855-1.055 4.064-.903 1.04-2.089 1.697-3.226 2.28-.094.05-.195.072-.294.072zM3.414 10.36c-1.045 0-2.28-.45-3.076-.942-.304-.187-.398-.585-.21-.89.186-.303.585-.398.889-.21.561.343 2.248 1.113 3.288.55.71-.384 1.094-1.369 1.141-2.926.041-1.38.822-2.551 2.258-3.388 1.02-.595 2.022-.814 2.064-.823.35-.075.693.147.768.497.074.348-.148.692-.496.767-.037.008-3.234.733-3.302 2.985-.07 2.375-.95 4.38-3.324 4.38z" transform="translate(6.708 6.061)"/>
            <path d="M2.924 7.059c-.424 0-.735-.402-.626-.813C2.962 3.745.817 1.12.795 1.093.567.818.605.411.879.183c.274-.228.68-.192.91.082.106.128 2.596 3.16 1.759 6.313-.077.29-.338.48-.624.48z" transform="translate(6.708 6.061)"/>
        </g>
        <path fill="#FF5A7F" d="M35.786 8.698s1.752-3.327-.614-6.8c-2.205-2.562-6.35-.124-6.35-.124S25.13-2.141 21.8 1.66c0 0-2.059-2.176-6.098.024-1.276-1.535-4.089-2.16-6.134-.216-5.625-2.28-6.733 3.776-6.733 3.776-4.618 2.144-1.538 7.137-1.538 7.137-3.539 4.394 1.285 7.423 1.285 7.423-1.757 1.431-.384 7.2 4.074 6.14.897-.213-1.063 3.799.532 4.886.62.423 1.38.48 1.93-.032 1.14-1.059-.342-4.492.433-5.386 1.46-1.684.968-7.154-3.017-8.104 0 0 2.18-2.706-.336-6.718 0 0 2.343-.96 1.802-3.85 0 0 2.54 2.259 5.812.87 0 0 3.411 2.138 6.806-.478 0 0 5.15 2.43 8.269-.422 0 0-.851 4.146 2.316 5.615 0 0-1.704 2.365-.605 5.886-2.693 1.19-3.161 3.293-2.495 5.966-3.324.755-3.474 2.63-3.83 3.633-4.55-3.153-7.047-.698-7.581.21-2.449 4.157 1.314 12.064 1.314 12.064h1.486c2.532-2.827 1.93-6.919 1.93-6.919s5.149 3.368 7.298-2.312c0 0 6.283-.186 5.366-6.84 0 0 4.28-2.753 2.677-7.756 0 0 2.182-3.986-.977-7.56z"/>
        <path fill="#D04D7F" d="M35.786 8.698c-.28-.243-.696.058-.555.401 1.214 2.935-.253 5.615-.253 5.615 1.603 5.002-2.678 7.757-2.678 7.757.918 6.653-5.365 6.84-5.365 6.84-2.15 5.679-7.299 2.31-7.299 2.31s.602 4.093-1.93 6.919h-.343c.36.948.643 1.543.643 1.543h1.486c2.532-2.826 1.93-6.918 1.93-6.918s5.149 3.368 7.298-2.312c0 0 6.283-.186 5.366-6.84 0 0 4.28-2.753 2.677-7.756 0 0 2.182-3.986-.977-7.56z"/>
        <path fill="#FF8595" d="M3.518 7.224S4.625 1.17 10.25 3.448c2.044-1.944 4.857-1.32 6.134.216 4.039-2.2 6.097-.024 6.097-.024 3.33-3.8 7.022.113 7.022.113s4.146-2.437 6.35.125c.172.251.32.502.451.75-.153-.857-.491-1.788-1.133-2.73-2.205-2.562-6.35-.124-6.35-.124S25.13-2.14 21.8 1.66c0 0-2.059-2.177-6.097.023-1.277-1.535-4.09-2.16-6.135-.216-5.625-2.28-6.733 3.776-6.733 3.776-3.822 1.774-2.372 5.499-1.758 6.731-.305-1.587-.065-3.588 2.44-4.75z"/>
    </g>
</svg>
