<svg xmlns="http://www.w3.org/2000/svg" width="40" height="40" viewBox="0 0 40 40">
    <g fill="none">
        <path fill="#FF5A7F" d="M36.386 12.55H39.5c.276 0 .5-.224.5-.5 0-.277-.224-.5-.5-.5h-3.114l-4.302-7.453L34.017.75c.138-.24.056-.545-.184-.683-.239-.139-.544-.056-.683.183l-1.933 3.348h-8.603L20.68.25c-.139-.239-.444-.322-.683-.183-.24.138-.321.444-.183.683l1.933 3.349-4.302 7.45H8.753l-4.446-7.7c-.138-.24-.444-.322-.683-.184-.24.138-.321.444-.183.683l4.446 7.701L3.585 19.5H.5c-.276 0-.5.224-.5.5s.224.5.5.5h3.085l4.302 7.45-4.446 7.702c-.138.24-.056.545.183.683.079.045.165.067.25.067.172 0 .34-.09.433-.25l4.446-7.701h8.693l4.302 7.45-1.933 3.349c-.138.24-.056.545.183.683.238.138.544.056.683-.183l1.933-3.348h8.604l1.932 3.348c.093.16.261.25.434.25.085 0 .17-.021.25-.067.239-.138.32-.444.183-.683l-1.933-3.348 4.302-7.451H39.5c.276 0 .5-.224.5-.5 0-.277-.224-.5-.5-.5h-3.114L32.084 20l4.302-7.45z"/>
        <path fill="#FFA991" d="M24.42 16.871h4.99c.18 0 .345-.095.434-.25l2.495-4.322c.09-.154.09-.345 0-.5l-2.495-4.322c-.09-.155-.254-.25-.433-.25h-4.99c-.18 0-.344.095-.434.25L21.492 11.8c-.089.155-.089.346 0 .5l2.495 4.322c.09.155.255.25.433.25zM29.41 23.129h-4.99c-.178 0-.343.095-.433.25L21.492 27.7c-.089.154-.089.345 0 .5l2.495 4.322c.09.155.255.25.433.25h4.99c.18 0 .345-.095.434-.25l2.495-4.322c.09-.155.09-.346 0-.5l-2.495-4.322c-.09-.155-.254-.25-.433-.25zM18.508 19.75l-2.496-4.322c-.09-.155-.254-.25-.433-.25h-4.99c-.18 0-.344.095-.433.25L7.66 19.75c-.089.155-.089.345 0 .5l2.496 4.322c.089.155.254.25.433.25h4.99c.179 0 .344-.095.433-.25l2.496-4.322c.089-.155.089-.345 0-.5z"/>
    </g>
</svg>
