<svg xmlns="http://www.w3.org/2000/svg" width="39" height="38" viewBox="0 0 39 38">
    <g fill="none">
        <g>
            <path fill="#FF5A7F" d="M30.917 15.385c0 8.506-6.953 15.386-15.459 15.386C6.953 30.77 0 23.89 0 15.385S6.953 0 15.458 0c8.506 0 15.46 6.88 15.46 15.385z" transform="matrix(-1 0 0 1 39 0)"/>
            <path fill="#D04D7F" d="M30.917 15.385c0 8.506-6.953 15.386-15.459 15.386V0c8.506 0 15.46 6.88 15.46 15.385z" opacity=".429" transform="matrix(-1 0 0 1 39 0)"/>
            <path fill="#FFA2AC" d="M26.521 15.385c0 6.066-4.996 10.99-11.063 10.99-6.066 0-11.062-4.924-11.062-10.99s4.996-10.99 11.062-10.99c6.067 0 11.063 4.924 11.063 10.99z" transform="matrix(-1 0 0 1 39 0)"/>
            <path fill="#FF80BB" d="M26.521 15.385c0 6.066-4.996 10.99-11.063 10.99V4.395c6.067 0 11.063 4.924 11.063 10.99z" opacity=".323" transform="matrix(-1 0 0 1 39 0)"/>
            <path fill="#FDE4E4" d="M15.458 11.187c-.35-.132-.703-.198-1.099-.198-1.824 0-3.296 1.473-3.296 3.297s1.472 3.297 3.296 3.297c.396 0 .748-.066 1.1-.198 1.274-.44 2.27-1.67 2.27-3.099 0-1.428-.996-2.66-2.27-3.099z" transform="matrix(-1 0 0 1 39 0)"/>
            <path fill="#FCCED3" d="M17.73 14.286c0 1.429-.997 2.66-2.272 3.1v-6.199c1.275.44 2.272 1.67 2.272 3.1z" transform="matrix(-1 0 0 1 39 0)"/>
        </g>
        <g transform="translate(0 15)">
            <ellipse cx="15.892" cy="6.779" fill="bisque" rx="5.5" ry="3.983" transform="rotate(-49.747 15.892 6.779)"/>
            <path fill="#FDD9B1" d="M19.46 2.585c-.735-.63-1.718-.843-2.757-.688.565.092 1.083.318 1.516.688 1.671 1.431 1.43 4.466-.54 6.78-1.103 1.295-2.514 2.089-3.836 2.286 1.618.265 3.618-.572 5.077-2.287 1.97-2.313 2.212-5.348.54-6.779z"/>
            <path fill="#F2CA9C" d="M13.136 10.019c-1.344-1.15-.491-3.658.677-5.03 1.508-1.771 3.726-2.414 4.84-1.46 1.343 1.15.49 3.658-.678 5.03-1.507 1.771-3.726 2.413-4.84 1.46zM7.767 13.67c-.061.717.113 1.463-.104 2.146-.284.891-1.162 1.433-2.031 1.687-.869.254-1.79.303-2.638.622C1.379 18.73.162 20.602 0 22.375c-.004.046.06.063.08.02.368-.843 1.207-1.66 2.062-1.963.94-.334 1.945-.396 2.922-.58.977-.185 1.979-.522 2.66-1.273.542-.597.826-1.393 1.06-2.177.232-.784.433-1.593.853-2.288.419-.695 1.11-1.273 1.899-1.3.218-.007.457.022.636-.108.235-.17.243-.55.093-.804-.15-.253-.41-.408-.665-.546-.404-.219-.636-.553-1.1-.524-.453.029-.915.23-1.294.48-.779.516-1.357 1.391-1.44 2.358z"/>
            <ellipse cx="11.76" cy="11.056" fill="bisque" rx="1.44" ry="2.266" transform="rotate(-45 11.76 11.056)"/>
            <path fill="#FDD9B1" d="M12.78 10.037c-.777-.778-1.778-1.074-2.39-.752.39.14.793.396 1.15.752.884.885 1.146 2.059.584 2.621-.068.068-.146.124-.23.168.58.21 1.135.168 1.471-.168.563-.562.301-1.736-.584-2.621z"/>
        </g>
    </g>
</svg>
