<svg xmlns="http://www.w3.org/2000/svg" width="31" height="37" viewBox="0 0 31 37">
    <g fill="none">
        <circle cx="8.541" cy="16.167" r="6.5" fill="#FF5A7F"/>
        <path fill="#FFA991" d="M8.756 8.374c-.844 1.115-.947 2.624-.263 3.844.684 1.22 2.025 1.92 3.417 1.782-.14 1.397.564 2.742 1.79 3.425 1.226.683 2.741.572 3.855-.283 1.113-.854 1.613-2.288 1.271-3.65-.276-1-.004-2.074.716-2.822L30.174.048h-8.616l-6.32 6.32c-.749.72-1.821.992-2.822.716-1.368-.342-2.808.166-3.66 1.29z"/>
        <path fill="#FFD3BE" d="M12.476 20.902c-.192-1.385-1.186-2.526-2.533-2.905-1.346-.38-2.79.074-3.676 1.156-.89-1.086-2.338-1.54-3.688-1.155-1.35.384-2.342 1.534-2.526 2.925-.183 1.391.477 2.759 1.681 3.48.904.513 1.47 1.464 1.49 2.502v9.846H9.31v-9.846c.02-1.038.586-1.99 1.489-2.502 1.21-.725 1.87-2.103 1.677-3.5z"/>
    </g>
</svg>
