<svg xmlns="http://www.w3.org/2000/svg" width="45" height="41" viewBox="0 0 45 41">
    <g fill="none">
        <path fill="#FFD3BE" d="M18.168 1.355v14.95c0 1.322-1.072 2.393-2.394 2.393h-6.5V21.4h6.618c2.754 0 4.986-2.231 4.986-4.985V1.355C20.878.607 20.27 0 19.523 0c-.749 0-1.355.607-1.355 1.355z"/>
        <path fill="#FFA991" d="M18.168 38.746v-14.95c0-1.322-1.072-2.393-2.394-2.393h-6.5V18.7h6.618c2.754 0 4.986 2.232 4.986 4.985v15.06c0 .75-.607 1.356-1.355 1.356-.749 0-1.355-.607-1.355-1.355z"/>
        <path fill="#FF5A7F" d="M4.447 10.621c-6.711 6.462-5.703 20.232 2.19 23.345 7.63 3.01 10.31-5.137 6.994-9.077-3.004-3.57-2.19-5.61.72-11.473 2.912-5.864-3.478-8.98-9.904-2.795z"/>
        <path fill="#D04D7F" d="M14.352 13.416c1.356-2.732.693-4.867-1.051-5.743 1.074 1.158 1.196 3.015-.158 5.162-3.538 5.607-4.558 7.573-1.654 11.38.907 1.188 1.28 2.672 1.17 4.108-.048.629.337 1.378.109 1.96-.25.633-1.129 1.09-1.581 1.595-1.215 1.354-3.14 2.111-5.67 1.55.357.203.73.384 1.12.538 7.63 3.01 10.311-5.137 6.994-9.077-3.004-3.569-2.19-5.61.72-11.473z"/>
        <path fill="#FF8595" d="M14.497 8.7c-1.514-2.191-5.774-2.196-10.05 1.921-6.692 6.444-5.708 20.154 2.125 23.318-3.876-3.217-5.15-9.66-3.63-15.238.209-.768-.37-1.748-.055-2.472.287-.66 1.46-1.068 1.835-1.675C6.67 11.411 10.91 8.081 14.497 8.7z"/>
        <g fill="#846069">
            <path d="M6.193 3.673c-.273-.088-1.465-.06-2.024-1.448C3.895 1.545 3.92.87 3.92.85c.02-.4-.286-.74-.686-.761-.402-.022-.742.286-.763.686-.005.097-.04.978.33 1.937.363.938 1.177 2.1 2.993 2.36.09-.44.225-.903.4-1.398zM5.659 6.344c-1.116.027-3.208.861-3.52 3.885-.041.398.249.755.648.796.398.041.755-.248.796-.648.254-2.467 1.941-2.578 2.14-2.583.054 0 .108-.007.16-.02-.149-.47-.221-.942-.224-1.43zM2.696 6.187H.776c-.402 0-.727-.325-.727-.726 0-.4.325-.725.726-.725h1.92c.402 0 .727.325.727.725 0 .401-.325.726-.726.726z" transform="translate(6.079 14.335)"/>
        </g>
        <path fill="#FFA991" d="M26.832 38.746v-14.95c0-1.322 1.072-2.393 2.394-2.393h6.5V18.7h-6.618c-2.754 0-4.986 2.232-4.986 4.985v15.06c0 .75.607 1.356 1.355 1.356.749 0 1.355-.607 1.355-1.355z"/>
        <path fill="#FFD3BE" d="M26.832 1.355v14.95c0 1.322 1.072 2.393 2.394 2.393h6.5V21.4h-6.618c-2.754 0-4.986-2.231-4.986-4.985V1.355C24.122.607 24.73 0 25.477 0c.749 0 1.355.607 1.355 1.355z"/>
        <path fill="#FF5A7F" d="M40.553 10.621c6.711 6.462 5.703 20.232-2.19 23.345-7.63 3.01-10.31-5.137-6.994-9.077 3.004-3.57 2.19-5.61-.72-11.473-2.912-5.864 3.478-8.98 9.904-2.795z"/>
        <path fill="#FF8595" d="M33.06 25.36c3.005-3.569 2.19-5.609-.72-11.473-1.97-3.968.32-6.677 3.997-6.098-4.609-1.815-7.946 1.079-5.689 5.627 2.91 5.864 3.725 7.904.72 11.473-2.7 3.208-1.424 9.205 3.262 9.697-3.264-1.571-3.91-6.446-1.57-9.226z"/>
        <path fill="#D04D7F" d="M40.553 10.621c-2.318-2.231-4.631-3.252-6.505-3.37 1.485.474 3.127 1.447 4.771 3.03 3.356 3.231 4.782 8.289 4.382 12.928-.065.753-.784 1.587-.945 2.308-.16.72.239 1.327-.016 1.997-1.063 2.792-2.944 5.06-5.61 6.112-1.24.489-2.349.682-3.322.648 1.315.503 3.006.5 5.055-.308 7.893-3.113 8.901-16.883 2.19-23.345z"/>
        <path fill="#846069" d="M35.691 14.424c-.399.02-.707.36-.69.759.001.007.028.689-.25 1.377-.557 1.385-1.741 1.357-2.023 1.448.176.495.31.957.4 1.397 2.785-.4 3.394-2.977 3.323-4.297-.02-.398-.36-.704-.76-.684zM33.263 20.678c-.003.49-.076.96-.224 1.431.054.012.109.02.166.02.916 0 1.949.792 2.133 2.583.04.394.392.689.797.648.398-.041.688-.398.647-.797-.311-3.023-2.404-3.858-3.52-3.885zM38.146 20.522h-1.92c-.401 0-.726-.325-.726-.726 0-.4.325-.726.725-.726h1.921c.4 0 .726.325.726.726 0 .4-.325.726-.726.726z"/>
        <circle cx="4.089" cy="16.943" r="1" fill="#FAB"/>
        <circle cx="11.669" cy="30.241" r="1" fill="#D04D7F" transform="rotate(-42.366 11.669 30.241)"/>
        <circle cx="42.408" cy="23.149" r="1" fill="#D04D7F" transform="rotate(-71.511 42.408 23.149)"/>
    </g>
</svg>
