<svg xmlns="http://www.w3.org/2000/svg" width="29" height="44" viewBox="0 0 29 44">
    <g fill="none">
        <path fill="#FF5A7F" d="M14.45 9.89c-.092-.005-.184-.008-.277-.008-.092 0-.184.003-.277.008C6.191 10.049 0 16.756 0 25.027c0 1.097.89 1.987 1.987 1.987s1.987-.89 1.987-1.987c0-3.58 1.162-6.865 3.102-9.455-1.284 2.57-2.14 5.841-2.374 9.455h18.942c-.232-3.614-1.089-6.885-2.374-9.455 1.941 2.59 3.103 5.875 3.103 9.455 0 1.097.89 1.987 1.987 1.987s1.987-.89 1.987-1.987c0-8.271-6.191-14.978-13.897-15.137z"/>
        <path fill="#674297" d="M23.68 25.712H4.666c-.018.43-.03.866-.03 1.305 0 6.298 1.892 11.799 4.708 14.776-.901.452-1.444 1.033-1.444 1.668h5.928l.346-13.158.346 13.158h5.927c0-.635-.542-1.216-1.444-1.668 2.817-2.977 4.708-8.478 4.708-14.776 0-.44-.012-.875-.03-1.305z"/>
        <path fill="#FFD3BE" d="M14.173 9.227c2.548 0 4.614-2.065 4.614-4.614C18.787 2.066 16.72 0 14.173 0 11.626 0 9.56 2.066 9.56 4.614s2.067 4.613 4.614 4.613z"/>
    </g>
</svg>
