<svg xmlns="http://www.w3.org/2000/svg" width="34" height="40" viewBox="0 0 34 40">
    <g fill="none">
        <path fill="#EB866C" d="M21.289 11.603H12.46c-.69 0-1.248-.559-1.248-1.248V6.63c0-.69.559-1.248 1.248-1.248h8.828c.69 0 1.248.559 1.248 1.248v3.724c0 .69-.559 1.248-1.248 1.248z"/>
        <path fill="#FFA991" d="M21.289 11.603H12.46c-.69 0-1.248-.559-1.248-1.248V6.63c0-.69.559-1.248 1.248-1.248h8.828c.69 0 1.248.559 1.248 1.248v3.724c0 .69-.559 1.248-1.248 1.248z"/>
        <path fill="#F49176" d="M21.346 5.383h-2.392c.657 0 1.19.585 1.19 1.308v3.604c0 .722-.533 1.308-1.19 1.308h2.392c.658 0 1.19-.586 1.19-1.308V6.69c0-.723-.532-1.308-1.19-1.308z"/>
        <path fill="#EB866C" d="M21.289 22.927H12.46c-.69 0-1.248-.56-1.248-1.249v-3.723c0-.69.559-1.249 1.248-1.249h8.828c.69 0 1.248.56 1.248 1.249v3.723c0 .69-.559 1.249-1.248 1.249z"/>
        <path fill="#FDD9B1" d="M21.289 22.927H12.46c-.69 0-1.248-.56-1.248-1.249v-3.723c0-.69.559-1.249 1.248-1.249h8.828c.69 0 1.248.56 1.248 1.249v3.723c0 .69-.559 1.249-1.248 1.249z"/>
        <path fill="#F2CA9C" d="M21.346 16.706h-2.392c.657 0 1.19.586 1.19 1.309v3.603c0 .723-.533 1.309-1.19 1.309h2.392c.658 0 1.19-.586 1.19-1.309v-3.603c0-.723-.532-1.309-1.19-1.309z"/>
        <path fill="#EB866C" d="M21.289 34.25H12.46c-.69 0-1.248-.559-1.248-1.248v-3.724c0-.689.559-1.248 1.248-1.248h8.828c.69 0 1.248.559 1.248 1.248v3.724c0 .69-.559 1.248-1.248 1.248z"/>
        <path fill="#FFA991" d="M21.289 34.25H12.46c-.69 0-1.248-.559-1.248-1.248v-3.724c0-.689.559-1.248 1.248-1.248h8.828c.69 0 1.248.559 1.248 1.248v3.724c0 .69-.559 1.248-1.248 1.248z"/>
        <path fill="#F49176" d="M21.346 28.03h-2.392c.657 0 1.19.586 1.19 1.308v3.604c0 .723-.533 1.308-1.19 1.308h2.392c.658 0 1.19-.585 1.19-1.308v-3.604c0-.722-.532-1.308-1.19-1.308z"/>
        <path fill="#EB866C" d="M21.346 5.662h-8.942c-.658 0-1.19-.533-1.19-1.19V1.19c0-.658.532-1.191 1.19-1.191h8.942c.658 0 1.19.533 1.19 1.19v3.281c0 .658-.532 1.19-1.19 1.19z"/>
        <path fill="#FFD3BE" d="M21.346 5.662h-8.942c-.658 0-1.19-.533-1.19-1.19V1.19c0-.658.532-1.191 1.19-1.191h8.942c.658 0 1.19.533 1.19 1.19v3.281c0 .658-.532 1.19-1.19 1.19z"/>
        <path fill="#F6C1A8" d="M21.346 0h-2.392c.657 0 1.19.533 1.19 1.19v3.281c0 .658-.533 1.19-1.19 1.19h2.392c.658 0 1.19-.532 1.19-1.19v-3.28c0-.658-.532-1.191-1.19-1.191z"/>
        <path fill="#EB866C" d="M21.346 16.986h-8.942c-.658 0-1.19-.533-1.19-1.191v-3.28c0-.658.532-1.191 1.19-1.191h8.942c.658 0 1.19.533 1.19 1.19v3.28c0 .658-.532 1.192-1.19 1.192z"/>
        <path fill="bisque" d="M21.346 16.986h-8.942c-.658 0-1.19-.533-1.19-1.191v-3.28c0-.658.532-1.191 1.19-1.191h8.942c.658 0 1.19.533 1.19 1.19v3.28c0 .658-.532 1.192-1.19 1.192z"/>
        <path fill="#FDD9B1" d="M21.346 11.324h-2.392c.657 0 1.19.533 1.19 1.19v3.28c0 .658-.533 1.192-1.19 1.192h2.392c.658 0 1.19-.534 1.19-1.191v-3.28c0-.658-.532-1.191-1.19-1.191z"/>
        <path fill="#EB866C" d="M21.346 28.31h-8.942c-.658 0-1.19-.534-1.19-1.191v-3.28c0-.658.532-1.192 1.19-1.192h8.942c.658 0 1.19.534 1.19 1.191v3.28c0 .658-.532 1.191-1.19 1.191z"/>
        <path fill="#FFD3BE" d="M21.346 28.31h-8.942c-.658 0-1.19-.534-1.19-1.191v-3.28c0-.658.532-1.192 1.19-1.192h8.942c.658 0 1.19.534 1.19 1.191v3.28c0 .658-.532 1.191-1.19 1.191z"/>
        <path fill="#F6C1A8" d="M21.346 22.647h-2.392c.657 0 1.19.534 1.19 1.191v3.28c0 .658-.533 1.191-1.19 1.191h2.392c.658 0 1.19-.533 1.19-1.19v-3.28c0-.658-.532-1.192-1.19-1.192z"/>
        <path fill="#EB866C" d="M21.346 39.633h-8.942c-.658 0-1.19-.533-1.19-1.19v-3.281c0-.658.532-1.19 1.19-1.19h8.942c.658 0 1.19.532 1.19 1.19v3.28c0 .658-.532 1.191-1.19 1.191z"/>
        <path fill="#FFD3BE" d="M21.346 39.633h-8.942c-.658 0-1.19-.533-1.19-1.19v-3.281c0-.658.532-1.19 1.19-1.19h8.942c.658 0 1.19.532 1.19 1.19v3.28c0 .658-.532 1.191-1.19 1.191z"/>
        <path fill="#F6C1A8" d="M21.346 33.971h-2.392c.657 0 1.19.533 1.19 1.19v3.281c0 .658-.533 1.191-1.19 1.191h2.392c.658 0 1.19-.533 1.19-1.19v-3.281c0-.658-.532-1.19-1.19-1.19z"/>
        <path fill="#FF5A7F" d="M33.345 10.171c-1.057 2.343-3.646 8.78-5.243 12.984-1.598 4.203-7.032 3.847-8.83 1.629-1.338-1.652-3.455-1.652-4.794 0-1.798 2.218-7.232 2.574-8.83-1.63C4.05 18.952 1.463 12.515.405 10.172-.652 7.828.249 4.233 4.426 4.233s6.042 2.94 6.66 3.88c.616.94 10.963.94 11.58 0 .615-.94 2.481-3.88 6.658-3.88 4.177 0 5.078 3.595 4.02 5.938z"/>
        <path fill="#D04D7F" d="M29.324 4.233c-.448 0-.868.035-1.265.097 3.21.588 3.853 3.725 2.898 5.841-1.057 2.343-3.645 8.78-5.243 12.984-.702 1.847-2.145 2.814-3.695 3.129 2.258.446 5.02-.332 6.083-3.13 1.598-4.203 4.186-10.64 5.243-12.983 1.057-2.343.156-5.938-4.02-5.938z"/>
        <g fill="#D04D7F">
            <path d="M4.067 1.568c-.125-.295-.466-.433-.761-.308-.826.35-1.783-.036-2.134-.862C1.047.103.706-.035.411.09.116.216-.022.556.103.852c.6 1.41 2.237 2.08 3.657 1.477.295-.125.433-.466.307-.761zM6.475 6.511c-.692.575-1.717.48-2.292-.213-.204-.247-.57-.28-.817-.076-.247.205-.28.57-.076.818.983 1.185 2.74 1.35 3.926.365.247-.205.281-.57.076-.817-.204-.247-.57-.281-.817-.077zM19.56.09c-.294-.125-.636.013-.76.308-.351.826-1.309 1.213-2.135.862-.295-.125-.636.013-.76.308-.126.295.011.636.307.761 1.42.603 3.057-.067 3.656-1.477.125-.295-.012-.636-.308-.762zM16.605 6.222c-.246-.205-.612-.17-.817.076-.574.692-1.6.788-2.292.213-.246-.204-.612-.17-.817.077-.205.246-.17.612.076.817 1.19.988 2.95.81 3.926-.365.205-.247.171-.613-.076-.818zM11.142 1.595c-.643.627-1.675.613-2.302-.03-.223-.23-.59-.234-.82-.01-.23.223-.235.591-.011.82 1.075 1.104 2.844 1.123 3.943.052.23-.224.234-.591.01-.82-.223-.23-.59-.235-.82-.012z" transform="translate(6.89 12.076)"/>
        </g>
    </g>
</svg>
