<svg xmlns="http://www.w3.org/2000/svg" width="41" height="38" viewBox="0 0 41 38">
    <g fill="none">
        <path fill="#FF5A7F" d="M19.892 36.9c1.22 0 2.244-.834 2.53-1.96-1.71-1.475-2.792-3.652-2.792-6.08 0-2.466 1.115-4.671 2.87-6.146V12.496c0-1.434-1.168-2.596-2.608-2.596H2.608C1.168 9.9 0 11.062 0 12.496v21.808C0 35.738 1.168 36.9 2.608 36.9"/>
        <path fill="#D04D7F" d="M19.892 9.9H17.96c1.44 0 2.608 1.162 2.608 2.596v8.909c0 .405-.145.796-.408 1.105-.795.935-1.418 2.019-1.82 3.204-.413.966-.642 2.03-.642 3.146 0 1.121.23 2.19.648 3.16l.008.024c.383 1.114-.436 2.276-1.62 2.276H2.608C1.168 34.32 0 33.157 0 31.724v2.58C0 35.738 1.168 36.9 2.608 36.9h17.284c.847 0 1.6-.402 2.076-1.025l.008-.011c.02-.025.038-.051.056-.077l.015-.021.047-.071c.005-.01.011-.018.017-.027l.04-.068.018-.031.036-.066.018-.035.031-.064.018-.038.028-.065.016-.039.026-.067.014-.039.024-.073.011-.034.03-.11c-.088-.076-.174-.154-.259-.234l-.03-.028c-.081-.078-.161-.157-.24-.237l-.032-.034c-.078-.082-.155-.166-.23-.251l-.022-.026c-.079-.09-.155-.18-.23-.273-1.094-1.372-1.748-3.108-1.748-4.996 0-2.466 1.115-4.671 2.87-6.146V12.496c0-1.434-1.168-2.596-2.608-2.596z"/>
        <path fill="#C3415E" d="M5.4 7.2L18 7.2 18 9.9 5.4 9.9z"/>
        <path fill="#A33760" d="M14.4 7.2L18 7.2 18 9.9 14.4 9.9z"/>
        <path fill="#FF5A7F" d="M2.7 4.5v2.59c0 .558.453 1.01 1.01 1.01h15.98c.558 0 1.01-.452 1.01-1.01V1.91c0-.558-.452-1.01-1.01-1.01H3.71c-.558 0-1.01.453-1.01 1.01V4.5z"/>
        <path fill="#D04D7F" d="M16.2.9v7.2h3.498c.553 0 1.002-.452 1.002-1.01V1.91c0-.558-.449-1.01-1.002-1.01H16.2z"/>
        <path fill="#EF2D57" d="M18 23.85c0 3.728-3.022 6.75-6.75 6.75S4.5 27.578 4.5 23.85s3.022-6.75 6.75-6.75S18 20.122 18 23.85z"/>
        <path fill="#D9294F" d="M15.007 18c.767 1.113 1.217 2.462 1.217 3.915 0 3.816-3.093 6.909-6.908 6.909-1.454 0-2.803-.45-3.916-1.217 1.246 1.807 3.33 2.993 5.691 2.993 3.816 0 6.909-3.093 6.909-6.909 0-2.361-1.185-4.445-2.993-5.691z"/>
        <path fill="#FCDA55" d="M36 29.7c0 4.474-3.626 8.1-8.1 8.1s-8.1-3.626-8.1-8.1 3.626-8.1 8.1-8.1 8.1 3.626 8.1 8.1z"/>
        <path fill="#D9BC4A" d="M32.83 22.5c1.022 1.346 1.63 3.024 1.63 4.845 0 4.426-3.589 8.015-8.015 8.015-1.82 0-3.5-.608-4.845-1.63 1.464 1.926 3.779 3.17 6.385 3.17 4.427 0 8.015-3.588 8.015-8.015 0-2.606-1.244-4.921-3.17-6.385z"/>
        <path fill="#D9BC4A" d="M22.5 35.237c.321.28.664.535 1.026.763L35.1 24.425c-.228-.361-.483-.704-.763-1.025-.051.029-.1.065-.145.109L22.61 35.092c-.044.044-.08.093-.109.145z"/>
        <path fill="#F084AD" d="M33.097 10.882c-2.915.712-5.197 3.127-5.197 6.258v3.963h.091c4.503 0 8.153 3.682 8.153 8.226 0 2.242-.889 4.274-2.33 5.758.128.008.256.013.386.013 3.48 0 6.3-2.846 6.3-6.357V17.14c0-3.131-2.244-5.731-5.197-6.258 0 0-1.45-.184-2.206 0z"/>
        <path fill="#D47499" d="M35.49 10.882c-.762-.11-1.47-.11-2.126 0-.021.004-.043.01-.064.013 2.814.554 4.945 3.138 4.945 6.245v11.603c0 2.669-1.572 4.952-3.8 5.895-.124.154-.254.304-.39.449.124.008.247.013.373.013 3.353 0 6.072-2.846 6.072-6.357V17.14c0-3.13-2.163-5.731-5.01-6.258z"/>
        <path fill="#EF2D57" d="M33.3 23.4c1.797 1.451 2.945 3.666 2.945 6.147 0 2.157-.868 4.113-2.276 5.54.125.008.25.013.377.013 3.399 0 6.154-2.739 6.154-6.117V23.4h-7.2z"/>
        <path fill="#CC264B" d="M38.295 28.983c0 2.568-1.536 4.765-3.713 5.672-.057.07-.115.137-.174.204l-.03.034c-.059.066-.118.131-.178.194.12.008.241.013.364.013 3.278 0 5.936-2.739 5.936-6.117V23.4h-2.205v5.583z"/>
        <path fill="#FFF" d="M14.7 22.8h-2.4v-2.4c0-.332-.27-.6-.6-.6-.331 0-.6.268-.6.6v2.4H8.7c-.332 0-.6.269-.6.6 0 .33.268.6.6.6h2.4v2.4c0 .332.269.6.6.6.33 0 .6-.268.6-.6V24h2.4c.332 0 .6-.27.6-.6 0-.331-.268-.6-.6-.6z"/>
        <g fill="#674297">
            <path d="M.682 8.59c-.338 0-.612-.291-.612-.65V.65C.07.29.344 0 .682 0c.337 0 .611.29.611.649V7.94c0 .358-.274.648-.611.648zM5.072 8.59c-.338 0-.612-.291-.612-.65V.65C4.46.29 4.734 0 5.072 0c.338 0 .612.29.612.649V7.94c0 .358-.274.648-.612.648zM9.463 8.59c-.338 0-.612-.291-.612-.65V.65C8.85.29 9.125 0 9.463 0c.337 0 .611.29.611.649V7.94c0 .358-.274.648-.611.648z" transform="translate(6.3)"/>
        </g>
        <path fill="#E69326" d="M22.231 36c-.161 0-.323-.062-.446-.185-.247-.247-.247-.646 0-.893l11.337-11.337c.247-.246.646-.247.893 0s.247.646 0 .893L22.678 35.815c-.124.123-.285.185-.447.185z"/>
    </g>
</svg>
