<svg xmlns="http://www.w3.org/2000/svg" width="100" height="33" viewBox="0 0 100 33">
    <g fill="none" fill-rule="evenodd">
        <rect width="99" height="32" x=".5" y=".5" fill="#FFF" stroke="#ECECEC" rx="16"/>
        <text fill="#292929" font-family="SFProDisplay-Semibold, SF Pro Display" font-size="11" font-weight="500" opacity=".8">
            <tspan x="38.494" y="20">Afternoon</tspan>
        </text>
        <g fill="#000" fill-rule="nonzero">
            <path d="M15.4 9.6c0-3.215-2.602-5.831-5.8-5.831S3.8 6.385 3.8 9.6c0 3.215 2.602 5.831 5.8 5.831s5.8-2.616 5.8-5.831zm-5.8 5.351c-2.934 0-5.32-2.4-5.32-5.351 0-2.95 2.386-5.351 5.32-5.351s5.32 2.4 5.32 5.351c0 2.95-2.386 5.351-5.32 5.351zM9.84 2.205V.24C9.84.108 9.733 0 9.6 0s-.24.108-.24.24v1.965c0 .132.107.24.24.24s.24-.108.24-.24zM5.902 3.436c.041 0 .082-.01.12-.033.115-.066.154-.213.088-.327l-.982-1.702c-.067-.115-.213-.154-.328-.088-.115.067-.154.213-.088.328l.982 1.702c.045.077.126.12.208.12zM1.374 5.128l1.701.982c.038.022.08.032.12.032.083 0 .164-.043.208-.12.067-.114.027-.261-.088-.328l-1.701-.982c-.115-.066-.262-.027-.328.088-.066.115-.027.262.088.328zM.24 9.84h1.965c.132 0 .24-.107.24-.24 0-.132-.108-.24-.24-.24H.24c-.133 0-.24.108-.24.24 0 .133.107.24.24.24zM1.286 14.4c.045.077.125.12.208.12.04 0 .082-.01.12-.032l1.701-.982c.115-.067.155-.213.088-.328-.066-.115-.213-.155-.328-.088l-1.701.982c-.115.066-.154.213-.088.328zM5.694 15.885l-.982 1.701c-.066.115-.027.262.088.328.038.022.08.032.12.032.083 0 .163-.043.208-.12l.982-1.701c.066-.115.027-.262-.088-.328-.115-.067-.261-.027-.328.088zM9.36 16.995v1.965c0 .133.107.24.24.24s.24-.107.24-.24v-1.965c0-.132-.107-.24-.24-.24s-.24.108-.24.24zM13.178 15.797c-.115.066-.154.213-.088.328l.982 1.701c.045.077.125.12.208.12.04 0 .082-.01.12-.032.115-.066.154-.213.088-.328l-.982-1.701c-.067-.115-.214-.155-.328-.088zM17.826 14.072l-1.701-.982c-.116-.067-.262-.027-.328.088-.067.115-.027.261.088.328l1.701.982c.038.022.08.032.12.032.083 0 .163-.043.208-.12.066-.115.027-.262-.088-.328zM18.96 9.36h-1.965c-.132 0-.24.108-.24.24 0 .133.108.24.24.24h1.965c.133 0 .24-.107.24-.24 0-.132-.107-.24-.24-.24zM17.914 4.8c-.067-.115-.213-.154-.328-.088l-1.701.982c-.115.067-.155.214-.088.328.044.077.125.12.208.12.04 0 .082-.01.12-.032l1.701-.982c.115-.066.154-.213.088-.328zM13.297 3.436c.083 0 .164-.043.209-.12l.982-1.702c.066-.115.027-.261-.088-.328-.115-.066-.262-.027-.328.088l-.982 1.702c-.066.114-.027.261.088.327.038.022.079.033.12.033z" transform="translate(12 7)"/>
            <g>
                <path d="M15.4 9.6c0-3.215-2.602-5.831-5.8-5.831S3.8 6.385 3.8 9.6c0 3.215 2.602 5.831 5.8 5.831s5.8-2.616 5.8-5.831zm-5.8 4.9c-2.757 0-5-2.243-5-5s2.243-5 5-5 5 2.243 5 5-2.243 5-5 5zM9.84 2.205V.24C9.84.108 9.733 0 9.6 0s-.24.108-.24.24v1.965c0 .132.107.24.24.24s.24-.108.24-.24zM5.902 3.436c.041 0 .082-.01.12-.033.115-.066.154-.213.088-.327l-.982-1.702c-.067-.115-.213-.154-.328-.088-.115.067-.154.213-.088.328l.982 1.702c.045.077.126.12.208.12zM1.374 5.128l1.701.982c.038.022.08.032.12.032.083 0 .164-.043.208-.12.067-.114.027-.261-.088-.328l-1.701-.982c-.115-.066-.262-.027-.328.088-.066.115-.027.262.088.328zM.24 9.84h1.965c.132 0 .24-.107.24-.24 0-.132-.108-.24-.24-.24H.24c-.133 0-.24.108-.24.24 0 .133.107.24.24.24zM1.286 14.4c.045.077.125.12.208.12.04 0 .082-.01.12-.032l1.701-.982c.115-.067.155-.213.088-.328-.066-.115-.213-.155-.328-.088l-1.701.982c-.115.066-.154.213-.088.328zM5.694 15.885l-.982 1.701c-.066.115-.027.262.088.328.038.022.08.032.12.032.083 0 .163-.043.208-.12l.982-1.701c.066-.115.027-.262-.088-.328-.115-.067-.261-.027-.328.088zM9.36 16.995v1.965c0 .133.107.24.24.24s.24-.107.24-.24v-1.965c0-.132-.107-.24-.24-.24s-.24.108-.24.24zM13.178 15.797c-.115.066-.154.213-.088.328l.982 1.701c.045.077.125.12.208.12.04 0 .082-.01.12-.032.115-.066.154-.213.088-.328l-.982-1.701c-.067-.115-.214-.155-.328-.088zM17.826 14.072l-1.701-.982c-.116-.067-.262-.027-.328.088-.067.115-.027.261.088.328l1.701.982c.038.022.08.032.12.032.083 0 .163-.043.208-.12.066-.115.027-.262-.088-.328zM18.96 9.36h-1.965c-.132 0-.24.108-.24.24 0 .133.108.24.24.24h1.965c.133 0 .24-.107.24-.24 0-.132-.107-.24-.24-.24zM17.914 4.8c-.067-.115-.213-.154-.328-.088l-1.701.982c-.115.067-.155.214-.088.328.044.077.125.12.208.12.04 0 .082-.01.12-.032l1.701-.982c.115-.066.154-.213.088-.328zM13.297 3.436c.083 0 .164-.043.209-.12l.982-1.702c.066-.115.027-.261-.088-.328-.115-.066-.262-.027-.328.088l-.982 1.702c-.066.114-.027.261.088.327.038.022.079.033.12.033z" transform="translate(12 7)"/>
            </g>
        </g>
    </g>
</svg>
