<svg xmlns="http://www.w3.org/2000/svg" width="90" height="33" viewBox="0 0 90 33">
    <g fill="none" fill-rule="evenodd">
        <rect width="89" height="32" x=".5" y=".5" fill="#FFF" stroke="#ECECEC" rx="16"/>
        <g fill="#000" fill-rule="nonzero">
            <path d="M9.597 13.892l-.102.007c-.072.005-.144.01-.218.01-3.034 0-5.502-2.468-5.502-5.502 0-1.763.819-3.377 2.246-4.43.118-.086.165-.24.116-.377-.051-.138-.2-.226-.33-.218C2.55 3.57 0 6.27 0 9.528c0 3.399 2.765 6.163 6.163 6.163 1.318 0 2.58-.415 3.649-1.202.117-.087.164-.24.115-.379-.05-.137-.197-.234-.33-.218zm-3.433 1.139C3.13 15.03.66 12.563.66 9.529c0-2.54 1.736-4.7 4.11-5.319C3.72 5.344 3.114 6.846 3.114 8.407c0 3.126 2.34 5.718 5.361 6.112-.72.337-1.503.512-2.31.512zM8.564 1.417c.003.001.328.13.52.321.131.131.242.384.275.47.035.098.128.162.232.162h.003c.106-.001.199-.069.232-.168.001-.003.098-.283.283-.469.15-.15.422-.28.514-.318.095-.04.157-.134.153-.238-.003-.103-.07-.194-.168-.227-.004 0-.283-.096-.494-.308-.146-.145-.259-.396-.29-.48C9.789.067 9.698.002 9.597 0c-.107-.006-.195.058-.235.151-.038.09-.167.355-.303.491-.199.199-.49.31-.494.311-.095.036-.159.128-.16.231 0 .103.063.196.159.233zM9.41.993c.064-.064.123-.141.175-.218.05.076.11.151.177.218.076.076.157.141.237.196-.085.056-.169.121-.241.193-.063.064-.118.132-.166.2-.046-.069-.1-.136-.157-.194-.078-.078-.167-.146-.256-.205.078-.053.157-.117.23-.19zM14.65 2.825c-.003-.001-.38-.13-.669-.417-.24-.24-.392-.647-.394-.651-.035-.095-.125-.16-.226-.162-.101.005-.196.058-.235.151-.051.12-.224.475-.411.662-.269.269-.662.42-.666.42-.096.037-.16.128-.16.232-.001.102.062.195.157.232.005.002.442.174.703.436.179.179.33.52.373.637.035.097.128.162.232.162h.004c.105-.002.198-.07.232-.169 0-.004.131-.385.384-.637.247-.246.688-.429.692-.43.097-.04.157-.135.155-.239-.004-.104-.072-.194-.17-.227zm-1.027.544c-.107.108-.196.23-.269.345-.07-.118-.157-.239-.254-.337-.125-.126-.276-.233-.417-.318.127-.08.263-.18.383-.3.106-.107.203-.241.282-.37.076.126.171.258.282.37.127.126.265.228.392.307-.136.084-.281.186-.399.303zM11.9 6.172c-.002-.002-.215-.074-.375-.235-.11-.109-.197-.301-.22-.365-.036-.095-.126-.16-.228-.162-.099.01-.194.058-.234.15-.029.07-.13.274-.233.378-.15.15-.374.236-.376.237-.096.036-.16.128-.16.23-.001.104.062.196.157.233.07.028.28.125.4.246.097.098.185.296.208.359.036.097.13.161.232.161h.004c.106-.001.198-.069.232-.169.019-.054.096-.237.214-.355.114-.114.324-.214.395-.243.096-.04.157-.134.153-.238-.003-.104-.07-.195-.169-.227zm-.73.358c-.035.035-.067.072-.096.11-.029-.037-.059-.073-.091-.106-.048-.047-.1-.09-.154-.13.045-.034.09-.073.133-.116.037-.037.073-.08.105-.123.032.043.068.084.107.123.045.046.092.086.139.122-.05.036-.099.076-.143.12z" transform="rotate(-22 35.078 -24.012)"/>
        </g>
        <text fill="#292929" font-family="SFProDisplay-Semibold, SF Pro Display" font-size="11" font-weight="500" opacity=".8">
            <tspan x="33.051" y="21">Evening</tspan>
        </text>
    </g>
</svg>
