<svg xmlns="http://www.w3.org/2000/svg" width="118" height="81" viewBox="0 0 118 81">
    <defs>
        <linearGradient id="prefix__a" x1="52.536%" x2="52.536%" y1="-42.716%" y2="178.212%">
            <stop offset="0%" stop-color="#CACAC8"/>
            <stop offset="100%" stop-color="#2F2F2F"/>
        </linearGradient>
        <linearGradient id="prefix__c" x1="67.633%" x2="47.5%" y1="61.782%" y2="39.312%">
            <stop offset="0%" stop-color="#13267E"/>
            <stop offset="100%" stop-color="#3E45FF"/>
        </linearGradient>
        <filter id="prefix__b" width="185.7%" height="322.2%" x="-42.9%" y="-111.1%" filterUnits="objectBoundingBox">
            <feGaussianBlur in="SourceGraphic" stdDeviation="10"/>
        </filter>
        <filter id="prefix__d" width="242.9%" height="850%" x="-71.4%" y="-375%" filterUnits="objectBoundingBox">
            <feGaussianBlur in="SourceGraphic" stdDeviation="5"/>
        </filter>
    </defs>
    <g fill="none" fill-rule="evenodd">
        <g transform="translate(14) translate(0 18)">
            <rect width="70" height="27" x="10" y="11" fill="url(#prefix__a)" filter="url(#prefix__b)" opacity=".577" rx="13.5"/>
            <rect width="90" height="33" fill="url(#prefix__c)" fill-rule="nonzero" rx="16.5"/>
            <text fill="#FFF" font-family="SFProDisplay-Semibold, SF Pro Display" font-size="11" font-weight="500">
                <tspan x="33.051" y="21">Evening</tspan>
            </text>
        </g>
        <path fill="#000" d="M6 26H27V30H6z" filter="url(#prefix__d)" transform="translate(14)"/>
        <g fill-rule="nonzero">
            <path fill="#F29F26" d="M13.302 10.555c-.111-.088-.268-.09-.38-.004-.86.657-1.888 1.004-2.973 1.004-2.703 0-4.902-2.199-4.902-4.902 0-1.085.347-2.113 1.004-2.973.086-.113.084-.27-.004-.38-.089-.11-.24-.147-.37-.088-1 .458-1.848 1.187-2.453 2.11-.62.947-.948 2.048-.948 3.185 0 3.209 2.61 5.82 5.82 5.82 1.136 0 2.237-.329 3.184-.95.923-.604 1.652-1.452 2.11-2.452.059-.13.022-.282-.088-.37z" transform="translate(14)"/>
            <path fill="#EF8229" d="M12.376 12.425c-.947.62-2.048.948-3.185.948-3.209 0-5.82-2.61-5.82-5.82 0-1.136.329-2.238.95-3.184.16-.247.34-.48.535-.696-.646.432-1.201.991-1.632 1.649-.62.947-.948 2.048-.948 3.185 0 3.209 2.61 5.82 5.82 5.82 1.136 0 2.237-.329 3.184-.95.428-.28.814-.613 1.151-.99l-.055.038z" transform="translate(14)"/>
            <g fill="#F29F26">
                <path d="M10.095 8.174c-.93 0-1.687-.757-1.687-1.687 0-.099-.08-.179-.179-.179-.098 0-.178.08-.178.179 0 .93-.757 1.687-1.687 1.687-.098 0-.179.08-.179.178 0 .099.08.179.18.179.93 0 1.686.757 1.686 1.687 0 .098.08.178.178.178.1 0 .18-.08.18-.178 0-.93.756-1.687 1.686-1.687.098 0 .179-.08.179-.179 0-.098-.08-.178-.18-.178zM3.912 5.768c-.93 0-1.686-.757-1.686-1.687 0-.098-.08-.178-.18-.178-.098 0-.178.08-.178.178 0 .93-.756 1.687-1.687 1.687-.098 0-.178.08-.178.179 0 .098.08.178.178.178.93 0 1.687.757 1.687 1.687 0 .099.08.179.179.179.098 0 .179-.08.179-.179 0-.93.756-1.687 1.686-1.687.099 0 .179-.08.179-.178 0-.099-.08-.179-.179-.179zM6.69 3.93c0 .098.08.178.178.178.099 0 .179-.08.179-.179 0-.93.756-1.686 1.686-1.686.1 0 .18-.08.18-.179 0-.099-.08-.179-.18-.179-.93 0-1.686-.756-1.686-1.686 0-.1-.08-.179-.179-.179-.099 0-.179.08-.179.179 0 .93-.756 1.686-1.686 1.686-.099 0-.179.08-.179.179 0 .099.08.179.179.179.93 0 1.686.756 1.686 1.686z" transform="translate(14) translate(9.492)"/>
            </g>
            <g fill="#EF8229">
                <path d="M7.244 7.925c-.256.158-.558.249-.88.249-.098 0-.179.08-.179.178 0 .1.08.179.18.179.93 0 1.686.757 1.686 1.687 0 .098.08.178.179.178.098 0 .178-.08.178-.178 0-.344.104-.664.28-.93-.133-.714-.717-1.27-1.444-1.363z" transform="translate(14) translate(9.492)"/>
                <path d="M7.244 8.78c-.256-.158-.558-.249-.88-.249-.098 0-.179-.08-.179-.179 0-.098.08-.178.18-.178.93 0 1.686-.757 1.686-1.687 0-.099.08-.179.179-.179.098 0 .178.08.178.179 0 .344.104.663.28.93-.133.714-.717 1.27-1.444 1.362zM1.061 5.52c-.256.157-.557.248-.88.248-.098 0-.178.08-.178.179 0 .098.08.178.179.178.93 0 1.686.757 1.686 1.687 0 .099.08.179.179.179.099 0 .179-.08.179-.179 0-.344.103-.663.28-.93-.133-.714-.717-1.27-1.445-1.362z" transform="translate(14) translate(9.492)"/>
                <path d="M1.061 6.374c-.256-.158-.557-.249-.88-.249-.098 0-.178-.08-.178-.178 0-.099.08-.179.179-.179.93 0 1.686-.757 1.686-1.687 0-.098.08-.178.179-.178.099 0 .179.08.179.178 0 .344.103.664.28.93-.133.714-.717 1.27-1.445 1.363zM5.882 1.637c-.256.158-.557.248-.88.248-.098 0-.178.08-.178.18 0 .098.08.178.179.178.93 0 1.686.756 1.686 1.687 0 .098.08.178.179.178.099 0 .179-.08.179-.178 0-.344.103-.664.28-.93-.133-.714-.717-1.27-1.445-1.363z" transform="translate(14) translate(9.492)"/>
                <path d="M5.882 2.491c-.256-.157-.557-.248-.88-.248-.098 0-.178-.08-.178-.179 0-.099.08-.179.179-.179.93 0 1.686-.756 1.686-1.686 0-.099.08-.179.179-.179.099 0 .179.08.179.179 0 .343.103.663.28.93-.133.714-.717 1.27-1.445 1.362z" transform="translate(14) translate(9.492)"/>
            </g>
            <path fill="#9FDEF7" d="M27.424 22.402h-7.206c-1.393 0-2.522-1.13-2.522-2.522s1.13-2.521 2.522-2.521c.219 0 .431.028.634.08.266-.384.662-.67 1.125-.796-.764-1.971-2.677-3.37-4.919-3.37-2.512 0-4.613 1.757-5.144 4.109-.315-.106-.652-.163-1.003-.163-1.079 0-2.032.54-2.603 1.365-.319-.083-.653-.127-.998-.127-2.191 0-3.968 1.777-3.968 3.968 0 .636.15 1.237.416 1.77.466-1.443 1.82-2.486 3.416-2.486 1.71 0 3.14 1.195 3.501 2.796.215-.072.444-.111.683-.111.734 0 1.383.368 1.771.929.217-.056.445-.087.68-.087.917 0 1.726.458 2.214 1.157h7.481c2.166 0 3.922-1.756 3.922-3.922l-.002-.07z" transform="translate(14)"/>
            <path fill="#E4F2F9" d="M31.124 17.22c-.274 0-.538.043-.786.12.001-.039.003-.079.003-.12 0-1.95-1.582-3.531-3.532-3.531-1.683 0-3.09 1.176-3.445 2.75-.21-.07-.436-.109-.671-.109-.723 0-1.36.362-1.743.914-.214-.055-.437-.084-.668-.084-1.468 0-2.657 1.189-2.657 2.656s1.19 2.657 2.657 2.657h10.842c1.45 0 2.626-1.176 2.626-2.626s-1.176-2.626-2.626-2.626z" transform="translate(14)"/>
            <path fill="#83D4ED" d="M11.54 17.282c-.203-.041-.413-.063-.629-.063-1.08 0-2.032.54-2.603 1.365-.319-.083-.653-.127-.998-.127-2.192 0-3.968 1.777-3.968 3.968 0 .636.15 1.237.416 1.77.466-1.443 1.82-2.486 3.416-2.486 1.71 0 3.14 1.195 3.501 2.796.215-.072.444-.111.683-.111.734 0 1.382.368 1.771.929.217-.056.445-.087.68-.087.917 0 1.726.458 2.214 1.157h2.981c-4.118-1.085-7.202-4.718-7.464-9.111z" transform="translate(14)"/>
            <path fill="#D7EDF9" d="M23.16 16.384c-.15-.034-.306-.054-.467-.054-.723 0-1.36.362-1.743.914-.214-.055-.438-.084-.668-.084-1.468 0-2.657 1.19-2.657 2.656 0 1.468 1.19 2.657 2.657 2.657h6.752c-2.283-1.079-3.864-3.399-3.873-6.09z" transform="translate(14)"/>
            <path fill="#E4F2F9" d="M13.848 25.102c-.237 0-.467.03-.687.087-.393-.567-1.049-.94-1.792-.94-.241 0-.473.04-.69.113-.366-1.619-1.812-2.828-3.542-2.828-2.005 0-3.631 1.626-3.631 3.632l.003.123c-.255-.08-.527-.123-.809-.123-1.491 0-2.7 1.208-2.7 2.7 0 1.491 1.209 2.7 2.7 2.7h11.148c1.51 0 2.732-1.223 2.732-2.732 0-1.509-1.223-2.732-2.732-2.732z" transform="translate(14)"/>
            <path fill="#D7EDF9" d="M4.482 22.69c-.606.648-.976 1.518-.976 2.475 0 .042.001.083.003.124-.256-.08-.527-.124-.809-.124-1.491 0-2.7 1.21-2.7 2.7 0 1.492 1.209 2.7 2.7 2.7h7.382c-3.237-1.166-5.559-4.247-5.6-7.876z" transform="translate(14)"/>
        </g>
    </g>
</svg>
