<svg xmlns="http://www.w3.org/2000/svg" width="118" height="82" viewBox="0 0 118 82">
    <defs>
        <linearGradient id="prefix__a" x1="52.536%" x2="52.536%" y1="-42.716%" y2="178.212%">
            <stop offset="0%" stop-color="#CACAC8"/>
            <stop offset="100%" stop-color="#2F2F2F"/>
        </linearGradient>
        <linearGradient id="prefix__c" x1="67.633%" x2="47.5%" y1="61.782%" y2="39.312%">
            <stop offset="0%" stop-color="#1A97CF"/>
            <stop offset="100%" stop-color="#FFC900"/>
        </linearGradient>
        <filter id="prefix__b" width="185.7%" height="322.2%" x="-42.9%" y="-111.1%" filterUnits="objectBoundingBox">
            <feGaussianBlur in="SourceGraphic" stdDeviation="10"/>
        </filter>
        <filter id="prefix__d" width="250%" height="1000%" x="-75%" y="-450%" filterUnits="objectBoundingBox">
            <feGaussianBlur in="SourceGraphic" stdDeviation="6"/>
        </filter>
    </defs>
    <g fill="none" fill-rule="evenodd" transform="translate(8)">
        <g transform="translate(6 19)">
            <rect width="70" height="27" x="10" y="11" fill="url(#prefix__a)" filter="url(#prefix__b)" opacity=".577" rx="13.5"/>
            <rect width="90" height="33" fill="url(#prefix__c)" fill-rule="nonzero" rx="16.5"/>
            <text fill="#FFF" font-family="SFProDisplay-Semibold, SF Pro Display" font-size="12" font-weight="500">
                <tspan x="28.463" y="21">Morning</tspan>
            </text>
        </g>
        <rect width="24" height="4" x="7" y="27" fill="#000" filter="url(#prefix__d)" rx="2"/>
        <g fill-rule="nonzero">
            <path fill="#FFD900" d="M29.249 18.284c.937-1.341 1.487-2.973 1.487-4.734 0-4.57-3.705-8.276-8.275-8.276-3.764 0-6.942 2.514-7.945 5.955v9.434h14.99l-.257-2.379z"/>
            <path fill="#FB0" d="M30.736 13.55c0-4.57-3.705-8.276-8.275-8.276-.275 0-.546.015-.814.042 4.182.415 7.448 3.943 7.448 8.234 0 1.76-.55 3.393-1.488 4.734l.258 2.379h1.641l-.257-2.379c.937-1.341 1.487-2.974 1.487-4.734z"/>
            <path fill="#FFD900" d="M35.465 14.085H33.1c-.296 0-.536-.24-.536-.535 0-.296.24-.536.536-.536h2.364c.295 0 .535.24.535.536 0 .295-.24.535-.535.535zM29.985 6.56c-.137 0-.274-.052-.379-.156-.209-.21-.209-.548 0-.757l1.672-1.672c.21-.209.548-.209.757 0 .21.209.21.548 0 .757l-1.672 1.672c-.104.104-.241.156-.378.156zM22.461 3.443c-.295 0-.535-.24-.535-.535V.544c0-.296.24-.536.535-.536.296 0 .535.24.535.536v2.364c0 .295-.24.535-.535.535zM14.937 6.559c-.137 0-.274-.052-.379-.157L12.886 4.73c-.209-.209-.209-.548 0-.757.21-.209.548-.209.757 0l1.672 1.672c.21.21.21.548 0 .757-.104.105-.241.157-.378.157z"/>
            <path fill="#FFA400" d="M18.389 4.253c-.21 0-.41-.124-.495-.33l-.452-1.092c-.113-.274.016-.587.29-.7.272-.113.586.017.699.29l.452 1.092c.113.273-.017.586-.29.7-.067.027-.136.04-.204.04zM12.63 10.012c-.07 0-.139-.013-.205-.04l-1.093-.453c-.273-.113-.402-.426-.29-.699.114-.273.427-.403.7-.29l1.092.453c.273.113.403.426.29.699-.086.206-.285.33-.495.33zM33.385 18.61c-.069 0-.138-.013-.205-.041l-1.092-.453c-.273-.113-.403-.426-.29-.699.113-.273.427-.403.7-.29l1.092.453c.273.113.402.426.29.7-.086.205-.285.33-.495.33zM32.293 10.012c-.21 0-.41-.124-.495-.33-.113-.273.017-.586.29-.7l1.092-.452c.273-.113.586.017.7.29.112.273-.017.586-.29.7l-1.092.452c-.067.027-.137.04-.205.04zM26.533 4.253c-.068 0-.137-.013-.204-.04-.273-.114-.403-.427-.29-.7l.452-1.092c.114-.273.427-.403.7-.29.273.113.402.426.29.7l-.453 1.092c-.085.206-.285.33-.495.33z"/>
            <g>
                <path fill="#C1EEFF" d="M28.881 7.146h-4.96c-.207 0-.382-.148-.42-.351C22.776 2.929 19.364.01 15.278.054 10.73.102 7.093 3.862 7.093 8.41v.672c0 .236-.192.428-.428.428H5.387C2.453 9.51.022 11.857 0 14.79c-.022 2.956 2.368 5.36 5.32 5.36h23.643c3.607 0 6.528-2.938 6.502-6.552-.027-3.585-2.999-6.453-6.584-6.453z" transform="translate(0 11.132)"/>
                <g>
                    <g fill="#90E2FF">
                        <path d="M14.396 7.146h-1.642c3.586 0 6.557 2.868 6.584 6.453.027 3.613-2.895 6.551-6.502 6.551h1.641c3.608 0 6.529-2.937 6.502-6.551-.027-3.585-2.998-6.453-6.583-6.453zM7.374 6.795c.038.203.214.351.42.351h1.642c-.207 0-.383-.148-.42-.351C8.29 2.929 4.878.01.792.054.548.057.305.07.066.094c3.672.364 6.638 3.127 7.308 6.7z" transform="translate(0 11.132) translate(5.352) translate(9.134)"/>
                    </g>
                    <path fill="#99E2FC" d="M5.288 9.51c.295 0 .535-.239.535-.534 0-.296-.24-.536-.535-.536H1.74v.643c0 .236-.192.428-.428.428H.035.033h5.255z" transform="translate(0 11.132) translate(5.352)"/>
                </g>
            </g>
        </g>
    </g>
</svg>
