<svg xmlns="http://www.w3.org/2000/svg" width="90" height="33" viewBox="0 0 90 33">
    <g fill="none" fill-rule="evenodd">
        <rect width="89" height="32" x=".5" y=".5" fill="#FFF" stroke="#ECECEC" rx="16"/>
        <path fill="#000" fill-rule="nonzero" d="M21.469 9.002c-.176.02-.307.17-.304.346v2.505c-.001.123.063.237.17.299.105.062.236.062.342 0 .106-.062.17-.176.17-.299V9.348c.001-.098-.039-.192-.111-.259-.073-.066-.17-.098-.267-.087zm-2.064 1.25c-.11-.001-.212.05-.278.137-.065.087-.084.2-.052.305l.42 1.462c.029.122.122.218.243.25.122.033.25-.003.336-.095.086-.091.115-.222.075-.34l-.42-1.464c-.038-.148-.171-.253-.324-.255zm4.191 0c-.15.007-.276.11-.314.255l-.42 1.463c-.04.119-.01.25.075.341.086.092.215.128.336.096.121-.033.215-.129.243-.25l.42-1.463c.034-.106.013-.222-.055-.31s-.174-.137-.285-.132zm-6.771.005c-.112.019-.208.092-.255.196-.047.103-.04.224.02.32l1.262 2.09c.056.117.173.192.303.194.129.001.248-.071.307-.186.058-.116.047-.255-.03-.358l-1.261-2.09c-.07-.121-.208-.187-.346-.166zm9.25 0c-.099.018-.184.079-.234.165l-1.26 2.09c-.078.104-.09.243-.031.359.059.115.178.187.307.186.13-.002.247-.077.303-.193l1.26-2.09c.072-.114.07-.26-.005-.37-.075-.112-.208-.169-.34-.147zm-10.463 2.085c-.138.002-.262.086-.313.214-.052.129-.02.275.08.372l1.052 1.047c.086.089.213.124.332.092.12-.032.212-.125.242-.245s-.006-.246-.095-.33l-1.053-1.043c-.064-.067-.152-.106-.245-.107zm11.777 0c-.09.004-.173.042-.234.107l-1.053 1.042c-.09.085-.126.212-.096.331.03.12.123.213.242.245.12.032.246-.003.332-.092l1.053-1.047c.101-.098.132-.247.078-.377-.054-.129-.182-.212-.322-.209zm-5.883.426c-2.754 0-5.067 1.908-5.66 4.473-.042.184.072.367.256.41.183.043.366-.072.41-.255.521-2.26 2.554-3.947 4.994-3.947 2.72 0 4.94 2.095 5.117 4.75H14.325c-.122.006-.231.076-.287.184-.056.108-.05.238.016.34.066.103.181.162.303.157h14.298c.122.001.237-.063.299-.17.061-.105.061-.236 0-.342-.062-.106-.177-.17-.3-.17h-1.35c-.177-3.028-2.71-5.43-5.798-5.43zm-4.564 7.133c-.122.006-.231.076-.287.184-.056.108-.05.238.016.34.066.103.181.163.303.157h9.064c.122.002.237-.063.299-.169.061-.106.061-.237 0-.343-.062-.106-.177-.17-.3-.169h-9.095zm2.26 1.702c-.121.007-.23.078-.285.186-.055.11-.048.239.019.34.066.103.182.162.304.155h4.532c.123.002.237-.063.299-.169.061-.106.061-.237 0-.343-.062-.106-.176-.17-.3-.169h-4.568z"/>
        <text fill="#292929" font-family="SFProDisplay-Semibold, SF Pro Display" font-size="11" font-weight="500" opacity=".8">
            <tspan x="36.299" y="20">Morning</tspan>
        </text>
    </g>
</svg>
