<svg xmlns="http://www.w3.org/2000/svg" xmlns:xlink="http://www.w3.org/1999/xlink" width="159" height="107" viewBox="0 0 159 107">
    <defs>
        <path id="prefix__a" d="M61.922.785c-7.256 1.444-14.317 5.97-16.844 12.93-1.94 5.339-1.242 11.87-5.092 16.046-2.406 2.61-6.027 3.613-9.36 4.83C18.656 38.955 8.083 47.834 3.1 59.567-1.886 71.302-.65 85.833 7.423 95.698c7.157 8.747 18.794 13.04 30.092 13.051 10.874.01 21.632-3.55 32.461-2.563 12.512 1.142 23.866 8.242 36.359 9.567 18.221 1.93 36.958-10.323 42.505-27.8 1.452-4.572 2.069-9.53.887-14.179-2.021-7.95-8.934-13.762-16.261-17.441-7.328-3.68-15.37-5.783-22.652-9.552-2.031-1.052-4.068-2.297-5.32-4.212-2.692-4.116-.894-9.51-.091-14.363.857-5.182.395-10.708-2.098-15.33-3.142-5.827-9.621-9.485-15.983-10.564C78.997.902 70.34-.89 61.922.785"/>
        <path id="prefix__d" d="M149.727 76.572c-.305-1.207-.723-2.363-1.235-3.471V.178H.142v81.23h.254c.728 6.277 3.044 12.314 7.027 17.208 7.157 8.795 18.794 13.112 30.092 13.123 10.874.01 21.632-3.57 32.461-2.577 12.512 1.148 23.866 8.287 36.359 9.619 18.221 1.94 36.958-10.38 42.505-27.951 1.452-4.598 2.069-9.583.887-14.258"/>
        <path id="prefix__f" d="M20.786 56.931c-2.559-.766-5.14-1.417-7.767-1.838-1.975-1.85-3.867-3.846-5.563-5.977v-.004C3.478 44.119.579 38.392.176 32.089c6.222-2.63 12.208-5.815 17.863-9.506.49-.32 1.026-.713 1.114-1.294.004-.016.004-.036.004-.052.048-.425-.151-.838-.244-1.258-.343-1.567.843-3.086 2.2-3.936 1.363-.845 2.952-1.294 4.242-2.248 2.552-1.887 3.403-5.313 5.427-7.762.962-1.166 2.169-2.072 3.49-2.781.583-.313 1.186-.59 1.801-.834 1.854-.733 3.819-.993 5.687-1.635 1.821-.625 2.98-.6 4.908-.112 4.361 1.102 8.375 3.222 12.328 5.314.783.413 1.582.837 2.197 1.475.966 1.005 1.373 2.408 1.749 3.75.455 1.644.914 3.287 1.37 4.926.26.93.52 1.871.54 2.833.051 2.484-1.463 4.692-2.916 6.704-.987 1.37-1.973 2.741-2.964 4.112-.53.737-1.15 1.534-2.044 1.69-.715-1.703-3.027-2.2-4.749-1.554-1.725.649-2.995 2.104-4.229 3.474-3.314 3.695-6.853 7.177-10.387 10.656-.06.06-.12.12-.18.176-2.116 2.084-4.24 4.164-6.521 6.071-3.04 2.545-6.35 4.773-9.896 6.544l-.18.09"/>
        <path id="prefix__i" d="M149.727 76.572c-.305-1.207-.723-2.363-1.235-3.471V.178H.142v81.23h.254c.728 6.277 3.044 12.314 7.027 17.208 7.157 8.795 18.794 13.112 30.092 13.123 10.874.01 21.632-3.57 32.461-2.577 12.512 1.148 23.866 8.287 36.359 9.619 18.221 1.94 36.958-10.38 42.505-27.951 1.452-4.598 2.069-9.583.887-14.258"/>
        <path id="prefix__k" d="M16.535 1.035c1.48.6 2.624 1.748 4.046 2.445 1.574.772 2.327 1.59 2.53 3.4.242 2.168.175 4.37-.2 6.52-.135.779-.352 1.618-.978 2.094-.137.104-.29.188-.406.314-.131.143-.205.327-.309.49-.528.832-1.924.866-2.492.062-.347-.49-.373-1.133-.37-1.735.004-1.552.095-3.191-.635-4.557-.282-.527-.733-1.022-1.322-1.105-.534-.076-1.05.202-1.515.478-1.693 1.004-3.329 2.112-5.088 2.991-1.76.879-3.675 1.528-5.638 1.533-.989.003-2.021-.178-2.806-.783-.786-.605-1.242-1.72-.861-2.639.175-.424.503-.767.7-1.182.242-.514.268-1.1.35-1.663.272-1.85 1.219-3.58 2.582-4.848C5.486 1.582 7.253.776 9.09.515 9.96.39 10.84.385 11.716.386"/>
        <path id="prefix__n" d="M35.391 9.28c-4.617.691-9.24 1.367-13.885 1.362-7.354-.007-14.853-1.909-21.15-5.755.13-.264.262-.526.396-.786.312-.603.662-1.235.829-1.903C1.65 1.91 1.61.62 1.777.44c.479-.517 3.283.092 3.99.142l9.095.64 18.19 1.281c.287.02.589.046.83.21.316.217.453.62.56.998.517 1.811.834 3.683.95 5.568"/>
        <path id="prefix__p" d="M149.727 76.572c-.305-1.207-.723-2.363-1.235-3.471V.178H.142v81.23h.254c.728 6.277 3.044 12.314 7.027 17.208 7.157 8.795 18.794 13.112 30.092 13.123 10.874.01 21.632-3.57 32.461-2.577 12.512 1.148 23.866 8.287 36.359 9.619 18.221 1.94 36.958-10.38 42.505-27.951 1.452-4.598 2.069-9.583.887-14.258"/>
        <path id="prefix__r" d="M45.868 16.715c-.028 1.312-.248 2.615-.467 3.911-1.392 8.238-2.791 16.507-5.344 24.468-.139.427-.295.88-.642 1.172-.399.333-.953.389-1.471.42-6.704.444-13.451.246-20.115-.582-.717-.091-1.463-.186-2.153.036-.905.289-1.551 1.07-2.11 1.838-1.57 2.172-2.863 4.545-3.82 7.045-3.804-1.16-6.4-4.556-8.73-7.762-.266-.365-.537-.745-.67-1.177-.15-.507-.095-1.046-.039-1.573C1.356 34.99 3.426 25.58 6.468 16.49c.271-.808.554-1.628 1.06-2.318.623-.84 1.524-1.422 2.37-2.04.833-.606 1.635-1.26 2.392-1.966 1.093-1.002 2.098-2.104 3.004-3.276.474-.623.817-1.419 1.34-1.99.59-.65 1.503-.847 2.312-1.109 2.277-.733 4.606-1.296 6.955-1.751.032-.008.063-.012.095-.02 4.69-.9 9.455-1.351 14.209-1.803.658-.06 1.34-.119 1.954.119 1.376.53 1.79 2.227 2.014 3.673.415 2.647.825 5.29 1.236 7.933"/>
        <path id="prefix__t" d="M149.727 76.572c-.305-1.207-.723-2.363-1.235-3.471V.178H.142v81.23h.254c.728 6.277 3.044 12.314 7.027 17.208 7.157 8.795 18.794 13.112 30.092 13.123 10.874.01 21.632-3.57 32.461-2.577 12.512 1.148 23.866 8.287 36.359 9.619 18.221 1.94 36.958-10.38 42.505-27.951 1.452-4.598 2.069-9.583.887-14.258"/>
        <path id="prefix__v" d="M18.818 10.135c-.628.046-1.185-.379-1.71-.74C13.1 6.604 7.585 6.35 3.362 8.76c-.517.296-1.039.633-1.624.704-.585.067-1.262-.237-1.406-.833C.329 8.62.329 8.612.329 8.6c1.098-1.053 2.107-2.21 3.018-3.443.476-.654.82-1.49 1.346-2.09.593-.683 1.51-.89 2.324-1.166C9.305 1.13 11.646.54 14.006.06c.032-.008.064-.012.096-.02.818.811 1.507 1.765 2.128 2.751.773 1.22 1.459 2.502 2.051 3.826"/>
        <path id="prefix__x" d="M149.727 76.572c-.305-1.207-.723-2.363-1.235-3.471V.178H.142v81.23h.254c.728 6.277 3.044 12.314 7.027 17.208 7.157 8.795 18.794 13.112 30.092 13.123 10.874.01 21.632-3.57 32.461-2.577 12.512 1.148 23.866 8.287 36.359 9.619 18.221 1.94 36.958-10.38 42.505-27.951 1.452-4.598 2.069-9.583.887-14.258"/>
        <path id="prefix__z" d="M19.803 18.621c-2.384 1.006-5.268 2.018-7.894 1.419-1.153-.263-1.348-.955-2.198-1.526-.683-.46-2.593-.48-3.27.006-.668.48-.224 1.557-.549 2.306-.323.744-1.326.95-2.127.776-1.588-.343-2.789-1.75-3.206-3.299C.14 16.756.4 15.1.919 13.581c.205-.6.453-1.203.456-1.835.006-1.107-.738-2.16-.548-3.25.176-1.017 1.096-1.72 1.946-2.32l3.241-2.284C8.728 1.979 11.78-.027 15.095.336c2.415.264 4.486 1.752 6.43 3.189 1.603 1.185 3.235 2.397 4.392 4.01.371.517.7 1.116.65 1.748-.036.44-.253.842-.443 1.242-.969 2.04-1.373 4.421-2.954 6.048"/>
        <path id="prefix__C" d="M149.727 76.572c-.305-1.207-.723-2.363-1.235-3.471V.178H.142v81.23h.254c.728 6.277 3.044 12.314 7.027 17.208 7.157 8.795 18.794 13.112 30.092 13.123 10.874.01 21.632-3.57 32.461-2.577 12.512 1.148 23.866 8.287 36.359 9.619 18.221 1.94 36.958-10.38 42.505-27.951 1.452-4.598 2.069-9.583.887-14.258"/>
        <path id="prefix__E" d="M14.16.434c1.17-.213 3.362-.046 4.09 1.116.819 1.307.03 2.964-.242 4.264-.184.884.341 1.74.571 2.614.557 2.117-.643 4.268-.87 6.447-.176 1.682.236 3.366.679 4.998.443 1.632.926 3.284.896 4.975-.029 1.692-.659 3.468-2.032 4.437-.67.474-1.468.725-2.259.936-.78.21-1.584.39-2.39.324-.804-.064-1.621-.405-2.1-1.063-.306-.422-.483-.976-.933-1.236-.449-.26-1.036-.128-1.461.17-.426.296-.733.731-1.062 1.135-.755.927-1.705 1.746-2.849 2.075-1.144.329-2.5.077-3.273-.836-.428-.506-.644-1.162-.766-1.817-.157-.852-.158-1.778.261-2.535.29-.524.753-.922 1.172-1.347 2.853-2.897 3.738-7.196 4.146-11.263.183-1.833.3-3.69.82-5.457.886-3.017 2.975-5.654 5.696-7.189"/>
        <path id="prefix__G" d="M148.492 73.1V.179H.142v81.23h.254c.728 6.277 3.044 12.314 7.027 17.208 7.157 8.795 18.794 13.112 30.092 13.123 10.874.01 21.632-3.57 32.461-2.577 12.512 1.148 23.866 8.287 36.359 9.619 18.221 1.94 36.958-10.38 42.505-27.951 1.452-4.598 2.069-9.583.887-14.258-.305-1.207-.723-2.363-1.235-3.471z"/>
        <linearGradient id="prefix__b" x1="26.619%" x2="84.124%" y1="29.155%" y2="77.997%">
            <stop offset="0%" stop-color="#FEE8EA" stop-opacity="0"/>
            <stop offset="100%" stop-color="#FF9A9A"/>
        </linearGradient>
        <linearGradient id="prefix__g" x1="76.455%" x2="14.903%" y1="20.63%" y2="75.193%">
            <stop offset="0%" stop-color="#6A4ADB"/>
            <stop offset="100%" stop-color="#2B219B"/>
        </linearGradient>
        <linearGradient id="prefix__l" x1="50%" x2="50%" y1="0%" y2="100%">
            <stop offset="0%" stop-color="#4C358D"/>
            <stop offset="100%" stop-color="#3D266E"/>
        </linearGradient>
        <linearGradient id="prefix__A" x1="13.093%" x2="100%" y1="38.638%" y2="38.638%">
            <stop offset="0%" stop-color="#1A073E"/>
            <stop offset="100%" stop-color="#3D266E"/>
        </linearGradient>
        <linearGradient id="prefix__F" x1="50%" x2="50%" y1="0%" y2="100%">
            <stop offset="0%" stop-color="#1A073E"/>
            <stop offset="100%" stop-color="#3C256D"/>
        </linearGradient>
    </defs>
    <g fill="none" fill-rule="evenodd">
        <g transform="translate(0 -4) translate(11.612 3.87)">
            <mask id="prefix__c" fill="#fff">
                <use xlink:href="#prefix__a"/>
            </mask>
            <use fill="url(#prefix__b)" xlink:href="#prefix__a"/>
            <path d="M61.922-.342c-7.256 1.444-14.317 5.97-16.844 12.929-1.94 5.34-1.242 11.871-5.092 16.047-2.406 2.61-6.027 3.613-9.36 4.829C18.656 37.829 8.083 46.708 3.1 58.441-1.886 70.174-.65 84.706 7.423 94.571c7.157 8.747 18.794 13.04 30.092 13.05 10.874.012 21.632-3.55 32.461-2.562 12.512 1.141 23.866 8.242 36.359 9.566 18.221 1.93 36.958-10.323 42.505-27.799 1.452-4.572 2.069-9.53.887-14.18-2.021-7.95-8.934-13.762-16.261-17.44-7.328-3.68-15.37-5.783-22.652-9.553-2.031-1.052-4.068-2.296-5.32-4.211-2.692-4.116-.894-9.51-.091-14.364.857-5.182.395-10.707-2.098-15.33-3.142-5.826-9.621-9.484-15.983-10.563-8.325-1.411-16.981-3.203-25.4-1.527" mask="url(#prefix__c)"/>
        </g>
        <path fill="#FFE6E8" d="M120.8 29.412v.004c1.714 5.428 3.192 10.921 4.43 16.485.023.102.08.171.143.22-.946 2.86-1.9 5.713-2.857 8.566-.096.06-.193.122-.293.18-.301.185-.232.595-.01.731-.742 2.214-1.483 4.428-2.22 6.642.212.367.42.606.61.66.855-2.564 1.715-5.126 2.575-7.693 4.755-2.893 9.38-5.974 13.879-9.246l.004-.004c.162-.3.317-.61.463-.92.097-.2.187-.403.276-.607-4.602 3.407-9.349 6.608-14.228 9.61 2.069-6.184 4.13-12.372 6.118-18.584 1.002-3.14 1.943-6.295 2.877-9.454.038-.036.077-.069.112-.105.069-.058.098-.127.117-.198 2.94-1.557 5.771-3.288 8.485-5.197-.01-.316-.022-.633-.037-.946-2.653 1.89-5.421 3.611-8.297 5.158.472-1.583.943-3.17 1.426-4.756 1.413-4.658 3.548-9.125 4.937-13.785l-.347-1.335c-1.339 4.892-3.735 9.62-5.217 14.475-.264.86-.52 1.719-.779 2.578.283-3.938.262-7.884.153-11.83l-.682.713-.082.085c.12 4.694.094 9.39-.458 14.07-.014.12.021.21.082.28-.004.011-.01.023-.01.035-.005.003-.013.007-.017.007-.216.111-.285.39-.16.58-.926 3.124-1.851 6.244-2.842 9.346-1.035 3.23-2.09 6.454-3.155 9.673-1.275-5.595-2.786-11.12-4.54-16.579l-.455 1.141M102.2 39.66v.002c3.72 2.26 7.335 4.676 10.844 7.252.064.047.132.058.194.056.877 2.115 1.748 4.232 2.616 6.35-.027.082-.051.167-.08.251-.085.257.161.457.359.424.674 1.643 1.348 3.286 2.025 4.927.308.105.55.138.687.074-.782-1.901-1.562-3.803-2.343-5.709 1.333-4.042 2.496-8.127 3.49-12.259v-.004c-.056-.254-.12-.509-.19-.76-.043-.164-.092-.325-.142-.487-.987 4.26-2.16 8.476-3.512 12.643-1.885-4.588-3.778-9.175-5.724-13.738-.985-2.306-2.014-4.59-3.05-6.872.005-.04.012-.078.014-.116.01-.068-.006-.123-.03-.172.94-2.366 1.73-4.778 2.361-7.233-.165-.177-.33-.353-.496-.525-.605 2.414-1.363 4.788-2.27 7.116-.517-1.146-1.036-2.293-1.547-3.446-1.505-3.383-2.492-7.018-4.012-10.39l-.871-.593c1.665 3.48 2.63 7.396 4.193 10.926.276.626.557 1.247.835 1.87-1.805-2.403-3.793-4.659-5.832-6.871l-.042.75-.006.09c2.42 2.637 4.756 5.348 6.776 8.313.05.075.117.11.188.12.002.008.006.017.011.025 0 .004-.004.01-.007.012-.07.172.03.366.198.413 1.022 2.258 2.042 4.514 3.015 6.792 1.011 2.374 2.009 4.753 2.997 7.136-3.547-2.576-7.196-4.993-10.955-7.25l.305.883" transform="translate(0 -4)"/>
        <path fill="#FFE6E8" d="M129.67 60.375c.724-.91 1.474-1.793 2.254-2.646-.043-5.905 1.51-11.71 4.497-16.812.38-.652.798-1.325 1.253-2.002l1.75-1.11c-1.032 1.38-1.923 2.797-2.665 4.118-2.561 4.574-3.923 9.718-4.035 14.944 1.521-1.593 3.133-3.085 4.83-4.488-.008-.05-.011-.106.002-.165 1.704-7.249 6.342-13.513 12.593-17.354h.004c.598-.05 1.2-.084 1.804-.11-6.525 3.5-11.449 9.597-13.416 16.827 2.844-2.251 5.909-4.266 9.145-6.104 2.399-1.365 4.818-2.687 7.248-3.996.002-.02 0-.036.01-.06.978-2.556 2.387-4.862 4.171-6.84v-.004l1.132-.042c-1.774 1.827-3.205 3.974-4.228 6.362 2.054-1.106 4.113-2.209 6.168-3.32 3.422-1.857 7.1-3.562 10.433-5.705.008-.003 1.554-.899 1.562-.902l-2.551 2.43c-2.535 1.489-5.2 2.785-7.75 4.167-2.503 1.355-5.008 2.701-7.515 4.056 1.01.718 2.702.518 3.816.487 1.489-.038 2.975-.184 4.441-.428.538-.088 1.07-.192 1.597-.305l-.48.908c-1.013.205-2.034.357-3.067.46-1.952.197-5.469.877-7.071-.706-1.907 1.032-3.806 2.064-5.703 3.112-1.45.8-2.865 1.632-4.247 2.494 5.113 2.018 10.51 2.997 15.923 2.918l-.434.804c-5.483.024-10.952-1.014-16.108-3.1-.077-.031-.129-.08-.168-.135-3.326 2.119-6.439 4.446-9.281 7.075 2.197.328 4.138 1.323 6.218 2.142 2.146.849 4.408 1.396 6.712 1.569 2.886.213 5.764-.148 8.412-1.152h.003l-.13.149-.926 1.052h-.004c-1.822.541-3.728.806-5.67.81-2.285.006-4.568-.346-6.753-1.002-2.921-.883-5.538-2.598-8.626-2.85-1.63 1.566-3.167 3.237-4.598 5.043l-.553-.589M11.631 96.232l.003.002c4.281.4 8.538.982 12.772 1.753.078.015.143-.005.196-.034 1.704 1.5 3.403 3.004 5.1 4.51.012.085.027.172.038.259.038.264.344.336.504.222 1.317 1.168 2.634 2.336 3.953 3.5.318-.04.546-.114.64-.23-1.526-1.351-3.05-2.705-4.577-4.06-.593-4.167-1.356-8.3-2.288-12.4l-.001-.005c-.161-.201-.33-.4-.502-.594-.11-.126-.224-.249-.339-.37.996 4.212 1.806 8.465 2.437 12.752-3.68-3.261-7.365-6.518-11.088-9.73-1.883-1.624-3.794-3.207-5.71-4.787-.015-.038-.026-.074-.04-.11-.02-.064-.06-.106-.103-.139-.206-2.509-.564-4.994-1.082-7.449-.223-.085-.446-.17-.669-.252.524 2.407.894 4.845 1.112 7.305-.96-.794-1.922-1.589-2.88-2.392-2.815-2.355-5.282-5.159-8.105-7.497L0 76.446c3 2.372 5.541 5.324 8.472 7.785.519.436 1.04.867 1.56 1.3-2.652-1.354-5.4-2.499-8.173-3.583l.292.685.034.083c3.297 1.296 6.552 2.694 9.64 4.455.077.045.151.047.218.025.006.006.013.014.02.018.002.004.002.01 0 .013.014.184.186.313.356.282 1.894 1.564 3.786 3.127 5.645 4.731 1.936 1.671 3.862 3.354 5.78 5.044-4.266-.755-8.555-1.324-12.87-1.704l.657.652" transform="translate(0 -4)"/>
        <path fill="#FFE6E8" d="M27.507 49.691l.002.003c3.546 2.226 6.992 4.604 10.336 7.139.062.046.126.058.186.055.83 2.072 1.653 4.147 2.474 6.222-.026.08-.05.163-.079.245-.081.25.154.448.343.417.637 1.61 1.275 3.22 1.915 4.827.294.104.525.137.657.075-.74-1.862-1.477-3.727-2.217-5.593 1.292-3.948 2.421-7.938 3.389-11.976v-.004c-.052-.248-.113-.498-.178-.745-.04-.159-.087-.317-.134-.476-.961 4.164-2.101 8.281-3.41 12.351-1.784-4.495-3.574-8.99-5.416-13.461-.932-2.26-1.906-4.497-2.886-6.734.004-.04.01-.076.013-.114.01-.066-.006-.12-.029-.168.909-2.31 1.675-4.666 2.29-7.065-.158-.173-.315-.346-.473-.515-.588 2.359-1.323 4.677-2.2 6.95-.49-1.122-.981-2.246-1.465-3.376-1.425-3.315-2.353-6.876-3.792-10.18l-.853-.473c1.578 3.411 2.506 7.134 3.986 10.594.26.613.527 1.222.79 1.834-1.716-2.36-3.607-4.574-5.547-6.747l-.043.735-.006.087c2.303 2.589 4.524 5.25 6.443 8.159.048.074.112.108.179.118.003.009.006.018.01.025 0 .004-.003.01-.006.012-.068.168.026.358.188.405.967 2.213 1.933 4.423 2.853 6.656.957 2.325 1.9 4.657 2.836 6.991-3.38-2.534-6.86-4.914-10.444-7.138l.288.865" opacity=".3" transform="translate(0 -4)"/>
        <path fill="#FFE6E8" d="M31.161 87.091c-.87-.98-1.707-1.985-2.503-3.016-6.577-1.1-12.73-3.95-17.822-8.255-.65-.548-1.317-1.143-1.982-1.779l-.894-2.157c1.334 1.413 2.736 2.676 4.061 3.756 4.588 3.73 10.043 6.24 15.833 7.38-1.475-1.997-2.82-4.076-4.051-6.23-.056-.001-.119-.01-.182-.035-7.73-3.3-13.793-9.661-16.847-17.344l.001-.004c.06-.674.14-1.347.23-2.023 2.62 7.92 8.443 14.567 16.099 18.154-1.95-3.594-3.593-7.385-5.007-11.333-1.05-2.927-2.05-5.869-3.032-8.82-.022-.005-.04-.006-.064-.021-2.653-1.582-4.943-3.593-6.795-5.957l-.004-.002.174-1.263c1.685 2.324 3.794 4.328 6.25 5.927-.83-2.495-1.654-4.992-2.489-7.488-1.399-4.16-2.58-8.572-4.313-12.686-.002-.01-.01-.016-.012-.026l1.519 1.42c1.161 3.102 2.083 6.312 3.124 9.41 1.02 3.04 2.029 6.081 3.047 9.126.995-.982 1.103-2.898 1.285-4.141.248-1.658.375-3.336.389-5.01.007-.615-.006-1.224-.028-1.832l.916.708c.031 1.165.001 2.328-.085 3.494-.162 2.204-.09 6.239-2.163 7.71.776 2.316 1.554 4.624 2.35 6.932.607 1.764 1.256 3.496 1.946 5.197 3.24-5.283 5.381-11.081 6.348-17.103l.809.638c-1.041 6.09-3.261 11.955-6.585 17.272-.05.08-.114.128-.184.16 1.709 4.103 3.69 8.008 6.06 11.674.793-2.375 2.278-4.335 3.595-6.485 1.362-2.217 2.41-4.62 3.051-7.143.8-3.161.96-6.425.358-9.558l.001-.004.14.173.99 1.232-.001.005c.247 2.127.17 4.293-.204 6.45-.439 2.535-1.275 5.001-2.43 7.297-1.55 3.07-3.968 5.642-4.85 9.019 1.424 2.114 2.984 4.143 4.713 6.082l-.762.5" opacity=".2" transform="translate(0 -4)"/>
        <g transform="translate(0 -4) translate(11.612)">
            <mask id="prefix__e" fill="#fff">
                <use xlink:href="#prefix__d"/>
            </mask>
            <path fill="#D8E7EC" d="M147.794 67.208c-.813 4.253-1.98 8.439-3.474 12.501-.4 1.097-.837 2.195-1.495 3.156-.868 1.27-2.097 2.25-2.962 3.52-.758 1.117-1.206 2.41-1.769 3.639-3.267 7.102-10.298 11.771-14.113 18.586-1.36 2.434-2.308 5.127-4.052 7.298-.524.654-1.142 1.269-1.92 1.568-1.463.57-3.065-.08-4.485-.81-.122-.06-.246-.123-.365-.188l-7.193-3.818-10.163-5.391c-.746-.395-1.5-.798-2.106-1.38-.535-.515-.94-1.15-1.443-1.688-.932-.998-2.174-1.636-3.387-2.255L71.28 92.992c-3.28-1.668-8.248-3.846-9.866-7.453-.765-1.716-.052-3.272.86-4.765 1.34-2.198 2.788-4.337 4.184-6.504 1.53-2.382 3.065-4.768 4.6-7.15 1.55-2.414 3.105-4.828 4.655-7.242 2.764-4.297 5.544-8.623 7.488-13.355 1.046-2.546 1.934-5.327 4.029-7.103 1.487 2.957 3.22 6.141 6.273 7.378 1.17.471 2.45.615 3.596 1.137 1.293.59 2.328 1.616 3.39 2.566 5.692 5.088 12.79 8.316 19.983 10.825 6.753 2.363 13.867 4.17 20.977 4.002 1.186-.027 2.367-.11 3.55-.255 1.046-.128 2.414-.128 2.799.862.155.403.079.85-.004 1.273" mask="url(#prefix__e)"/>
            <path fill="#E54C4C" d="M76.62 75.544c-.366.17-1.117.267-1.885.331-.513.043.982 1.367 1.176 1.847.101.254.18.52.335.746.153.224.405.406.676.386.232-.016.428-.173.606-.323l1.603-1.341c.824-.69 1.452-2.033.27-2.823-.91-.606-1.956.79-2.781 1.177" mask="url(#prefix__e)"/>
            <path fill="#FE6361" d="M71.676 76.194c-2.096.33-4.116 1.047-6.211 1.38-2.738.434-5.556.207-8.277.742-.66.13-1.426.417-1.572 1.078-.124.566.282 1.099.661 1.536l2.24 2.578c.343.394.696.806.838 1.31.082.29.129.65.403.767.112.048.238.041.358.033 4.817-.334 9.341-2.345 13.75-4.325l2.84-1.276c.516-.232 1.085-.52 1.263-1.06.31-.943-.876-2.415-1.71-2.794-1.229-.557-3.305-.17-4.583.031" mask="url(#prefix__e)"/>
            <path fill="#1E1240" d="M65.401 115.967c-1.902.436-3.861.55-5.811.63-3.254.132-6.538.167-9.736-.451-2.71-.524-5.424-1.518-8.155-1.116-.547-7.847 1.855-15.564 4.227-23.06.086-.271.186-.563.417-.73.235-.17.547-.168.835-.15 2.027.133 3.977.797 5.949 1.288 3.596.893 7.332 1.21 11.026.937.828-.061 1.682-.15 2.472.105.812.263 1.47.858 2.078 1.458 1.922 1.896 3.63 4.01 5.089 6.286 1.252 1.952 3.153 4.695 3.492 7.038.328 2.272-2.899 3.568-4.555 4.58-2.283 1.393-4.712 2.586-7.328 3.185" mask="url(#prefix__e)"/>
        </g>
        <g transform="translate(0 -4) translate(70.64 54.19)">
            <mask id="prefix__h" fill="#fff">
                <use xlink:href="#prefix__f"/>
            </mask>
            <use fill="url(#prefix__g)" xlink:href="#prefix__f"/>
            <path d="M90.484 22.001c-.307-1.212-.728-2.373-1.244-3.486v-73.237h-149.4v81.58h.257c.733 6.303 3.065 12.367 7.076 17.282 7.208 8.833 18.928 13.169 30.306 13.18 10.95.01 21.784-3.586 32.69-2.589 12.6 1.153 24.034 8.323 36.616 9.66 18.35 1.95 37.219-10.424 42.806-28.07 1.462-4.619 2.083-9.625.893-14.32" mask="url(#prefix__h)"/>
        </g>
        <g transform="translate(0 -4) translate(11.612)">
            <mask id="prefix__j" fill="#fff">
                <use xlink:href="#prefix__i"/>
            </mask>
            <path fill="#2D2796" d="M111.14 69.207c-.684-.382-1.561-.201-2.227.213-.665.413-1.178 1.026-1.736 1.578-.558.551-1.208 1.066-1.98 1.193-.754.125-1.516-.137-2.28-.145-1.21-.014-2.346.61-3.285 1.379-.939.77-1.742 1.696-2.688 2.457-.82.66-1.74 1.187-2.537 1.873-.798.686-1.49 1.58-1.635 2.625-.07.497-.003 1.031.284 1.441.372.532 1.058.769 1.703.748.645-.02 1.262-.26 1.853-.521 2.46-1.085 4.742-2.58 6.73-4.396.892-.815 1.665-1.652 2.331-2.657.635-.956 1.663-1.477 2.511-2.225 1.162-1.023 2.165-2.229 2.956-3.563M93.91 57.903c-.701 2.08-1.95 3.938-3.184 5.762-.638.95-1.28 1.895-1.92 2.845-.559.826-1.118 1.652-1.736 2.434-1.535 1.94-3.415 3.567-5.381 5.052-.782.586-1.86 1.484-2.788 1.815.048-.423-.15-.834-.242-1.253-.341-1.56.837-3.072 2.185-3.918 1.352-.842 2.93-1.289 4.211-2.239 2.534-1.88 3.38-5.29 5.39-7.729.955-1.16 2.153-2.063 3.465-2.769" mask="url(#prefix__j)"/>
            <path fill="#2E215E" d="M98.8 94.876v26.826c0 1.293-1.04 2.342-2.324 2.342-1.285 0-2.328-1.05-2.328-2.342V94.876c0-1.289 1.043-2.338 2.328-2.338.642 0 1.225.263 1.645.686.42.423.679 1.006.679 1.652" mask="url(#prefix__j)"/>
            <path fill="#03010C" d="M98.8 99.908v8.802c-.202-.06-.405-.128-.603-.196-1.4-.494-2.756-1.109-4.049-1.835v-7.414c1.594.036 3.553.443 4.652.643" mask="url(#prefix__j)"/>
            <path fill="#AFCCD2" d="M126.034 90.91c-.063.2-.241.335-.412.455-3.494 2.498-7.499 4.201-11.016 6.667-2.906 2.035-5.635 4.66-9.116 5.3-2.138.39-4.327-.02-6.456-.432-4.057-.778-8.114-1.56-12.17-2.338-4.93-.95-9.89-1.907-14.546-3.787-.174-.071-.36-.155-.456-.319-.23-.399.242-.83.643-1.045 5.857-3.165 12.09-5.487 17.456-9.513.706-.527 1.416-1.09 2.256-1.349.619-.191 1.28-.211 1.927-.219 5.365-.056 10.739.642 15.914 2.067l.345.096c3.473.981 6.903 2.262 10.42 2.976 1.297.26 2.606.447 3.931.511.61.032 1.467.343 1.28.93" mask="url(#prefix__j)"/>
            <path fill="#659296" d="M126.374 90.616c-.114-.009-.227-.01-.341-.017.033.093.037.197.001.312-.063.199-.24.335-.41.456-3.497 2.496-7.5 4.2-11.02 6.665-2.906 2.037-5.631 4.66-9.116 5.298-2.134.39-4.324-.02-6.454-.43l-12.172-2.34c-4.927-.947-9.89-1.905-14.543-3.786-.122-.05-.249-.107-.347-.191-.588.921.542 2.266 1.292 2.757 1.068.699 2.38.877 3.642 1.057 5.357.76 10.669 1.84 15.899 3.231 4.686 1.248 9.644 2.748 14.277 1.316 1.581-.489 3.045-1.304 4.438-2.2 3.818-2.46 7.23-5.587 11.32-7.554.971-.467 1.998-.881 2.771-1.634.773-.753 1.23-1.965.763-2.94" mask="url(#prefix__j)"/>
            <path fill="#9ABCC1" d="M120.824 89.47c-.154.243-.365.462-.575.654-1.174 1.081-2.526 1.943-3.87 2.797-1.658 1.057-3.316 2.11-4.973 3.164-2.062 1.309-4.144 2.63-6.436 3.48-2.288.845-4.834 1.193-7.178.514-1.733-.503-3.263-1.536-4.917-2.258-1.106-.487-4.457-.351-4.833-1.592-.429-1.413 2.315-2.857 3.259-3.412 1.813-1.065 3.656-2.079 5.52-3.04 1.316-.683 2.653-1.337 4.06-1.792 1.785-.575 3.66-.814 5.52-1.05 1.32-.167 2.661-.335 4.002-.442 3.473.981 6.903 2.262 10.42 2.976" mask="url(#prefix__j)"/>
            <path fill="#FFF" d="M81.509 91.96c-.34.225-.71.51-.748.917-.062.671.752 1.031 1.405 1.182l15.915 3.668c.833.192 1.67.385 2.52.468 1.91.188 3.847-.18 5.637-.875 2.022-.784 3.863-1.969 5.689-3.145 1.594-1.028 3.196-2.061 4.62-3.318.962-.849 1.852-1.805 2.963-2.444.732-.42 1.673-.878 1.683-1.726-2.29-1.135-4.796-1.75-7.278-2.356l-3.359-.82-3.955-.966c-2.543-.62-5.095-1.243-7.7-1.49-1.454-.139-2.972-.149-4.31.44-2.583 1.136-3.71 4.074-5.804 5.835-2.212 1.861-4.877 3.052-7.278 4.63" mask="url(#prefix__j)"/>
            <path fill="#F4F2F2" d="M116.7 85.926c-.032.28-.135.535-.35.718-.416.355-1.038.26-1.577.168-1.147-.2-2.316-.271-3.482-.228-.476.02-.972.068-1.376.316-.464.287-.741.79-1.13 1.177-.643.642-1.503.89-2.407 1.065-1.051.212-2.165.335-3.066.89-1.213.746-1.84 2.135-2.613 3.332-.777 1.197-2.006 2.358-3.414 2.162-1.182-.167-2.272-.977-3.43-1.412.512-.192 1.019-.387 1.53-.579 1.305-.49 2.634-.997 3.736-1.855 1.019-.794 1.8-1.852 2.756-2.721.888-.814 1.927-1.46 3.046-1.904.023-.008.027-.032.023-.068.096.02.21.016.357-.023.563-.16 1.404-.755 1.848-1.142.781-.674 1.888-.778 2.915-.838.023 0 .047-.004.07-.004.187-.012.37-.02.556-.028.5-.031 1-.055 1.499-.08 1.047-.047 2.102-.083 3.153-.107 0-.164 1.383.185 1.661.363.103-.016-.156.42-.305.798" mask="url(#prefix__j)"/>
            <path fill="#E54C4C" d="M115.363 84.765c-1.058.024-2.117.06-3.172.108-.686.032-1.368.068-2.054.107-.024 0-.048.004-.071.004-1.027.06-2.134.164-2.915.838-.444.387-1.285.982-1.848 1.142-.555.155-.642-.184-1.027-.615-.389-.43-.627-.974-.936-1.464-1.376-2.183-4.12-3.192-6.69-3.125-.317.008-.725-.032-.805-.343-.043-.155.032-.319.108-.463 1.07-2.01 3.148-3.236 5.158-4.29 1.302-.677 2.614-1.336 3.946-1.946.127-.06.254-.12.381-.176.163-.072.313-.132.464-.175 1.007-.316 1.749-.044 2.792.546 2.117 1.201 3.648 3.24 5.028 5.2.971 1.384 1.967 2.988 1.641 4.652" mask="url(#prefix__j)"/>
            <path fill="#FE6361" d="M88.159 88.62c-.242.537-.456 1.105-.86 1.532-.338.355-.782.586-1.217.809l-1.717.882c-1.55.795-3.234 1.742-3.798 3.399-.11.32-.185.68-.442.9-.223.19-.531.23-.816.299-1.154.278-2.13 1.179-2.543 2.298-.336.91-.313 1.917-.135 2.87l3.568 1.183c.717.238 1.465.478 2.212.372.442-.063.861-.245 1.303-.312.596-.092 1.217.03 1.802-.119 1.58-.403 2.049-2.396 3.126-3.627.477-.546 1.102-.96 1.495-1.57.394-.608.457-1.544-.13-1.966l5.377-2.033c1.306-.494 2.634-1 3.739-1.859 1.018-.792 1.8-1.849 2.753-2.72.89-.813 1.928-1.461 3.047-1.901.312-.123-2.2-3.168-2.457-3.393-1.129-.991-2.475-1.695-3.917-2.096-2.637-.732-5.533 1.178-7.41 2.926-1.249 1.162-2.277 2.567-2.98 4.127" mask="url(#prefix__j)"/>
            <path fill="#DB4646" d="M118.64 55.864c.003 1.676.09 3.356.26 5.024-1.693.666-3.461 1.11-5.262 1.4-.931.152-1.875.264-2.82.348-.677.06-1.637-.084-1.788-.922-.103-.59.445-1.165.719-1.636.908-1.54 1.586-3.144 2.795-4.49 1.078-1.2 2.435-2.142 3.93-2.732.27-.104.547-.2.829-.272.559-.143 1.134-.195 1.693-.064-.318 1.078-.357 2.219-.357 3.344" mask="url(#prefix__j)"/>
            <path fill="#C13636" d="M116.398 54.555c-1.546 2.167-2.51 4.757-2.736 7.418l-.024.315c-.931.152-1.875.264-2.82.348-.677.06-1.637-.084-1.788-.922-.103-.59.445-1.165.719-1.636.908-1.54 1.586-3.144 2.795-4.49 1.078-1.2 2.435-2.142 3.93-2.732.27-.104.547-.2.829-.272.333.5-.298 1.122-.905 1.971" mask="url(#prefix__j)"/>
            <path fill="#FE6361" d="M122.05 47.417c-.16 1.88-.948 3.699-2.205 5.092-.254.283-.548.558-.917.626-.384.076-.797-.088-1.165.04-.25.092-.437.3-.61.503-1.072 1.268-2.047 2.617-2.908 4.038-.444.734-.872 1.5-1.51 2.067-1.044.921-2.495 1.185-3.863 1.416-.571.096-1.158.188-1.73.16-.324-.016-.641-.068-.946-.18-.889-.323-1.531-1.085-2.134-1.82-.512-.622-1.027-1.26-1.36-1.998-.27-.595-.409-1.241-.544-1.884-.606-2.873-1.2-5.778-1.185-8.714.008-1.656.21-3.312.602-4.924.227-.942 1.257-2.422.215-3.037 1.966-.087 3.866-.295 5.785-.594.742-.112 1.484-.244 2.237-.383 2.672-.5 5.444-.922 8.129-.276.385.092.773.212 1.063.48.512.47.567 1.244.587 1.938.04 1.277.075 2.558-.06 3.827-.107.994-.305 2.059.163 2.94.376-.227.773-.462 1.213-.506.44-.044.936.156 1.095.57.071.196.063.412.047.62" mask="url(#prefix__j)"/>
            <path fill="#EA5757" d="M122.05 47.417c-.16 1.88-.948 3.699-2.205 5.092-.254.283-.548.558-.917.626-.384.076-.797-.088-1.165.04-.25.092-.437.3-.61.503-1.072 1.268-2.047 2.617-2.908 4.038-.444.734-.872 1.5-1.51 2.067-1.044.921-2.495 1.185-3.863 1.416-.571.096-1.158.188-1.73.16-.078-.61.386-1.221.937-1.537.603-.347 1.312-.454 1.959-.722 1.681-.698 2.8-2.57 2.621-4.393-.111-1.157-.666-2.398-.099-3.408.44-.79 1.431-1.129 1.911-1.895.52-.834.302-1.911.064-2.869-.219-.89-.468-1.831-1.13-2.466-1.115-1.061-2.895-.834-4.378-.43-.988.27-2.939 1.093-3.776.139-.797-.906.032-2.294.54-3.096.543-.854 1.138-1.688 1.784-2.474.742-.112 1.484-.244 2.237-.383 2.672-.5 5.444-.922 8.129-.276.385.092.773.212 1.063.48.512.47.567 1.244.587 1.938.04 1.277.075 2.558-.06 3.827-.107.994-.305 2.059.163 2.94.376-.227.773-.462 1.213-.506.44-.044.936.156 1.095.57.071.196.063.412.047.62" mask="url(#prefix__j)"/>
        </g>
        <g transform="translate(0 -4) translate(110.316 29.998)">
            <mask id="prefix__m" fill="#fff">
                <use xlink:href="#prefix__k"/>
            </mask>
            <use fill="url(#prefix__l)" xlink:href="#prefix__k"/>
            <path d="M51.733 46.966c-.311-1.236-.74-2.42-1.263-3.556v-74.702h-151.701V51.92h.26c.745 6.43 3.112 12.614 7.185 17.628 7.32 9.01 19.22 13.432 30.773 13.443 11.12.01 22.12-3.658 33.194-2.64 12.794 1.175 24.404 8.49 37.18 9.853 18.633 1.989 37.792-10.633 43.465-28.633 1.484-4.71 2.116-9.816.907-14.605" mask="url(#prefix__m)"/>
        </g>
        <g transform="translate(0 -4) translate(27.095 100.639)">
            <mask id="prefix__o" fill="#fff">
                <use xlink:href="#prefix__n"/>
            </mask>
            <use fill="#D8D8D8" xlink:href="#prefix__n"/>
            <path d="M132.953-25.382c-.302-1.236-.718-2.421-1.227-3.557v-74.701h-147.34v83.211h.254c.723 6.43 3.022 12.615 6.978 17.628 7.11 9.01 18.667 13.433 29.888 13.443 10.8.011 21.484-3.657 32.24-2.64 12.426 1.176 23.703 8.49 36.11 9.854 18.098 1.988 36.707-10.633 42.217-28.633 1.441-4.71 2.054-9.816.88-14.605" mask="url(#prefix__o)"/>
        </g>
        <g transform="translate(0 -4) translate(11.612)">
            <mask id="prefix__q" fill="#fff">
                <use xlink:href="#prefix__p"/>
            </mask>
            <path fill="#BECFD3" d="M59.391 68.085c.596 3.127.762 6.337.492 9.51-.076.89-.185 1.797.006 2.67.349 1.598 1.646 2.818 3.035 3.666 1.39.849 2.932 1.435 4.264 2.373-1.471 1.114-2.497 2.74-3.179 4.46-.682 1.72-1.047 3.549-1.409 5.365-3.695-.906-7.227-2.49-10.368-4.649l1.278-13.586.594-6.325.638-6.788.33-3.503c.067-.716-.101-2.395.36-2.934 1.286-1.505 2.078 2.774 2.293 3.455.655 2.067 1.26 4.154 1.666 6.286" mask="url(#prefix__q)"/>
        </g>
        <g transform="translate(0 -4) translate(23.224 52.255)">
            <mask id="prefix__s" fill="#fff">
                <use xlink:href="#prefix__r"/>
            </mask>
            <use fill="#D8D8D8" xlink:href="#prefix__r"/>
            <path d="M138.606 24.132c-.306-1.199-.727-2.347-1.242-3.448V-51.73H-11.82v80.665h.256c.732 6.233 3.06 12.228 7.066 17.088 7.198 8.734 18.9 13.021 30.262 13.031 10.935.011 21.753-3.545 32.644-2.559 12.582 1.14 24 8.23 36.563 9.552 18.324 1.928 37.166-10.307 42.745-27.756 1.46-4.566 2.08-9.516.891-14.158" mask="url(#prefix__s)"/>
        </g>
        <g transform="translate(0 -4) translate(11.612)">
            <mask id="prefix__u" fill="#fff">
                <use xlink:href="#prefix__t"/>
            </mask>
            <path fill="#BECFD3" d="M56.282 78.725l-.003-.009.035-.043c.146-.195.055-.4-.107-.519 1.14-1.203 2.28-2.612 2.3-4.002.002-.213-.233-.334-.41-.237-.07.039-.138.082-.205.125.013-.074.028-.148.037-.223.043-.335-.48-.552-.687-.286-1.377 1.766-2.305 3.798-3.779 5.532-1.429 1.682-2.937 4.09-4.97 5.011-.009.005-.002.021.008.017.546-.188 1.082-.432 1.603-.716.837-.268 1.565-.724 2.231-1.275.004.003.008.007.01.002l.003-.012c.507-.421.98-.895 1.436-1.383.402-.178.816-.281 1.145-.282.768-.002 1.522.519 2.26.689.571.132.835-.589.384-.916-.566-.411-1.166-.71-1.29-1.473M31.385 97.693c-.15-1.718-1.845-2.379-2.78-3.598-1.12-1.461-.971-3.503-.77-5.337l.741-6.723c.202-1.83.38-3.776-.147-5.5-.031-.887-.127-1.737-.234-2.452-.028-.19-.064-.38-.104-.568-.15-1.078-.502-1.909-1.034-2.633-.469-.759-1.073-1.425-1.815-1.951-.425-.37-.978-.663-1.74-.877-.022-.007-.034.025-.015.036 1.748 1.12 2.427 3.596 2.955 5.554.312 1.155.16 2.159-.02 3.187-.145.297-.268.608-.373.914-1.353 3.945-1.718 8.153-2.074 12.31-.074.878-.15 1.765-.032 2.637.333 2.476 2.776 6.416 5.424 6.946 1.326.265 2.139-.577 2.018-1.945" mask="url(#prefix__u)"/>
            <path fill="#4CB4D5" d="M77.463 86.935c.062.955.358 1.878.65 2.79.268.83.674 1.79 1.525 1.962.299.061.607.008.908-.045l2.027-.36c1.588-.28 3.26-.6 4.483-1.659 1.011-.875 1.582-2.143 2.36-3.233 1.465-2.052 3.645-3.447 5.77-4.792.685-.433 1.414-.88 2.222-.906.522-.016 1.202.064 1.413-.416.05-.116.065-.255.157-.34.083-.077.206-.088.31-.135.267-.123.353-.493.24-.766-.111-.274-.37-.46-.636-.584-.157-.073-.33-.137-.426-.281-.065-.099-.084-.222-.147-.323-.142-.232-.454-.275-.725-.293l-3.755-.265c-.513-.036-1.042-.071-1.532.086-1.405.45-2.007 2.268-3.397 2.76-.446.158-.937.163-1.375.34-.876.358-1.334 1.3-1.863 2.088-.95 1.417-2.372 2.49-3.962 3.078-.803.297-1.65.473-2.505.508-.722.03-1.817-.348-1.742.786" mask="url(#prefix__u)"/>
            <path fill="#AE273E" d="M97.326 80.731c-.095-.316-.427-.494-.742-.399-2.644.808-5.357 1.517-8.064 2.108-.322.07-.526.389-.456.712.06.28.307.472.58.472.042 0 .085-.005.128-.014 2.738-.598 5.483-1.315 8.158-2.132.314-.097.492-.43.396-.747" mask="url(#prefix__u)"/>
            <path fill="#FE6361" d="M39.29 99.445c.012 1.731-.524 3.415-1.098 5.043-.115.328-.246.67-.52.874-.254.188-.583.224-.892.256-2.407.231-4.834.462-7.25.415-1.038-.02-2.077-.092-3.108-.24-1.313-.191-2.633-.503-3.954-.343.889-1.492 1.777-2.98 2.67-4.473.61-1.026 1.213-1.98 2.327-2.258.15-.036.31-.06.476-.072 3.791-.248 7.554.957 11.349.798" mask="url(#prefix__u)"/>
        </g>
        <g transform="translate(0 -4) translate(34.836 54.19)">
            <mask id="prefix__w" fill="#fff">
                <use xlink:href="#prefix__v"/>
            </mask>
            <use fill="#D8D8D8" xlink:href="#prefix__v"/>
            <path d="M127.264 23.273c-.308-1.259-.73-2.465-1.249-3.622v-76.085H-23.9v84.752h.257c.736 6.55 3.076 12.848 7.1 17.955C-9.31 55.45 2.45 59.953 13.868 59.965c10.99.01 21.86-3.725 32.804-2.689 12.644 1.197 24.117 8.647 36.742 10.036 18.414 2.025 37.348-10.83 42.955-29.163 1.466-4.797 2.09-9.998.896-14.876" mask="url(#prefix__w)"/>
        </g>
        <g transform="translate(0 -4) translate(11.612)">
            <mask id="prefix__y" fill="#fff">
                <use xlink:href="#prefix__x"/>
            </mask>
            <path fill="#DB4646" d="M52.578 52.94c-.011.538-.452.965-.888 1.284-1.158.858-2.621 1.64-2.906 3.057-.072.35-.06.714-.052 1.073.06 2.306-.024 4.617-.246 6.911-.12 1.225-.278 2.446-.476 3.659-.016.108-.044.231-.143.275-.126.06-.262-.048-.356-.147-1.119-1.197-1.892-2.674-2.872-3.986-2.862-3.835-7.324-6.062-11.012-9.102-.182-.152-.369-.311-.468-.527-.194-.435.028-.941.294-1.336 1.035-1.553 2.689-2.546 4.195-3.635 1.967-1.425 3.76-3.093 5.33-4.952.59-.703 1.217-2.023 2.272-1.624.758.287 1.578 1.217 2.284 1.983.254.271.488.527.702.722.805.742 1.614 1.492 2.28 2.366.726.95 1.258 2.031 1.788 3.1.14.276.278.567.274.878" mask="url(#prefix__y)"/>
            <path fill="#C13636" d="M52.578 52.94c-.011.538-.452.965-.888 1.284-1.158.858-2.621 1.64-2.906 3.057-.072.35-.06.714-.052 1.073.06 2.306-.024 4.617-.246 6.911-.365-.367-.635-.838-.797-1.333-.266-.802-.293-1.664-.322-2.51-.047-1.428-.09-2.86-.138-4.293-.02-.654-.044-1.329-.29-1.935-.468-1.181-1.716-2.071-1.697-3.34.012-.878.646-1.608 1-2.414.388-.886.178-1.608.241-2.502.044-.63.508-.921 1.051-1.065.254.271.488.527.702.722.805.742 1.614 1.492 2.28 2.366.726.95 1.258 2.031 1.788 3.1.14.276.278.567.274.878" mask="url(#prefix__y)"/>
            <path fill="#FE6361" d="M64.566 48.63c-.262.515-.936.658-1.507.603-.575-.056-1.142-.248-1.713-.168.095.73.159 1.568-.345 2.099-.143.147-.325.267-.409.45-.079.172-.063.368-.118.547-.199.63-1.127.723-1.428 1.313-.1.2-.115.427-.202.635-.147.35-.452.55-.813.646-.445.12-.98.088-1.436-.004-1.887-.371-3.704-1.014-5.496-1.72-.373-.143-.742-.295-1.11-.443-.83-.33-1.73-.61-2.483-1.097-.396-.255-.745-.606-.92-1.045-.222-.571-.13-1.21-.043-1.816.035-.247.067-.519-.055-.738-.219-.395-.608-.156-.928-.092-.385.076-.77-.036-1.06-.307-.963-.918-.788-2.486-.614-3.66.06-.398.127-.797.33-1.152.53-.942 1.752-.918 2.632-.583.33.128.655.252.98.391.237.104.476.216.713.327.314-.606.663-1.213 1.044-1.803.832-1.309 1.8-2.562 2.803-3.68.603-.673 1.249-1.32 2.01-1.799 1.297-.814 2.844-1.097 4.347-1.364.979-.176 1.978-.351 2.962-.204.983.152 1.966.687 2.395 1.588.214.455.278.97.31 1.473.166 2.537-1.448 4.684-1.321 7.226.04.778.289 1.544.717 2.19.452.679 1.123 1.46.758 2.187" mask="url(#prefix__y)"/>
            <path fill="#EA5757" d="M58.03 54.755c-.444.12-.979.088-1.435-.004-1.887-.371-3.704-1.014-5.496-1.72-.373-.143-.742-.295-1.11-.443-.83-.33-1.73-.61-2.483-1.097-.396-.255-.745-.606-.92-1.045-.222-.571-.13-1.21-.043-1.816.035-.247.067-.519-.055-.738-.219-.395-.608-.156-.928-.092-.385.076-.77-.036-1.06-.307-.963-.918-.788-2.486-.614-3.66.06-.398.127-.797.33-1.152.53-.942 1.752-.918 2.632-.583.33.128.655.252.98.391.237.104.476.216.713.327.314-.606.663-1.213 1.044-1.803.884.076 2.236-.092 2.57.654.467 1.046-.604 2.905-.965 3.859-.48 1.265-.77 2.785 0 3.894.48.694 1.281 1.077 2.047 1.429.908.419 1.816.842 2.724 1.26.936.431 2.002 1.034 2.117 2.063.024.2.004.395-.047.583" mask="url(#prefix__y)"/>
        </g>
        <g transform="translate(0 -4) translate(49.352 24.192)">
            <mask id="prefix__B" fill="#fff">
                <use xlink:href="#prefix__z"/>
            </mask>
            <use fill="url(#prefix__A)" xlink:href="#prefix__z"/>
            <path d="M111.897 51.669c-.305-1.185-.724-2.32-1.238-3.409v-71.589H-38.008v79.744h.255c.73 6.163 3.05 12.09 7.042 16.894 7.173 8.635 18.834 12.873 30.157 12.883 10.897.01 21.677-3.505 32.53-2.53 12.538 1.127 23.916 8.136 36.436 9.443 18.26 1.906 37.037-10.19 42.596-27.44 1.455-4.514 2.074-9.407.889-13.996" mask="url(#prefix__B)"/>
        </g>
        <g transform="translate(0 -4) translate(11.612)">
            <mask id="prefix__D" fill="#fff">
                <use xlink:href="#prefix__C"/>
            </mask>
            <path fill="#FE6361" d="M38.125 30.851c-.412.23-.676.668-.8 1.125-.125.456-.127.936-.129 1.41 0 .32.004.658.161.937.3.531 1.01.63 1.618.63.201 0 .406-.007.594-.078.576-.22.761-.938.824-1.554.067-.644.377-2.093-.211-2.537-.41-.309-1.667-.15-2.057.067" mask="url(#prefix__D)"/>
        </g>
        <g transform="translate(0 -4) translate(30.966 29.03)">
            <use fill="url(#prefix__F)" xlink:href="#prefix__E"/>
        </g>
        <g transform="translate(0 -4) translate(11.612)">
            <mask id="prefix__H" fill="#fff">
                <use xlink:href="#prefix__G"/>
            </mask>
            <path fill="#AE273E" d="M58.86 111.22c-.032.012-.06.024-.092.04-1.114.458-2.153 1.14-3.33 1.392-2.114.451-4.311-.538-6.453-.24-.745.105-1.463.364-2.173.623.08-1.644 2.118-2.621 2.317-4.257.114-.962-.469-1.896-1.238-2.482-.77-.583-1.705-.894-2.605-1.233-.905-.34-1.82-.738-2.475-1.453-.345-.379-.603-.833-.916-1.24-.448-.587-1.007-1.086-1.637-1.457.016-.794.947-1.173 1.701-1.412 1.463-.463 2.756-1.373 4.219-1.8 1.582-.459 3.236-.49 4.814-1.033.563-.192 1.285-.383 1.681.063.147.168.21.383.234.61.02.16.02.328.024.488.048 1.955.865 3.83 1.967 5.446.33.483.69.954 1.047 1.42.436.563.869 1.13 1.304 1.693 1.226 1.6 2.49 3.232 4.204 4.289-.888.004-1.769.212-2.594.543z" mask="url(#prefix__H)"/>
            <path fill="#9B1E39" d="M58.86 111.22c-.032.012-.06.024-.092.04-.281-.14-.55-.304-.809-.475-1.11-.726-2.193-1.744-2.34-3.069-.035-.347-.015-.73-.237-1.001-.203-.248-.543-.32-.837-.455-.464-.216-.837-.634-1-1.125-.162-.491-.118-1.046-.352-1.509-.345-.698-1.174-.97-1.904-1.233-.733-.259-1.538-.694-1.67-1.46-.098-.586.25-1.161.687-1.564.555-.519 1.249-.838 1.84-1.309.273-.22.512-.479.761-.718.02.16.02.327.024.487.048 1.955.865 3.83 1.967 5.446.33.483.69.954 1.047 1.42.436.563.869 1.13 1.304 1.693 1.226 1.6 2.49 3.232 4.204 4.289-.888.004-1.769.212-2.594.543z" mask="url(#prefix__H)"/>
            <path fill="#2F88C0" d="M56.235 100.901c-.075-.166-.116-.346-.19-.513-.096-.212-.244-.397-.41-.56-.716-.702-1.808-.989-2.773-.727-.424.115-.882.426-.857.868.018.328.308.58.612.702.077.031.163.062.203.135.033.06.026.132.023.2-.025.512.22 1.029.632 1.33.436.32 1.051.425 1.334.887.098.16.143.348.221.519.238.516.81.856 1.375.818 2.034-.135.844-2.182.194-3.095-.13-.183-.272-.36-.364-.564z" mask="url(#prefix__H)"/>
            <path fill="#4CB4D5" d="M37.792 98.952c.05 1.053-.247 2.12-.833 2.993-.306.455-.695.875-.84 1.404-.173.631.032 1.299.236 1.921.178.545.394 1.137.89 1.42.296.17.648.2.988.228 1.085.085 2.193.168 3.25-.096.443-.11.905-.281 1.342-.15.816.244 1.08 1.383 1.88 1.676.331.12.7.073 1.041.157.934.228 1.572 1.393 2.525 1.267.661-.088 1.086-.836 1.017-1.503-.07-.668-.507-1.24-1.001-1.69-.448-.408-.956-.75-1.501-1.009-1.37-.652-3.05-.849-4.013-2.025-.569-.695-.828-1.68-1.6-2.137-.328-.195-.785-.356-.805-.739-.011-.232.167-.436.373-.54.206-.102.44-.13.666-.181.246-.057 1.15-.293 1.206-.61.077-.424-.948-.22-1.212-.217-1.205.01-2.41-.046-3.609-.169M58.325 104.383c-.395-.705-1.118-1.271-1.922-1.277-.223-.002-.462.047-.616.21-.198.21-.194.538-.155.825.073.557.237 1.126.62 1.534.38.404.961.646 1.154 1.166.059.158.074.33.127.491.116.355.676 1.042 1.12.95.538-.112.28-1.147.249-1.562-.06-.807-.181-1.632-.577-2.337z" mask="url(#prefix__H)"/>
            <path fill="#FE6361" d="M79.424 91.433c-1.8.47-3.604.945-5.428 1.304-2.55.503-5.132.79-7.71 1.058-.205.02-.412.044-.617.064l-2.53.263c-.088-.595.098-1.19.277-1.764.313-.985.627-1.983 1.106-2.9.444-.85 1.024-1.605 1.614-2.355.175-.227.341-.558.615-.67.36-.148.995.016 1.376.032.733.032 1.467.056 2.2.08 1.325.035 2.654.06 3.982.067.337 0 3.355-.187 3.422-.02.635 1.589 1.202 3.205 1.693 4.84" mask="url(#prefix__H)"/>
            <path fill="#F45B5B" d="M29.53 106.032c-1.038-.02-2.077-.091-3.108-.239-1.313-.191-2.633-.503-3.954-.343.889-1.492 1.777-2.98 2.67-4.473.61-1.026 1.213-1.98 2.327-2.258.262.075.492.211.658.419.282.343.325.821.325 1.268-.008.715-.107 1.433-.297 2.12-.135.502-.321 1.025-.178 1.523.162.563.697.918 1.094 1.345.182.192.337.407.464.638" mask="url(#prefix__H)"/>
            <path fill="#B6CBD1" d="M147.794 67.208c-.813 4.253-1.98 8.439-3.474 12.501-.4 1.097-.837 2.195-1.495 3.156-.868 1.27-2.097 2.25-2.962 3.52-.758 1.117-1.206 2.41-1.769 3.639-3.267 7.102-10.298 11.771-14.113 18.586-1.36 2.434-2.308 5.127-4.052 7.298-.524.654-1.142 1.269-1.92 1.568-1.463.57-3.065-.08-4.485-.81.444-1.58 1.471-3.168 1.396-4.828-.024-.563-.178-1.133-.063-1.684.186-.87.971-1.452 1.582-2.09 1.622-1.693 2.217-4.119 3.553-6.042 1.745-2.51 4.588-3.97 6.872-5.997 2.042-1.82 3.632-4.086 5.199-6.337.61-.877 1.245-1.815 1.313-2.884.07-1.082-.453-2.167-.243-3.229.262-1.32 1.523-2.138 2.444-3.116 1.566-1.66 2.228-3.97 2.648-6.216.425-2.25.666-4.569 1.602-6.656.405-.902.96-1.652 1.622-2.259 1.186-.027 2.367-.11 3.55-.255 1.046-.128 2.414-.128 2.799.862.155.403.079.85-.004 1.273" mask="url(#prefix__H)"/>
            <path fill="#FF605D" d="M88.235 82.805c-4.747 1.002-7.704 4.573-8.774 9.172-.443 1.907-1.292 3.091-3.096 3.947-1.002.475-1.94.936-2.683 1.78-1.516 1.72-1.665 4.006-1.957 6.17-.322 2.375-1.613 3.186-3.709 3.85-1.227.388-2.403.831-3.408 1.678-1.849 1.557-2.24 3.805-2.796 6.044-.448 1.8-1.544 5.243-4.054 4.862-2.24-.34-2.67-2.406-2.99-4.276-.365-2.126-.828-4.252-3.087-4.997-.486-.16-.694.61-.21.77 3.278 1.08 1.957 5.677 3.749 7.986 1.223 1.577 3.288 1.638 4.849.507 2.09-1.514 2.33-4.269 2.958-6.566.531-1.95 1.453-3.54 3.288-4.503 1.249-.655 2.675-.805 3.923-1.444 2.024-1.037 2.158-2.991 2.398-5.037.204-1.733.654-3.654 1.991-4.882 1.127-1.035 2.712-1.272 3.873-2.244 1.942-1.628 1.66-4.537 2.764-6.661 1.468-2.825 4.106-4.738 7.182-5.387.5-.105.288-.875-.21-.769" mask="url(#prefix__H)"/>
            <path fill="#C13636" d="M115.363 84.765c-1.058.024-2.117.06-3.172.108.004-.12.012-.24.02-.351.115-1.648-.468-3.288-1.376-4.665-.912-1.373-2.134-2.506-3.403-3.551-.464-.375-1.935-1.05-2.375-1.588.127-.06.254-.12.381-.176.163-.072.313-.132.464-.175 1.007-.316 1.749-.044 2.792.546 2.117 1.201 3.648 3.24 5.028 5.2.971 1.384 1.967 2.988 1.641 4.652" mask="url(#prefix__H)"/>
            <path fill="#DB4646" d="M70.328 86.545c-.028.766-.46 1.564-.885 2.242-1.055 1.668-2.101 3.34-3.156 5.008-.206.02-.413.044-.618.064l-2.53.263c-.088-.595.098-1.19.277-1.764.313-.985.627-1.983 1.106-2.9.444-.85 1.024-1.605 1.614-2.355.175-.227.341-.558.615-.67.36-.148.995.016 1.376.032.733.032 1.467.056 2.2.08" mask="url(#prefix__H)"/>
        </g>
    </g>
</svg>
