<svg xmlns="http://www.w3.org/2000/svg" width="31" height="41" viewBox="0 0 31 41">
    <g fill="none">
        <path fill="#B3B3B3" d="M12.404 17.002h6.271l.034.43-3.064 4.645-3.293-4.692.052-.382z"/>
        <path fill="#F0BA7D" d="M12.444 15.837L12.39 18.458 7.944 20.889 7.944 29.802 15.429 29.802 22.913 29.802 22.913 20.889 18.781 18.321 18.554 15.7 12.444 15.837 12.444 15.837z"/>
        <path fill="#FED298" d="M10.39 8.194s-.255-.56-.94-.282c-.684.277.031 3.045.293 3.431.261.386.682.141.835.126.218 1.65.238 2.788.898 3.484.626.658 2.058 2.001 2.813 2.47.511.107.892.17 1.251.19.359-.02.74-.083 1.251-.19.755-.469 2.187-1.812 2.813-2.47.66-.696.68-1.833.898-3.484.153.015.574.26.835-.126.262-.386.977-3.154.293-3.431-.685-.278-.94.282-.94.282s.677-2.173-.526-4.313c-.824-1.467-2.704-2.227-4.624-2.283-1.92.056-3.8.816-4.624 2.283-1.203 2.14-.526 4.313-.526 4.313z"/>
        <path fill="#15BDB2" d="M10.21 19.229l1.064-.42.858-.77 3.03 2.297h.755l3.03-2.3 1.923 1.193 3.34 5.679-2.645 14.354c-1.918.532-3.938.818-6.026.818-1.702 0-3.36-.19-4.954-.549l-4.742-14.17 4.366-6.132z"/>
        <g fill="#21D0C3">
            <path d="M8.753 1.546L7.53.038 4.772 3.372 7.139 6.002zM.034 1.52L1.259.038 4.017 3.372 1.555 5.975z" transform="translate(11.145 16.965)"/>
        </g>
        <path fill="#F1F1F1" d="M11.18 18.484l-8.108 2.637c-.33.107-.537.387-.604.727L.084 33.93c1.606 1.518 3.435 2.801 5.433 3.797l1.185-3.868c.014-.044.056-.072.102-.066.046.005.081.042.084.089l.17 4.543c2.618 1.066 5.481 1.655 8.482 1.655V38.57l-4.36-20.087z"/>
        <g>
            <path fill="#FFF" d="M3.462 0.025L2.533 0.311 0.073 4.508 3.179 4.606 1.272 5.691 7.823 20.113 3.462 0.026z" transform="translate(7.718 18.459)"/>
            <path fill="#EEF3F7" d="M12.18.052l8.11 2.61c.33.106.537.387.604.728l2.384 12.08c-1.605 1.52-3.435 2.803-5.433 3.799L16.66 15.4c-.014-.045-.056-.072-.102-.067-.046.006-.081.043-.084.089l-.17 4.543c-2.618 1.066-5.48 1.655-8.482 1.655v-1.508L12.18.053V.051z" transform="translate(7.718 18.459)"/>
        </g>
        <path fill="#FFF" d="M19.898 18.511L20.414 18.668 23.287 22.994 20.182 23.091 22.088 24.177 15.54 38.571 19.898 18.511 19.898 18.511 19.898 18.511z"/>
        <path fill="#D9DADA" d="M16.459 38.477c-.274 0-.495.221-.495.494s.222.494.495.494.495-.222.495-.494c0-.273-.222-.494-.495-.494z"/>
        <path fill="#666" d="M20.1 8.842l.477-.017.153-.545.45-.448c.296-2.235.384-5.713-1.835-5.613 0 0-.2-2.536-4.2-2.039-4.002.497-5.81 3.08-5.595 5.236.215 2.155.129 2.416.129 2.416l.45.448.067.62.392-.025s.123-.829.247-1.194c.123-.364.084-1.102.084-1.102s4.726.301 6.004-1.324c.788-1.003 2.6-2.741 2.691-.334.027.714-.238 1.784.27 2.563.508.779.215 1.357.215 1.357z"/>
        <path fill="#0F7986" d="M15.54 38.571L16.818 32.691 15.949 21.1 16.422 20.898 15.917 20.336 15.162 20.336 14.644 20.885 15.13 21.1 14.284 32.785 15.54 38.571z"/>
        <path fill="#FFF" d="M16.415 38.477c-.25 0-.451.201-.451.45 0 .248.202.45.45.45.25 0 .452-.202.452-.45 0-.249-.202-.45-.451-.45z"/>
        <path fill="#FEFEFE" d="M23.485 31.033c-.878-.152-1.467-.986-1.316-1.864.152-.878.987-1.467 1.865-1.316.878.152 1.466.987 1.315 1.865-.152.878-.986 1.467-1.864 1.315z"/>
        <path fill="#0F7986" d="M23.5 30.94c-.826-.142-1.38-.928-1.238-1.755.143-.827.929-1.382 1.756-1.24.827.144 1.381.93 1.239 1.757-.143.827-.93 1.381-1.756 1.238z"/>
        <path fill="#EBECEC" d="M23.616 30.272c-.457-.079-.764-.514-.685-.972.079-.457.514-.764.971-.685.458.079.765.513.686.971-.08.458-.514.765-.972.686z"/>
        <path fill="#FEFEFE" d="M23.715 28.705L24.085 28.769 24.283 27.618 23.914 27.554z"/>
        <path fill="#21D0C3" d="M11.342 31.352l.693-.137c.294-.059.537-.232.693-.464.155-.233.222-.524.164-.818l-.814-4.102c-.308-1.547-1.519-2.337-2.902-2.512-.53-.067-1.086-.042-1.625.064-.539.107-1.061.297-1.525.56-1.209.69-2.024 1.88-1.716 3.43l.814 4.102c.059.294.232.537.464.693.233.155.524.222.818.164l.692-.138-.056-.285-.692.137c-.216.043-.43-.006-.6-.12-.17-.114-.297-.293-.34-.508l-.814-4.102c-.28-1.407.467-2.49 1.573-3.12.437-.25.93-.428 1.439-.53.509-.1 1.033-.123 1.532-.06 1.267.16 2.374.878 2.653 2.282l.814 4.101c.042.216-.007.43-.12.6-.115.17-.293.297-.509.34l-.692.137.056.286z"/>
        <path fill="#393838" d="M12.297 26.44l-.124-.627c-.317-1.596-1.563-2.41-2.985-2.59-.54-.068-1.106-.043-1.655.066-.549.108-1.081.302-1.554.57-1.243.709-2.08 1.935-1.764 3.533l.125.627.475-.095-.124-.626c-.27-1.36.454-2.408 1.526-3.018.428-.244.911-.42 1.41-.518.499-.1 1.012-.121 1.502-.06 1.227.155 2.3.849 2.569 2.205l.124.626.476-.094z"/>
        <g fill="#076673">
            <path d="M.15 1.515l.37-.074c.093.105.237.158.384.13.22-.045.363-.259.32-.48C1.18.872.965.73.744.773.598.802.486.906.44 1.038l-.37.073.08.404zM5.237.505l-.37.074c-.046.131-.158.236-.305.265-.22.044-.434-.1-.478-.32-.043-.22.1-.434.32-.478.147-.029.29.025.383.13l.37-.074.08.403z" transform="translate(6.4 30.851)"/>
        </g>
        <path fill="#393838" d="M7.758 23.252l-.141-.712-.281.056-.28.056.142.718c.107-.031.216-.058.325-.08.078-.015.156-.028.235-.038z"/>
        <g fill="#0F7986">
            <path d="M.226 1.031c.066-.013.11-.078.096-.145C.31.82.245.776.178.79.11.803.068.867.08.934c.013.067.078.11.145.097zM3.886.303c.067-.013.11-.078.097-.145-.013-.066-.078-.11-.145-.096-.066.013-.11.078-.096.144.013.067.078.11.144.097z" transform="translate(6.927 30.94)"/>
        </g>
        <path fill="#FEFEFE" d="M23.571 30.264c-.432-.075-.722-.486-.648-.919.075-.432.486-.723.919-.648.432.075.723.486.648.919-.075.432-.486.723-.919.648z"/>
        <g fill="#393838">
            <path d="M4.169.415C4.156.415-.213.45.525 4.274l-.407.078C-.714.042 4.15.002 4.164.002l.005.413zM12.889.021c.713.02 2.09.214 3.151 1.504 1.039 1.263 1.766 3.582 1.222 7.834l-.41-.052c.527-4.115-.153-6.33-1.13-7.52-.955-1.16-2.2-1.336-2.843-1.353l.01-.413z" transform="translate(7.015 18.283)"/>
        </g>
    </g>
</svg>
