<svg xmlns="http://www.w3.org/2000/svg" width="27" height="41" viewBox="0 0 27 41">
    <g fill="none">
        <path fill="#FF5A7F" d="M5.821 7.444s.727 3.243 4.665 3.835c0 0-.337-8.402 7.196-6.996l2.355-3.77S8.241-2.808 5.821 7.444z"/>
        <path fill="#FF8595" d="M19.071 2.06l.966-1.546S8.241-2.81 5.821 7.444c0 0 .032.141.118.37 1.101-3.07 3.173-4.663 5.383-5.441.578-.203 1.025-.694 1.607-.798.458-.082 1.052.207 1.496.174 1.963-.148 3.72.122 4.646.311zM10.518 10.329c-.08.323-.14.635-.185.925l.153.025s-.015-.374.032-.95z"/>
        <path fill="#FF5A7F" d="M.911 18.05S-1.137 33.29 13.034 40.456c1.901.961 4.215.52 5.615-1.087 3.762-4.317 9.224-13.74 6.883-20.234-3.86-10.7-14.317-9.21-14.317-9.21L.91 18.05z"/>
        <path fill="#D04D7F" d="M11.215 9.925L.91 18.05s-.147 1.097-.09 2.84c4.655.65 13.044-5.18 12.651-8.866-.077-.723-.227-1.449-.443-2.146-1.111-.05-1.814.047-1.814.047zM25.532 19.135c-.348-.964-.79-1.813-1.247-2.584.818 3.951-.89 8.621-2.845 12.74-.226.476.046 1.823-.293 2.38-.338.557-1.439.638-2.263 1.775-.612.844-1.205 1.613-1.77 2.262-1.4 1.606-3.714 2.048-5.615 1.086-.852-.43-1.646-.891-2.385-1.375-.399-.262-.47-1.076-.837-1.351-.425-.317-1.14-.096-1.524-.428-2.139-1.85-3.676-3.918-4.778-5.995 1.424 4.46 4.508 9.498 11.06 12.811 1.9.961 4.214.52 5.614-1.087 3.762-4.317 9.224-13.74 6.883-20.234z"/>
        <path fill="#FF8595" d="M23.327 8.1h-4.93s1.894 3.098.916 7.587c0 0 .13 3.886 5.554 3.216 0 0 1.788-7.87-1.54-10.802z"/>
        <path fill="#FFA3B4" d="M23.327 8.1h-1.66c1.397 1.23 1.893 3.33 1.998 5.353.029.552.457 1.164.438 1.686-.023.624-.501 1.148-.56 1.667-.141 1.247-.335 2.097-.335 2.097-.113.014-.223.026-.332.036.568.062 1.227.059 1.991-.036 0 0 1.788-7.87-1.54-10.802z"/>
        <path fill="#FF8595" d="M5.821 7.444C1.884 9.14-1.75 15.76.911 18.05c2.662 2.291 10.626-2.755 10.304-5.778C10.893 9.25 8.782 6.17 5.82 7.444z"/>
        <path fill="#FFA3B4" d="M10.165 9.109C9.209 7.563 7.683 6.642 5.82 7.444 1.884 9.14-1.75 15.76.911 18.05c.228.196.495.337.791.432-.461-1.4.074-3.36 1.144-5.165.27-.456-.215-1.135.585-2.038.575-.65 1.756-.84 1.895-.96 1.452-1.255 3.18-2.16 4.839-1.21z"/>
        <path fill="#FF5A7F" d="M16.02 10.32c.982-.658 2.406-1.233 4.249-.997 3.823.49 6.465-2.2 6.465-2.2l-2.08-2.75c-1.995 2.553-4.434 2.084-7.53 2.084-3.697 0-5.233 3.417-5.233 3.417.833-.033 2.356-.005 4.13.445z"/>
        <path fill="#FF8595" d="M19.242 7.724c2.777 0 5.024.376 6.897-1.388l-1.485-1.964c-1.995 2.554-4.434 2.085-7.53 2.085-3.698 0-5.233 3.417-5.233 3.417.435-.018 1.059-.018 1.808.05.597.054 1.192-.153 1.621-.572.848-.827 2.131-1.628 3.922-1.628z"/>
        <g fill="#D04D7F" transform="translate(16.846 .33)">
            <path d="M3.13 3.114c-.836.932-2.048 1.208-2.707.616-.66-.592-.517-1.827.319-2.759C1.578.04 2.79-.237 3.45.355c.66.592.516 1.827-.32 2.76z"/>
            <ellipse cx="8.809" cy="5.46" rx="1.058" ry="1.748" transform="rotate(-30.001 8.809 5.46)"/>
            <circle cx="3.371" cy="30.655" r="1" transform="rotate(-65.613 3.371 30.655)"/>
        </g>
        <circle cx="4.766" cy="12.48" r="1" fill="#FFA3B4" transform="rotate(-37.604 4.766 12.48)"/>
        <circle cx="12.929" cy="2.283" r="1" fill="#FF8595"/>
        <circle cx="23.224" cy="15.098" r="1" fill="#FFA3B4"/>
    </g>
</svg>
