<svg xmlns="http://www.w3.org/2000/svg" width="36" height="32" viewBox="0 0 36 32">
    <g fill="none">
        <path fill="#680B09" d="M26.129 1.205H31.935000000000002V12.237H26.129z"/>
        <path fill="#C43D27" d="M25.548 0.044H32.516V1.205H25.548z"/>
        <g fill="#207700">
            <path d="M0 5.632H35.419V7.955H0z" transform="translate(0 23.444)"/>
            <path d="M4.065.581L5.226 0 6.387.581 6.387 6.852 5.226 7.432 4.065 6.852zM0 .581L1.161 0 2.323.581 2.323 6.852 1.161 7.432 0 6.852z" transform="translate(0 23.444)"/>
        </g>
        <path fill="#239B02" d="M1.161 26.173H5.226000000000001V27.334H1.161z"/>
        <path fill="#FFF" d="M8.129 13.979H31.935000000000002V30.237H8.129z"/>
        <path fill="#E8F9FC" d="M8.129 13.979L31.935 13.979 31.935 30.237"/>
        <path fill="#FCA12A" d="M18.58 29.076V18.218c0-.523-.174-.755-.696-.755h-5.4c-.523 0-.871.29-.871.755v10.858h6.968z"/>
        <path fill="#E58613" d="M18.58 23.85v-5.632c0-.523-.174-.755-.696-.755h-5.4c-.523 0-.871.29-.871.755"/>
        <path fill="#DB5435" d="M17.884 23.327c0 .523-.407.988-.987.988-.523 0-.987-.407-.987-.988 0-.522.406-.987.987-.987.522 0 .987.407.987.987z"/>
        <path fill="#C43D27" d="M17.594 22.63c.406.349.348.988 0 1.394-.349.407-.988.349-1.394 0"/>
        <path fill="#0E75AF" d="M24.968 20.366h3.484v-2.148c0-.523-.581-.755-1.104-.755h-2.38v2.903z"/>
        <path fill="#1EA4C4" d="M24.387 20.366v-2.903h-2.613c-.522 0-.87.29-.87.755v2.148h3.483z"/>
        <path fill="#0E75AF" d="M24.387 20.947h-3.484v2.264c0 .523.349.639.871.639h2.613v-2.903z"/>
        <path fill="#1EA4C4" d="M24.968 20.947v2.903h2.38c.523 0 1.104-.116 1.104-.639v-2.264h-3.484z"/>
        <path fill="#C43D27" d="M35.942 13.979L20.032 1.553 4.181 13.979z"/>
        <path fill="#AA1E0F" d="M35.942 13.979L20.032 1.553 11.961 13.979z"/>
        <g fill="#C43D27">
            <path d="M.015 4.689L22.834 4.689 21.382 3.527 1.466 3.527zM5.182.624L17.666.624 16.911.044 5.937.044z" transform="translate(8.637 5.806)"/>
        </g>
    </g>
</svg>
