<svg xmlns="http://www.w3.org/2000/svg" width="39" height="42" viewBox="0 0 39 42">
    <g fill="none">
        <path fill="#FFA991" d="M22.839 21.783h-2.572l.221 19.178c.656.59 1.474.59 2.13 0l.221-19.178z"/>
        <path fill="#FF8595" d="M27.512 24.22c-.795.419-1.75-.146-1.77-1.044-.005-.21-.014-.418-.026-.626.07 1.555-1.015 2.93-2.548 3.218-.153.03-.306.055-.46.08-10.295 1.578-16.61 5.45-19.43 7.586-.256.194-.545.29-.832.301l-.088.126s17.909 4.76 29.794-12.962c.095-.142-1.803 1.83-4.64 3.322z"/>
        <path fill="#FFD3BE" d="M17.922 5.401c-.678-1.438-.726-2.762-.59-3.757.126-.91-.607-1.71-1.524-1.64-.6.046-1.064.425-1.25.925-.59 1.591-.43 2.898.65 5.399.747 1.732-1.267 4.848-1.267 4.848l2.923.711s2.582-3.251 1.058-6.486z"/>
        <path fill="#FF5A7F" d="M36.956 12.113c-3.085.226-7.43.344-12.27.078-.902-.05-1.536.87-1.17 1.697 1.033 2.338 2.145 5.666 2.225 9.288.02.898.976 1.463 1.771 1.045 5.044-2.653 8.727-7.625 10.482-10.367.503-.786-.108-1.81-1.038-1.741z"/>
        <path fill="#D04D7F" d="M36.956 12.113c-.448.033-.923.063-1.422.09.363.353.484.937.17 1.428-1.682 2.628-5.134 7.3-9.856 10.02.274.603 1.022.908 1.664.57 5.044-2.653 8.727-7.625 10.482-10.367.503-.786-.108-1.81-1.038-1.741z"/>
        <path fill="#FF5A7F" d="M23.454 13.75c-.463-1.032-1.44-1.736-2.567-1.843-1.227-.117-2.472-.26-3.723-.435C-2.63 8.705-.508 26.114.929 32.57c.236 1.058 1.485 1.519 2.35.864 2.82-2.137 9.135-6.008 19.429-7.587.154-.024.307-.05.46-.079 1.545-.291 2.636-1.684 2.547-3.254-.194-3.435-1.274-6.56-2.261-8.764z"/>
        <path fill="#FF8595" d="M21.473 12.02c-.636-.186-1.014-.088-4.31-.548C-2.628 8.705-.506 26.114.93 32.57c.053.236.155.441.293.612C.409 28.49.259 21.935 3.928 17.34c.914-1.145.954-2.154 2.392-2.996.43-.251 1.995-.5 2.476-.718 3.045-1.376 7.16-2.044 12.677-1.606z"/>
        <path fill="#D04D7F" d="M25.715 22.514c-.194-3.435-1.274-6.56-2.261-8.764-.419-.934-1.26-1.598-2.251-1.795.507.744 2.292 4.952 2.535 9.25.089 1.57-1.003 2.963-2.548 3.255-.152.028-.305.055-.46.078C7.548 26.56 1.683 32.075.88 32.35l.05.22c.235 1.058 1.484 1.519 2.348.864 2.82-2.137 9.135-6.008 19.43-7.587.154-.024.307-.05.46-.079 1.545-.291 2.636-1.684 2.547-3.254z"/>
        <ellipse cx="6.911" cy="15.737" fill="#FF8595" rx="1.018" ry="1" transform="rotate(-31.926 6.911 15.737)"/>
        <circle cx="22.068" cy="22.47" r="1" fill="#D04D7F" transform="rotate(-57.12 22.068 22.47)"/>
    </g>
</svg>
