<svg xmlns="http://www.w3.org/2000/svg" width="39" height="41" viewBox="0 0 39 41">
    <g fill="none">
        <path fill="#FF5A7F" d="M7.71 40.63H3.496c-1.903 0-3.457-1.525-3.486-3.428-.12-7.927.765-26.958 11.917-28.452 2.734-.367 3.648 13.88 3.953 23.448.148 4.613-3.552 8.433-8.168 8.433z"/>
        <path fill="#FF8595" d="M5.799 39.477c-1.903 0-3.457-1.526-3.486-3.429-.011-.777-.014-1.66.003-2.622.01-.64-.5-.769-.54-2.05-.036-1.202.74-2.402.764-2.697.568-7.18 2.38-15.927 7.606-19.517C.68 12.343-.104 29.72.01 37.202c.03 1.903 1.583 3.429 3.486 3.429H7.71c1.78 0 3.422-.568 4.761-1.53-1.535.483-2.222.376-6.673.376z"/>
        <path fill="#FF5A7F" d="M30.462 40.63h4.216c1.903 0 3.457-1.525 3.486-3.428.12-7.927-.765-26.958-11.917-28.452-2.733-.367-3.647 13.88-3.953 23.448-.147 4.613 3.552 8.433 8.168 8.433z"/>
        <path fill="#D04D7F" d="M30.9 13.01c.364.518 1.046.673 1.359 1.252.23.426.104 1.263.309 1.716 3 6.64 3.32 15.976 3.245 20.949-.029 1.904-1.58 3.432-3.485 3.432h-3.963c.669.177 1.372.272 2.097.272h4.216c1.905 0 3.457-1.529 3.486-3.433.102-6.746-.525-21.526-7.583-26.705.027 0-.588 1.223.32 2.517z"/>
        <path fill="#FF8595" d="M24.443 31.394c.02-.647.023-1.317.07-2 .081-1.162.615-1.592.66-2.674.025-.59-.479-1.227-.444-1.824.382-6.627.782-13.106 1.518-16.146-2.733-.367-3.647 13.88-3.953 23.448-.147 4.613 3.552 8.433 8.168 8.433 0 0-6.197-3.75-6.02-9.237z"/>
        <path fill="#FFD3BE" d="M20.885 14.806V.904c0-.5-.404-.904-.904-.904h-1.789c-.5 0-.904.405-.904.904v13.902c0 .583-.257 1.137-.702 1.514L11.59 20.55c-.545.462-.613 1.278-.151 1.823.449.53 1.237.61 1.784.181l4.658-3.651c.708-.555 1.703-.555 2.411 0l4.658 3.651c.547.43 1.335.349 1.785-.181.461-.545.394-1.361-.151-1.823l-4.997-4.231c-.445-.377-.702-.93-.702-1.514z"/>
        <path fill="#FFAEA7" d="M26.668 20.63c-.458.465-1.197.52-1.718.11l-4.658-3.65c-.708-.556-1.703-.556-2.411 0l-4.658 3.65c-.521.41-1.26.355-1.718-.11-.466.472-.503 1.228-.066 1.744.449.53 1.237.61 1.784.181l4.658-3.651c.708-.556 1.703-.556 2.411 0l4.658 3.651c.547.43 1.335.349 1.784-.181.437-.516.4-1.272-.066-1.744z"/>
        <g fill="#D04D7F">
            <path d="M.05 3.21c-.05-.36.2-.69.558-.741C2.36 2.222 2.34 2.024 3.788.244c.229-.28.642-.323.922-.094.281.228.323.641.095.922C3.333 2.879 3.089 3.443.79 3.767c-.359.05-.69-.2-.74-.558z" transform="translate(4.26 22.527)"/>
            <path d="M3.423 5.583c-.29 0-.555-.194-.633-.488l-.141-.536c-.453-1.714.3-2.765 1.07-4.21.17-.318.566-.44.886-.27.32.17.44.568.27.887C3.817 2.953 3.6 3.028 4.057 4.76c.11.416-.204.823-.634.823zM1.849 10.99c-.05-.358.2-.69.558-.74 1.752-.247 1.732-.446 3.18-2.225.229-.28.641-.323.922-.094.28.228.323.641.095.922-1.472 1.807-1.716 2.371-4.015 2.695-.358.05-.69-.2-.74-.558z" transform="translate(4.26 22.527)"/>
            <path d="M5.222 13.364c-.29 0-.556-.194-.633-.488l-.142-.536c-.452-1.714.3-2.765 1.07-4.209.17-.32.567-.44.887-.27.319.17.44.567.27.886-1.059 1.987-1.276 2.062-.818 3.794.11.416-.204.823-.634.823zM29.92 4.12c-.068 0-.063-.002-.641-.083-1.756-.247-2.433-1.349-3.465-2.618-.229-.28-.187-.693.094-.922.28-.228.694-.186.922.095 1.418 1.741 1.406 1.975 3.18 2.224.359.05.609.382.558.74-.046.328-.327.565-.648.565z" transform="translate(4.26 22.527)"/>
            <path d="M27.195 5.93c-.43 0-.744-.407-.634-.822.452-1.713.261-1.77-.818-3.794-.17-.32-.049-.717.27-.887.32-.17.717-.049.887.27 1.096 2.057 1.521 2.5.928 4.745-.077.294-.343.488-.633.488zM26.658 10.65c-.068 0-.063-.003-.641-.085-1.755-.247-2.432-1.348-3.465-2.617-.229-.28-.186-.694.095-.922.28-.229.693-.186.921.094 1.421 1.746 1.407 1.975 3.18 2.225.36.05.609.382.559.74-.046.328-.327.564-.649.564z" transform="translate(4.26 22.527)"/>
            <path d="M23.934 12.459c-.43 0-.744-.407-.634-.823.451-1.71.26-1.77-.818-3.794-.17-.32-.05-.716.27-.886.32-.17.716-.05.887.27 1.098 2.062 1.52 2.505.928 4.745-.078.294-.343.488-.633.488z" transform="translate(4.26 22.527)"/>
        </g>
        <circle cx="2.887" cy="31.074" r="1" fill="#FF8595" transform="rotate(-85.869 2.887 31.074)"/>
        <circle cx="25.511" cy="29.411" r="1" fill="#FF8595"/>
        <circle cx="31.141" cy="14.688" r="1" fill="#DE4D7F" transform="rotate(-17.819 31.141 14.688)"/>
    </g>
</svg>
