<svg xmlns="http://www.w3.org/2000/svg" width="37" height="40" viewBox="0 0 37 40">
    <g fill="none">
        <path fill="#EC1F27" d="M23.968 16.277c-.625-.588-1.424-.87-2.23-.87-.906 0-1.822.358-2.505 1.041l-.293.293-.293-.294c-.683-.682-1.598-1.04-2.505-1.04-.806 0-1.605.282-2.23.87-1.373 1.293-1.397 3.456-.073 4.78l5.101 5.101 5.101-5.1c1.324-1.325 1.3-3.488-.073-4.781z"/>
        <path fill="#FEC8A3" d="M24.774 28.756c-.784-.532-1.707-.381-2.525.091-.818.472-5.515 4.488-5.515 4.488l-4.624.001c-.215 0-.448-.242-.448-.456 0-.252.22-.448.448-.448h2.829c.99 0 2.098-.645 2.098-1.792 0-1.219-1.108-1.792-2.098-1.792-1.718 0-2.052.007-2.052.007-.688 0-1.386-.041-1.924-.329-.716-.367-1.542-.575-2.424-.575-1.48 0-2.805.59-3.714 1.521L0 34.223l5.376 5.376 1.792-1.792h9.074c.903 0 1.775-.332 2.45-.93l6.143-6.893c.376-.333.354-.946-.06-1.228zM11.528 10.843c.784.532 1.707.381 2.525-.091.818-.472 5.515-4.488 5.515-4.488l4.624-.001c.215 0 .448.242.448.456 0 .252-.22.448-.448.448h-2.829c-.99 0-2.098.645-2.098 1.792 0 1.219 1.108 1.792 2.098 1.792 1.718 0 2.052-.007 2.052-.007.688 0 1.386.041 1.924.329.716.367 1.542.575 2.424.575 1.48 0 2.806-.59 3.714-1.521l4.825-4.751L30.926 0l-1.792 1.792H20.06c-.903 0-1.775.332-2.45.93l-6.143 6.893c-.376.333-.354.946.06 1.228z"/>
        <g fill="#FF5151">
            <path d="M15.62 16.749c-.14-.31-.504-.448-.813-.308-.312.136-.454.498-.319.81.101.231.327.37.565.37.082 0 .165-.017.245-.052l.013-.006c.31-.14.448-.505.309-.814zM17.149 15.713c-.201-.273-.588-.33-.861-.13-.275.201-.334.586-.133.86.12.165.307.252.496.252.127 0 .254-.039.363-.119l.008-.006c.272-.201.328-.584.127-.857zM13.9 17.44c-.07-.332-.396-.544-.727-.475-.332.065-.548.386-.485.718.057.295.315.5.604.5.038 0 .077-.003.116-.01l.018-.005c.332-.07.544-.396.474-.729zM18.434 14.375c-.252-.227-.641-.207-.869.045l-.013.015c-.222.257-.193.645.064.867.116.1.26.15.401.15.171 0 .341-.071.463-.21.226-.251.206-.64-.046-.867zm-.32.55l-.092-.093.1.1-.008-.007zM20 11.041c-.326-.098-.67.087-.768.412-.1.325.082.67.407.77.06.018.121.027.181.027.263 0 .506-.17.588-.435l.002-.008c.099-.325-.085-.667-.41-.766zM20.787 7.866c0-.007-.002-.015-.004-.023-.07-.333-.395-.545-.728-.476-.33.07-.544.393-.477.724.056.294.314.499.603.499.036 0 .073-.003.11-.01.334-.06.556-.38.496-.714zM20.223 9.201c-.337-.03-.637.22-.666.559l-.002.024c-.02.339.239.63.578.65l.036.001c.32 0 .59-.248.613-.57.028-.337-.221-.634-.559-.664zM19.397 12.792c-.295-.168-.67-.064-.838.232l-.009.015c-.162.299-.052.675.246.837.094.05.195.075.295.075.217 0 .427-.115.538-.32l-.535-.304.535.303c.168-.295.064-.67-.232-.838zM5.95.983C5.798.68 5.428.556 5.124.708L5.12.711c-.304.152-.424.52-.273.824.108.215.326.339.552.339.093 0 .188-.021.276-.065.304-.152.427-.522.276-.826zM7.73.47c-.08-.33-.413-.533-.744-.453l-.014.004c-.329.085-.528.42-.444.75.072.277.321.462.595.462.05 0 .102-.007.153-.02.33-.08.533-.412.453-.743zM4.323 1.87c-.213-.264-.6-.306-.865-.093l.382.482-.384-.48c-.265.21-.31.598-.098.864.122.152.301.232.482.232.134 0 .27-.044.383-.134l.008-.007c.264-.213.305-.6.092-.864zM1.043 6.247c-.328-.09-.666.104-.755.432l-.006.023c-.08.33.123.662.453.742.048.012.097.017.145.017.276 0 .527-.187.597-.466.084-.325-.109-.659-.434-.748zM.651 8.055c-.34-.02-.63.24-.65.578v.024c-.01.34.256.622.596.632h.019c.33 0 .602-.26.614-.592.015-.336-.242-.623-.579-.642zM1.817 4.566c-.3-.158-.673-.042-.83.26l-.01.019c-.15.305-.025.673.28.823.087.043.18.063.271.063.226 0 .443-.125.551-.34.153-.3.037-.668-.262-.825zM2.928 3.086c-.261-.217-.65-.18-.866.08l-.013.016c-.21.266-.166.653.1.864.113.09.248.133.382.133.18 0 .36-.08.481-.23.213-.262.176-.647-.084-.863zM1.346 10.404c-.06-.334-.38-.557-.714-.497-.334.06-.557.38-.497.714l.001.006c.054.298.312.504.603.504.037 0 .074-.003.11-.01.335-.06.557-.382.497-.717z" transform="rotate(-19 46.136 -11.212)"/>
        </g>
    </g>
</svg>
