<svg xmlns="http://www.w3.org/2000/svg" width="30" height="35" viewBox="0 0 30 35">
    <g fill="none">
        <path fill="#FFAFAF" d="M26.827 6.726v27.04c0 .372-.3.673-.672.673H3.845c-.371 0-.672-.3-.672-.672V6.727c0-.372.3-.673.672-.673h22.31c.371 0 .672.301.672.672z"/>
        <path fill="#F27070" d="M24.148 32.018v.942c0 .371-.301.672-.673.672h-.125c-.178 0-.35-.07-.475-.197l-1.149-1.148-1.148 1.148c-.126.126-.297.197-.475.197h-.116c-.178 0-.35-.07-.475-.197l-1.149-1.148-1.148 1.148c-.126.126-.297.197-.476.197h-.115c-.178 0-.35-.07-.476-.197L15 32.287l-1.148 1.148c-.126.126-.298.197-.476.197h-.115c-.179 0-.35-.07-.476-.197l-1.148-1.148-1.149 1.148c-.126.126-.297.197-.475.197h-.116c-.178 0-.35-.07-.475-.197l-1.148-1.148-1.149 1.148c-.126.126-.297.197-.475.197h-.125c-.372 0-.673-.3-.673-.672v-.942c0-.743.602-1.345 1.345-1.345h15.606c.743 0 1.345.602 1.345 1.345zm1.334-25.964v8.072H3.172v2.017h20.965c.743 0 1.345.603 1.345 1.346v16.95h.673c.371 0 .672-.3.672-.672V6.727c0-.372-.3-.673-.672-.673h-.673z"/>
        <path fill="#F9F9F9" d="M6.65 32.287h-.125c-.372 0-.673-.301-.673-.673v-10.09c0-.37.301-.672.673-.672h16.95c.372 0 .673.301.673.673v10.09c0 .37-.301.672-.673.672h-.125c-.178 0-.35-.07-.475-.197l-1.149-1.148-1.148 1.148c-.126.126-.297.197-.475.197h-.116c-.178 0-.35-.07-.475-.197l-1.149-1.148-1.148 1.148c-.126.126-.297.197-.476.197h-.115c-.178 0-.35-.07-.476-.197L15 30.942l-1.148 1.148c-.126.126-.298.197-.476.197h-.115c-.179 0-.35-.07-.476-.197l-1.148-1.148-1.149 1.148c-.126.126-.297.197-.475.197h-.116c-.178 0-.35-.07-.475-.197l-1.148-1.148-1.149 1.148c-.126.126-.297.197-.475.197z"/>
        <path fill="#CBE7FF" d="M6.525 5.381h16.95c.372 0 .673.301.673.673v15.47H5.852V6.055c0-.372.301-.673.673-.673z"/>
        <path fill="#FF5E5E" d="M20.852 5.381v1.345c0 .372-.301.673-.673.673H9.955c-.371 0-.672-.301-.672-.673V5.381h3.766V1.345C13.05.602 13.652 0 14.395 0h1.345c.743 0 1.345.602 1.345 1.345v4.036h3.767z"/>
        <path fill="#FC3D3D" d="M20.852 5.381v1.345c0 .372-.301.673-.673.673h-.672v-.84c0-.372-.301-.673-.673-.673h-4.17c-.284 0-.513-.235-.505-.52.009-.276.25-.49.526-.49h1.055v-3.53C15.74.601 15.138 0 14.395 0h1.345c.743 0 1.345.602 1.345 1.345v4.036H20.852z"/>
        <path fill="#FC3D3D" d="M15.572 2.018v1.345c0 .279-.226.505-.505.505-.278 0-.504-.226-.504-.505V2.018c0-.279.226-.505.504-.505.279 0 .505.226.505.505z"/>
        <path fill="#B7B7B7" d="M20.55 27.578c0 .28-.227.505-.505.505h-7.4c-.278 0-.504-.226-.504-.505 0-.278.226-.504.505-.504h7.399c.278 0 .504.226.504.504zm1.513-2.522h-9.417c-.279 0-.505.226-.505.505 0 .278.226.504.505.504h9.417c.278 0 .504-.226.504-.504 0-.28-.226-.505-.504-.505z"/>
        <path fill="#FB3F3F" d="M10.46 27.578c0 .28-.226.505-.505.505H8.61c-.279 0-.505-.226-.505-.505 0-.278.226-.504.505-.504h1.345c.279 0 .505.226.505.504zm-.505-2.522H8.61c-.279 0-.505.226-.505.505 0 .278.226.504.505.504h1.345c.279 0 .505-.226.505-.504 0-.28-.226-.505-.505-.505zm19.507-11.368h-8.05c-.184 0-.353.1-.442.26l-1.502 2.71-1.131-6.653c-.036-.208-.196-.372-.403-.41-.208-.04-.417.053-.526.234l-2.335 3.86h-1.996c-.17 0-.328.085-.42.226l-.687 1.04-1.067-3.661c-.06-.206-.243-.351-.457-.363-.215-.011-.412.114-.494.312l-1.007 2.445H.538c-.278 0-.504.226-.504.505 0 .278.226.504.504.504h8.745c.204 0 .388-.123.466-.312l.588-1.427.97 3.327c.055.188.214.328.409.357.194.03.388-.057.496-.22l1.137-1.725h2.009c.176 0 .34-.092.432-.243l1.78-2.943 1.144 6.735c.036.211.202.377.413.413.028.004.057.007.085.007.18 0 .35-.098.44-.26l2.057-3.709h7.753c.278 0 .504-.226.504-.504 0-.279-.226-.505-.504-.505z"/>
    </g>
</svg>
