<svg xmlns="http://www.w3.org/2000/svg" width="23" height="24" viewBox="0 0 23 24">
    <g>
        <path d="M19.171 11.246V4.249c-.001-1.122-.911-2.032-2.033-2.033h-.804v-.602C16.333.74 15.625.034 14.752.032h-.069c-.873.001-1.58.709-1.581 1.582v.602H6.07v-.602C6.07.74 5.362.034 4.49.032h-.07c-.872.001-1.58.709-1.58 1.582v.602h-.805C.912 2.217.002 3.126.001 4.249v13.777c.001 1.122.91 2.032 2.033 2.033h9.136c1.317 2.439 4.071 3.732 6.789 3.19 2.717-.544 4.762-2.797 5.04-5.554.28-2.757-1.274-5.374-3.828-6.45zM14.683.63h.07c.542 0 .983.44.983.984v1.145c0 .544-.44.984-.984.984h-.069c-.543 0-.983-.44-.984-.984V1.614c0-.543.441-.984.984-.984zM4.42.63h.069c.543 0 .983.44.984.984v1.145c0 .544-.441.984-.984.984h-.07c-.542 0-.983-.44-.983-.984v-.24-.004-.901c0-.543.44-.984.984-.984zM2.034 2.813h.806c.03.852.728 1.527 1.58 1.528h.069c.852-.001 1.55-.676 1.58-1.528h7.034c.03.852.728 1.527 1.58 1.528h.07c.851-.001 1.55-.676 1.58-1.528h.805c.792.001 1.435.644 1.435 1.436v3.017H.598V4.249c.001-.792.644-1.435 1.436-1.436zm0 16.649c-.792 0-1.435-.643-1.436-1.436V7.863h17.975v3.165c-2.333-.716-4.87-.023-6.515 1.782-1.645 1.804-2.1 4.394-1.172 6.652H2.034zm14.688 3.312c-2.145-.002-4.109-1.203-5.086-3.112-.009-.024-.02-.047-.034-.069-1.131-2.287-.608-5.046 1.281-6.76 1.89-1.715 4.686-1.97 6.853-.623 2.167 1.346 3.179 3.966 2.479 6.42-.7 2.453-2.942 4.144-5.494 4.144z"/>
        <path d="M13.33 18.692h1.728v1.727c0 .155.126.281.28.281h2.623c.155 0 .28-.126.28-.28v-1.728h1.728c.156 0 .281-.126.281-.28v-2.623c0-.155-.125-.28-.28-.28h-1.728V13.78c0-.155-.126-.281-.28-.281h-2.623c-.155 0-.28.126-.28.28v1.729H13.33c-.156 0-.281.125-.281.28v2.622c0 .155.126.28.28.28zm.281-2.622h1.728c.155 0 .28-.126.28-.28V14.06h2.062v1.728c0 .155.125.28.28.28h1.728v2.062H17.96c-.155 0-.28.125-.28.28v1.728h-2.062V18.41c0-.155-.125-.28-.28-.28H13.61V16.07z"/>
    </g>
</svg>
