<svg xmlns="http://www.w3.org/2000/svg" width="22" height="24" viewBox="0 0 22 24">
    <g opacity=".8">
        <path d="M10.8 23.925C4.769 23.925.044 21.24.044 17.813c0-1.49.858-2.859 2.483-3.957.2-.135.472-.083.608.117.135.201.082.473-.118.609C1.645 15.509.92 16.626.92 17.813c0 2.887 4.433 5.236 9.881 5.236s9.88-2.349 9.88-5.236c0-1.187-.725-2.304-2.098-3.231-.2-.136-.253-.408-.118-.609.136-.2.408-.253.608-.118 1.625 1.099 2.484 2.467 2.484 3.957 0 3.428-4.725 6.113-10.756 6.113zm0-3.095c-4.14 0-7.145-1.486-7.145-3.533 0-1.17.954-2.17 2.684-2.816.226-.085.479.03.563.257.084.226-.03.479-.257.563-1.363.509-2.114 1.218-2.114 1.996 0 1.49 2.754 2.657 6.269 2.657s6.27-1.168 6.27-2.657c0-.779-.752-1.487-2.115-1.996-.227-.084-.342-.337-.257-.563.085-.227.338-.342.563-.257 1.73.646 2.684 1.646 2.684 2.816 0 2.047-3.005 3.533-7.145 3.533z"/>
        <g>
            <path d="M6.801 5.268V4.245c0-.084-.066-.15-.15-.15H5.352c-.084 0-.15.066-.15.15v1.023H4.179c-.084 0-.15.066-.15.15v1.299c0 .084.066.15.15.15h1.023V7.89c0 .084.066.15.15.15h1.299c.084 0 .15-.066.15-.15V6.87h1.023c.084 0 .15-.066.15-.15V5.421c0-.084-.066-.15-.15-.15H6.801v-.003zm.699 1.28h-.917c-.076 0-.135.06-.135.135V7.6h-.896v-.917c0-.076-.06-.135-.135-.135H4.5v-.896h.917c.076 0 .135-.06.135-.135V4.6h.896v.917c0 .076.06.135.135.135H7.5v.896z" transform="translate(4.8)"/>
            <path d="M6 3.072c-1.653 0-2.997 1.344-2.997 2.997 0 1.653 1.344 2.997 2.997 2.997 1.653 0 2.997-1.344 2.997-2.997 0-1.653-1.344-2.997-2.997-2.997zm0 5.694c-1.488 0-2.697-1.209-2.697-2.697S4.512 3.372 6 3.372s2.697 1.209 2.697 2.697S7.488 8.766 6 8.766z" transform="translate(4.8)"/>
            <path d="M6 .276C2.805.276.207 2.874.207 6.069c0 2.847 4.728 8.664 5.676 9.801.027.033.072.054.114.054.042 0 .087-.021.114-.054.948-1.137 5.676-6.954 5.676-9.801C11.793 2.874 9.195.276 6 .276zM6 15c-1.049-1.305-5-6.385-5-8.86C1 3.303 3.242 1 6 1s5 2.304 5 5.14c0 2.475-3.951 7.555-5 8.86z" transform="translate(4.8)"/>
        </g>
    </g>
</svg>
