<svg xmlns="http://www.w3.org/2000/svg" width="27" height="23" viewBox="0 0 27 23">
    <path fill="#FFF" d="M23.756 15.18c-.114.356-.437.596-.801.596H9.477c-.378 0-.71-.258-.812-.632L5.228 2.49.704 1.717C.245 1.64-.065 1.193.012.722c.076-.47.51-.789.969-.71l5.054.864c.323.056.585.298.673.62l3.415 12.577h12.2l2.144-7.034c.011-.033.024-.065.037-.095.062-.393.397-.693.8-.693.448 0 .81.37.81.824 0 .068-.008.133-.023.196-.003.028-.01.058-.019.089l-2.316 7.82zm-2.111-8.773h3.884c.323 0 .585.262.585.585v.112c0 .323-.262.585-.585.585h-3.884c-.323 0-.585-.262-.585-.585v-.112c0-.323.262-.585.585-.585zM11.162 17.086c-1.512 0-2.738 1.243-2.738 2.776 0 1.534 1.226 2.777 2.738 2.777s2.738-1.243 2.738-2.777c0-1.533-1.226-2.776-2.738-2.776zm9.687 0c-1.512 0-2.737 1.243-2.737 2.776 0 1.534 1.225 2.777 2.737 2.777s2.738-1.243 2.738-2.777c0-1.533-1.226-2.776-2.738-2.776zm-9.687 1.708c.581 0 1.053.478 1.053 1.068 0 .59-.472 1.068-1.053 1.068-.582 0-1.053-.478-1.053-1.068 0-.59.471-1.068 1.053-1.068zm8.634 1.068c0-.59.472-1.068 1.053-1.068.582 0 1.053.478 1.053 1.068 0 .59-.471 1.068-1.053 1.068-.581 0-1.053-.478-1.053-1.068z"/>
</svg>
