<svg xmlns="http://www.w3.org/2000/svg" width="40" height="40" viewBox="0 0 40 40">
    <defs>
        <linearGradient id="prefix__a" x1="50%" x2="50%" y1="0%" y2="100%">
            <stop offset="0%" stop-color="#4698DE"/>
            <stop offset="100%" stop-color="#3072D2"/>
        </linearGradient>
    </defs>
    <g fill="none" fill-rule="evenodd">
        <circle cx="19.8" cy="19.8" r="19.8" fill="#3D88D9" opacity=".1"/>
        <g>
            <path fill="#424447" fill-rule="nonzero" d="M7.56 17.22c-.925 0-1.68.755-1.68 1.68 0 .928.752 1.68 1.68 1.68.925 0 1.68-.755 1.68-1.68-.003-.925-.755-1.68-1.68-1.68zm0 2.615c-.514 0-.934-.42-.934-.935 0-.515.42-.935.934-.935s.934.42.934.935c-.003.518-.42.935-.934.935zM15.96 17.22c-.925 0-1.68.755-1.68 1.68 0 .928.752 1.68 1.68 1.68.925 0 1.68-.755 1.68-1.68 0-.925-.755-1.68-1.68-1.68zm0 2.615c-.514 0-.934-.42-.934-.935 0-.515.42-.935.934-.935s.934.42.934.935c0 .518-.42.935-.934.935z" transform="translate(8.4 8.4)"/>
            <path fill="#7B7B7B" fill-rule="nonzero" d="M16.27 15.433H5.758c-.219 0-.427-.087-.577-.245-.151-.159-.234-.362-.223-.581.015-.423.389-.766.83-.766h11.246c.215 0 .396-.147.441-.354l3.06-7.51c.027-.132-.007-.268-.09-.374-.087-.105-.211-.166-.347-.166H3.853l-.726-2.555c-.052-.192-.23-.328-.433-.328H.449c-.25.004-.449.204-.449.449 0 .245.2.445.449.445h1.905l2.686 9.669c-.558.268-.958.818-.98 1.456-.016.464.15.902.474 1.234.325.332.759.516 1.223.516h10.51c.717 0 1.392.381 1.758.996.083.14.234.22.388.22.08 0 .155-.02.227-.061.215-.125.283-.4.158-.611-.524-.883-1.494-1.434-2.527-1.434z" transform="translate(8.4 8.4)"/>
            <g>
                <path fill="url(#prefix__a)" d="M5.462 0C2.447 0 0 2.447 0 5.458c0 3.01 2.447 5.462 5.462 5.462 3.015 0 5.458-2.447 5.458-5.462C10.92 2.442 8.477 0 5.462 0z" transform="translate(8.4 8.4) translate(12.6)"/>
                <path fill="#FFF" d="M8.019 6.179h-1.84V8.02c0 .398-.324.715-.717.715-.394 0-.721-.317-.721-.715V6.18H2.9c-.393 0-.717-.321-.717-.719 0-.398.324-.719.717-.719h1.84V2.903c0-.395.324-.719.72-.719.398 0 .718.324.718.719V4.74h1.84c.397 0 .717.325.717.719 0 .398-.32.719-.717.719z" transform="translate(8.4 8.4) translate(12.6)"/>
            </g>
        </g>
    </g>
</svg>
