<svg xmlns="http://www.w3.org/2000/svg" width="127" height="101" viewBox="0 0 127 101">
    <g fill="none" fill-rule="evenodd">
        <g fill-rule="nonzero">
            <path fill="#E02440" d="M50.138 16.108l-26.89 61.57c-1.651 3.787-1.17 8.165 1.264 11.502 2.434 3.338 6.456 5.134 10.566 4.718 18.68-1.89 46.68-4.78 66.08-6.79 4.459-.456 8.32-3.293 10.09-7.41 1.768-4.118 1.168-8.871-1.57-12.42l-41.22-53.45c-2.317-3.002-6.047-4.557-9.81-4.089-3.764.469-7 2.89-8.51 6.37z" transform="translate(.012 .322)"/>
            <path fill="#FFF" d="M51.528 20.248s.05-.21.22-.6c.09-.19.19-.44.34-.72l.6-.92c.25-.34.58-.67.92-1.06.405-.397.843-.758 1.31-1.08 1.171-.815 2.511-1.355 3.92-1.58 1.777-.307 3.604-.13 5.29.51.956.385 1.85.91 2.65 1.56l.62.53c.19.19.37.4.56.61.39.41.71.84 1.06 1.28l9.29 11.9 24.08 30.95 3.43 4.44c1.243 1.632 2.042 3.558 2.32 5.59.555 4.27-1.22 8.51-4.65 11.11-1.757 1.293-3.83 2.09-6 2.31l-6.14.63-12.55 1.29-24.74 2.53-11.76 1.15-2.86.29-1.43.14h-1.51c-2.014-.064-3.972-.68-5.66-1.78-3.28-2.146-5.211-5.841-5.1-9.76.018-.462.061-.923.13-1.38.1-.45.19-.91.3-1.35l.47-1.28c.16-.41.34-.79.51-1.18l2-4.58c2.66-6 5.13-11.59 7.39-16.7 4.54-10.2 8.23-18.45 10.81-24.13 1.3-2.83 2.32-5 3-6.53.323-.776.707-1.525 1.15-2.24-.22.81-.508 1.599-.86 2.36-.63 1.54-1.56 3.78-2.74 6.65-2.41 5.76-5.95 14.07-10.35 24.33-2.21 5.13-4.63 10.75-7.22 16.78l-2 4.59c-.16.39-.34.79-.49 1.17l-.41 1.14c-.09.39-.16.79-.25 1.18-.09.39-.07.81-.11 1.22-.07 3.426 1.64 6.644 4.52 8.5 1.466.948 3.165 1.474 4.91 1.52h1.33l1.42-.15 2.86-.3 11.77-1.22 24.73-2.56 12.55-1.28 6.14-.63c3.746-.349 7.01-2.7 8.527-6.142 1.518-3.442 1.052-7.437-1.217-10.438l-3.4-4.45-23.82-31.16-9.1-12c-.34-.44-.66-.89-1-1.26-.17-.19-.33-.39-.51-.57l-.56-.5c-.722-.617-1.535-1.12-2.41-1.49-1.555-.629-3.249-.836-4.91-.6-1.339.175-2.622.643-3.76 1.37-.46.3-.899.635-1.31 1-.34.36-.67.66-.93 1l-.65.85c-.17.26-.29.49-.4.66-.084.174-.192.336-.32.48z" transform="translate(.012 .322)"/>
            <path fill="#FFF" d="M55.838 34.328l4 24.55c.319 2.01 2.096 3.461 4.13 3.37 2.158-.07 3.871-1.84 3.87-4l.28-25.1c.012-.905-.367-1.772-1.038-2.378-.672-.607-1.573-.895-2.472-.792l-6 .68c-.865.095-1.653.543-2.177 1.238-.524.694-.739 1.574-.593 2.432zM71.398 74.548c-.537 2.392-2.463 4.224-4.878 4.643-2.416.418-4.845-.66-6.156-2.731-1.31-2.072-1.244-4.73.17-6.733 1.412-2.003 3.893-2.958 6.284-2.419 3.26.74 5.307 3.977 4.58 7.24z" opacity=".5" transform="translate(.012 .322)"/>
            <path fill="#E02440" d="M21.528 1.538l-20 18.32C.297 20.982-.245 22.676.105 24.306c.35 1.63 1.539 2.952 3.123 3.472 7.21 2.37 18 5.89 25.5 8.34 1.72.553 3.605.134 4.93-1.095 1.324-1.23 1.883-3.078 1.46-4.835l-6.46-26.51c-.37-1.482-1.493-2.659-2.956-3.098-1.463-.44-3.05-.075-4.174.958z" transform="translate(.012 .322)"/>
            <path fill="#FFF" d="M21.368 3.298s.16-.35.75-.72c.897-.55 1.979-.717 3-.46.753.17 1.445.543 2 1.08.635.649 1.066 1.47 1.24 2.36l1.55 5.88c1.12 4.38 2.44 9.58 3.91 15.35.18.72.36 1.46.54 2.2.215.88.194 1.8-.06 2.67-.398 1.37-1.335 2.518-2.597 3.182-1.262.664-2.74.786-4.093.338l-2.37-.77-4.84-1.58-9.59-3.15-4.54-1.5-1.1-.37-.55-.18-.62-.26c-.815-.383-1.508-.985-2-1.74-.932-1.456-1.045-3.29-.3-4.85.192-.353.416-.688.67-1l.42-.43.39-.35 1.5-1.35 5.51-4.9c3.37-3 6.12-5.39 8-7 .945-.91 1.984-1.719 3.1-2.41-.798 1.042-1.699 2-2.69 2.86-1.79 1.77-4.43 4.3-7.71 7.39l-5.37 5-1.48 1.38-.37.34-.3.33c-.183.229-.34.477-.47.74-.517 1.12-.419 2.43.26 3.46.347.524.831.943 1.4 1.21l.44.18.55.17 1.11.36 4.54 1.47 9.55 3.1 4.84 1.59 2.37.78c.644.218 1.336.257 2 .11 1.322-.302 2.38-1.291 2.77-2.59.19-.62.21-1.28.06-1.91-.167-.74-.337-1.47-.51-2.19-1.35-5.8-2.56-11-3.58-15.43-.49-2.19-.93-4.18-1.32-5.93-.116-.74-.439-1.434-.93-2-.44-.467-.996-.812-1.61-1-.876-.273-1.82-.22-2.66.15-.5.21-.76.44-.81.39z" transform="translate(.012 .322)"/>
            <path fill="#FFF" d="M20.648 9.198l-2.55 9.71c-.206.802.225 1.63 1 1.92.804.33 1.724-.037 2.08-.83l4.22-9.21c.155-.332.16-.714.012-1.05-.147-.335-.432-.59-.782-.7l-2.33-.74c-.338-.117-.71-.086-1.024.085-.314.172-.541.467-.626.815zM19.788 26.588c-.809 1.084-2.344 1.308-3.428.499-1.085-.809-1.308-2.343-.5-3.428.809-1.085 2.343-1.309 3.428-.5.521.388.867.967.96 1.61.095.644-.071 1.298-.46 1.82z" opacity=".5" transform="translate(.012 .322)"/>
            <path fill="#E02440" d="M98.368 7.218l-4.54 20.71c-.282 1.272.134 2.599 1.092 3.482.957.884 2.313 1.191 3.558.808 5.67-1.73 14.15-4.34 20-6.15 1.35-.417 2.37-1.531 2.664-2.913.295-1.382-.181-2.816-1.244-3.747l-16-14c-.9-.782-2.145-1.034-3.278-.663-1.134.371-1.989 1.31-2.252 2.473z" transform="translate(.012 .322)"/>
            <path fill="#FFF" d="M99.058 8.418s-.07-.3.12-.81c.317-.766.93-1.372 1.7-1.68.565-.235 1.184-.312 1.79-.22.719.137 1.38.485 1.9 1l3.66 3 9.42 8 1.34 1.17c.553.48.97 1.098 1.21 1.79.502 1.463.177 3.083-.85 4.24-.524.58-1.194 1.009-1.94 1.24l-1.86.57-3.8 1.18-7.51 2.28-3.57 1.08-.87.26-.43.13-.53.12c-.719.115-1.455.032-2.13-.24-1.304-.523-2.238-1.692-2.46-3.08-.035-.332-.035-.667 0-1l.08-.48.09-.4.36-1.54c.47-2 .92-3.89 1.32-5.61.83-3.42 1.52-6.19 2-8.09.202-1.013.539-1.995 1-2.92.006 1.011-.115 2.02-.36 3-.33 1.94-.86 4.75-1.55 8.2l-1.2 5.71c-.1.5-.21 1-.32 1.54l-.07.39v.32c-.02.216-.02.434 0 .65.157.909.78 1.669 1.64 2 .428.173.897.219 1.35.13l.34-.08.43-.13.86-.28 3.57-1.18 7.5-2.32 3.8-1.16 1.9-.52c.72-.209 1.324-.703 1.671-1.367.348-.665.409-1.442.169-2.153-.153-.452-.418-.858-.77-1.18l-1.32-1.17-9.2-8.26-3.5-3.22c-.72-.827-1.863-1.15-2.91-.82-.673.212-1.25.655-1.63 1.25-.3.41-.37.68-.44.66z" transform="translate(.012 .322)"/>
            <path fill="#FFF" d="M101.248 12.508l2.75 7.35c.225.603.865.942 1.49.79.655-.163 1.07-.806.95-1.47l-1.45-7.78c-.052-.283-.224-.53-.47-.677-.248-.147-.546-.181-.82-.093l-1.82.58c-.26.084-.474.27-.593.516-.118.245-.132.528-.037.784zM108.528 23.998c-.05 1.048-.936 1.86-1.984 1.818-1.049-.042-1.867-.922-1.833-1.97.034-1.05.908-1.874 1.957-1.848.514.013 1 .232 1.35.609.35.376.534.878.51 1.391z" opacity=".5" transform="translate(.012 .322)"/>
            <path fill="#263238" d="M13.418 98.908c-.266-.183-.504-.401-.71-.65-.262-.266-.51-.546-.74-.84-.322-.38-.623-.776-.9-1.19-.747-1.055-1.39-2.18-1.92-3.36-.645-1.453-1.144-2.968-1.49-4.52-.323-1.553-.494-3.134-.51-4.72.005-1.295.129-2.587.37-3.86.082-.49.192-.973.33-1.45.086-.367.196-.728.33-1.08.08-.311.208-.608.38-.88.09 0-.36 1.32-.68 3.47-.185 1.255-.269 2.522-.25 3.79.044 1.553.22 3.098.53 4.62.343 1.516.818 2.998 1.42 4.43.512 1.163 1.11 2.286 1.79 3.36 1.18 1.82 2.12 2.81 2.05 2.88zM22.128 100.168c-.307-.149-.596-.333-.86-.55-.328-.22-.639-.463-.93-.73-.407-.334-.794-.691-1.16-1.07-.966-.957-1.834-2.01-2.59-3.14-.922-1.41-1.69-2.916-2.29-4.49-.578-1.578-.984-3.214-1.21-4.88-.183-1.362-.226-2.739-.13-4.11.025-.523.082-1.044.17-1.56.046-.395.12-.785.22-1.17.051-.345.149-.681.29-1 .1 0-.24 1.42-.32 3.72-.034 1.338.047 2.676.24 4 .257 1.626.669 3.223 1.23 4.77.587 1.535 1.324 3.01 2.2 4.4.724 1.134 1.547 2.202 2.46 3.19 1.54 1.7 2.74 2.53 2.68 2.62zM115.138 89.518c-.09-.05.69-1.44 1.57-3.84.514-1.407.931-2.847 1.25-4.31.372-1.79.612-3.605.72-5.43.073-1.832.006-3.668-.2-5.49-.178-1.483-.455-2.953-.83-4.4-.65-2.48-1.29-3.94-1.2-4 .204.315.375.65.51 1 .396.937.73 1.9 1 2.88.447 1.452.78 2.937 1 4.44.498 3.698.319 7.456-.53 11.09-.351 1.476-.813 2.923-1.38 4.33-.371.95-.81 1.872-1.31 2.76-.16.346-.362.672-.6.97zM123.158 87.458c-.08-.05.54-1.19 1.21-3.15.385-1.15.686-2.326.9-3.52.25-1.463.378-2.945.38-4.43-.025-1.483-.173-2.961-.44-4.42-.248-1.192-.582-2.365-1-3.51-.7-2-1.34-3.09-1.26-3.13.08-.04.22.25.52.75.416.722.777 1.474 1.08 2.25.465 1.146.826 2.33 1.08 3.54.3 1.489.464 3.002.49 4.52-.003 1.517-.147 3.03-.43 4.52-.231 1.21-.566 2.398-1 3.55-.29.782-.644 1.538-1.06 2.26-.118.278-.276.538-.47.77z" transform="translate(.012 .322)"/>
        </g>
    </g>
</svg>
