<svg xmlns="http://www.w3.org/2000/svg" width="25" height="24" viewBox="0 0 25 24">
    <g opacity=".8">
        <path d="M21.987 12.257c-.255 0-.462.206-.462.462v9.87h-5.244v-5.398c0-.255-.207-.462-.462-.462h-5.55c-.256 0-.463.207-.463.462v5.398H4.254v-9.87c0-.256-.207-.462-.462-.462-.256 0-.463.206-.463.462V23.05c0 .256.207.462.463.462h6.322c.167 0 .312-.09.394-.223.134-.08.224-.226.224-.394v-5.244h4.626v5.244c0 .167.09.312.223.394.081.134.226.223.395.223h6.014c.255 0 .462-.206.462-.462V12.72c-.001-.256-.21-.462-.465-.462z"/>
        <path d="M24.786 11.775L13.167.155c-.173-.173-.48-.173-.654 0L.893 11.775c-.18.181-.18.474 0 .654.09.09.21.136.328.136.118 0 .236-.045.328-.136L12.84 1.137 24.133 12.43c.18.181.474.181.655 0 .18-.181.18-.474-.002-.655z"/>
    </g>
</svg>
