<svg xmlns="http://www.w3.org/2000/svg" width="66" height="66" viewBox="0 0 66 66">
    <defs>
        <linearGradient id="prefix__a" x1="50%" x2="58.764%" y1="-110.337%" y2="198.786%">
            <stop offset="0%" stop-color="#FF455A"/>
            <stop offset="100%" stop-color="#BF0024"/>
        </linearGradient>
    </defs>
    <path fill="url(#prefix__a)" fill-rule="evenodd" d="M56.145 9.633c-12.844-12.844-33.668-12.844-46.512 0-12.844 12.844-12.844 33.668 0 46.512 12.844 12.844 33.668 12.844 46.512 0 12.844-12.844 12.844-33.668 0-46.512zm-7.696 24.342L34.297 48.127c-.287.29-.68.45-1.087.445-.406-.002-.795-.161-1.086-.445-.286-.285-.448-.673-.448-1.078 0-.404.162-.793.448-1.078l11.552-11.552H12.999c-.845 0-1.53-.685-1.53-1.53s.685-1.53 1.53-1.53h30.677L32.124 19.808c-.596-.596-.596-1.562 0-2.158.596-.595 1.562-.595 2.157 0l14.152 14.152c.586.604.593 1.562.016 2.173z"/>
</svg>
