<svg xmlns="http://www.w3.org/2000/svg" width="20" height="23" viewBox="0 0 20 23">
    <g opacity=".8">
        <path d="M19.895 2.86c0-.473-.386-.858-.859-.858h-1.233v-.368C17.803.734 17.07 0 16.17 0H1.753C.853 0 .12.733.12 1.634v19.612c0 .901.733 1.634 1.634 1.634H16.17c.901 0 1.634-.733 1.634-1.634V15.73h1.233c.474 0 .859-.385.859-.859v-2.143c0-.22-.086-.42-.223-.573.137-.152.223-.351.223-.572V9.439c0-.22-.086-.42-.223-.572.137-.153.223-.352.223-.573V6.15c0-.22-.086-.42-.223-.572.137-.152.223-.352.223-.573V2.861zm-.859-.286c.159 0 .287.129.287.287v2.143c0 .158-.128.287-.287.287h-1.233V2.574h1.233zm.287 3.576v2.143c0 .158-.129.287-.287.287h-1.233V5.863h1.233c.158 0 .287.128.287.287zm0 3.289v2.143c0 .158-.129.287-.287.287h-1.233V9.152h1.233c.158 0 .287.128.287.287zM.69 21.246V1.634c0-.586.477-1.062 1.062-1.062h1.083v21.736H1.753c-.585 0-1.062-.476-1.062-1.062zm16.54 0c0 .586-.476 1.062-1.062 1.062H3.41V.572h12.76c.586 0 1.063.476 1.063 1.062v19.612zm2.092-6.375c0 .158-.129.287-.287.287h-1.233V12.44h1.233c.159 0 .287.128.287.286v2.144z"/>
        <path d="M6.885 8.844h1.761v1.761c0 .158.128.286.286.286h2.674c.158 0 .286-.128.286-.286V8.844h1.761c.159 0 .286-.128.286-.286V5.885c0-.158-.127-.286-.286-.286h-1.761V3.837c0-.158-.128-.286-.286-.286H8.932c-.158 0-.286.128-.286.286v1.762H6.885c-.158 0-.286.128-.286.286v2.673c0 .158.128.286.286.286zm.286-2.673h1.761c.159 0 .286-.128.286-.286V4.123h2.102v1.762c0 .158.128.286.286.286h1.761v2.101h-1.761c-.158 0-.286.128-.286.286v1.761H9.218V8.558c0-.158-.127-.286-.286-.286H7.171V6.171zM14.845 13.514H5.693c-.158 0-.286.128-.286.286v5.362c0 .158.128.286.286.286h9.152c.158 0 .286-.128.286-.286V13.8c0-.159-.128-.287-.286-.287zm-.286 5.362H5.98v-4.79h8.58v4.79z"/>
        <path d="M7.981 16.016h4.576c.158 0 .286-.128.286-.286 0-.158-.128-.286-.286-.286H7.981c-.158 0-.286.128-.286.286 0 .158.128.286.286.286zM7.981 17.637h4.576c.158 0 .286-.128.286-.286 0-.158-.128-.286-.286-.286H7.981c-.158 0-.286.128-.286.286 0 .158.128.286.286.286z"/>
    </g>
</svg>
