<svg xmlns="http://www.w3.org/2000/svg" width="27" height="24" viewBox="0 0 27 24">
    <g fill="none" fill-rule="evenodd" opacity=".668">
        <g fill="#000" fill-rule="nonzero">
            <path d="M25.381 9.877h-.388V4.562c0-1.358-1.105-2.463-2.463-2.463H11.85L4.643.041 4.638.039 4.63.037 4.618.035 4.598.03 4.58.028 4.56.026H4.52l-.016.001c-.008 0-.015.002-.023.003l-.014.002-.023.005-.014.004-.022.007-.013.004-.022.01-.011.005L4.34.08l-.01.007c-.008.004-.015.008-.021.013L4.3.107l-.02.015-.01.01-.016.016-.01.011-.014.018-.01.013-.012.017L4.2.223 4.19.24l-.007.018-.008.018-.006.02-.005.012-.001.006L4.16.32 3.715 2.1H2.463C1.108 2.1.005 3.2 0 4.553V18.043c0 .215.175.39.389.39.215 0 .389-.175.389-.39V6.356c.44.414 1.034.67 1.685.67h20.068c.928 0 1.684.756 1.684 1.684v2.723h-4.279c-.012 0-.023 0-.034.002-.012 0-.025.002-.037.005h-.005l-.03.008-.007.002-.025.009-.01.003-.021.01-.014.007-.016.009-.017.01-.01.008-.02.015-.008.007-.02.019-.011.011-.015.017-.023.03v.001l-2.074 3.111c-.014.022-.027.045-.036.069l-.01.027c0 .003-.002.005-.003.008l-.007.029-.002.007-.004.027-.001.01-.002.022v.033c0 .007 0 .015.002.022l.001.01.004.028.002.007.007.03.003.007.01.027c.01.024.022.047.036.069l2.074 3.11c.009.013.018.025.028.036l.01.011.02.021.012.012.024.018.01.008.037.022.01.005c.01.005.02.01.03.013l.012.005.03.01.013.002c.01.003.021.005.032.006l.012.002c.013.002.027.002.04.002H24.216v2.723c0 .93-.756 1.686-1.685 1.686H2.463c-.929 0-1.685-.756-1.685-1.686V19.6c0-.214-.174-.389-.389-.389-.214 0-.389.175-.389.39v1.567c.007 1.353 1.11 2.451 2.463 2.451H22.53c1.358 0 2.462-1.104 2.463-2.462v-2.723h.388c.644 0 1.167-.524 1.167-1.167v-6.222c0-.644-.524-1.167-1.167-1.167zM4.817.9l6.862 1.96 4.6 1.315H3.999L4.816.899zm19.398 6.018c-.441-.415-1.034-.67-1.685-.67H2.463c-.929 0-1.685-.756-1.685-1.685s.756-1.685 1.685-1.685h1.058l-.324 1.297h-.734c-.214 0-.389.174-.389.389 0 .214.175.389.39.389H22.01c.214 0 .389-.175.389-.39 0-.214-.175-.388-.39-.388h-2.9L14.57 2.877h7.959c.929 0 1.685.756 1.685 1.685v2.355zm1.555 10.349c0 .214-.174.389-.389.389h-5.236l-1.815-2.722 1.815-2.722h5.236l.016-.001c.13-.002.256-.025.373-.067v5.123zm-.389-5.834h-.388v-.777h.388c.215 0 .389.174.389.389 0 .214-.174.388-.389.388z"/>
            <path d="M21.492 13.507c-.786 0-1.426.64-1.426 1.426 0 .786.64 1.426 1.426 1.426.786 0 1.426-.64 1.426-1.426 0-.786-.64-1.426-1.426-1.426zm0 2.074c-.357 0-.648-.29-.648-.648 0-.358.29-.648.648-.648.358 0 .648.29.648.648 0 .357-.29.648-.648.648z"/>
        </g>
        <text fill="#373737" font-family="SFProDisplay-Semibold, SF Pro Display" font-size="11.799" font-weight="500">
            <tspan x="7.079" y="18.866">S</tspan>
        </text>
    </g>
</svg>
