<svg xmlns="http://www.w3.org/2000/svg" width="362" height="201" viewBox="0 0 362 201">
    <g fill="none" fill-rule="evenodd">
        <g transform="translate(-1) translate(45)">
            <ellipse cx="156.62" cy="193.449" fill="#D30B0B" fill-opacity=".992" rx="99.88" ry="3.96"/>
            <path fill="#FFD7D7" d="M52.816 200.81c.327-23.617-4.707-37.292-15.102-41.025-15.593-5.6-50.34-24.234-32.966-46.039C22.12 91.941 79.7 94.857 68.998 77.61 58.295 60.361 44.814 34.552 58.295 26.491c27.698-16.563 58.442 1.248 75.365-.485 16.923-1.733 26.893-29.13 62.797-25.71 21.233 2.022-14.247 37.036 40.488 27.673 54.735-9.362 65.907 9.286 54.735 27.506-11.173 18.221-50.448 49.626-40.328 67.491 10.121 17.865 25.407 14.867 32.868 27.119 4.973 8.168 3.958 25.076-3.046 50.724H52.816z" opacity=".04"/>
            <g transform="translate(56.74 9.09)">
                <g>
                    <path fill="#E6F0F9" d="M0 0H67.514V14.784H0z" transform="translate(119.75 100.214)"/>
                    <path fill="#AEDFF8" d="M0 0H67.514V2.957H0z" transform="translate(119.75 100.214)"/>
                </g>
                <path stroke="#304B9B" stroke-width="1.478" d="M2.435 100.32L2.435 182.088"/>
                <path stroke="#304B9B" stroke-width=".986" d="M161.638 115.984L161.638 182.088M186.278 115.984L186.278 182.088"/>
                <path fill="#E3F0F7" d="M0 94.794H189.728V100.215H0z"/>
                <path fill="#72CDF9" d="M161.638 94.794H187.264V114.999H161.638z" opacity=".484"/>
                <path stroke="#7C86CA" stroke-width=".55" d="M122.557 100.214L122.557 112.697 158.769 112.697 158.769 100.214"/>
                <path stroke="#7C86CA" stroke-width=".986" d="M132.862 105.723L145.869 105.635"/>
                <path fill="#EAF1F7" d="M66.162 169.022v3.252c.258.653.977 1.117 2.158 1.393 1.181.275 2.23.438 3.149.488l.502-1.116 4.443.317v-2.23l-10.252-2.104z"/>
                <path stroke="#7C86CA" stroke-width=".55" d="M135.808 106.061L135.808 108.666 145.386 108.666 145.386 105.723"/>
                <path fill="#A4B6C4" d="M78.932 172.54l1.7 2.689c2.171.282 3.929-.166 5.272-1.345 1.344-1.179 2.347-2.279 3.009-3.3v-1.542h-.947v-3.591l-9.034 7.088z"/>
                <path fill="#946052" d="M66.162 167.58v1.442c1.89 1.043 3.665 1.673 5.324 1.891 1.658.219 3.059.27 4.2.152l-.97-1.503-8.38-2.605-.174.623z"/>
                <path fill="#234ABF" d="M56.397 141.851c4.577 3.31 7.51 6.807 8.802 10.495 1.29 3.687 5.216 10.585 11.775 20.693 3.29-.186 5.759-1.169 7.407-2.95 1.648-1.781 3.039-3.481 4.17-5.1L71.47 133.234l-12.48 3.165-2.592 5.452z"/>
                <path fill="#0C31A1" d="M61.675 146.33c2.945-2.004 5.118-4.297 6.518-6.878 1.401-2.581 2.493-4.654 3.276-6.218l-15.767 8.159c1.663 1.131 2.926 2.027 3.787 2.687.862.66 1.59 1.41 2.186 2.25z"/>
                <path fill="#2580DD" d="M62.915 112.697l22.569 1.437c5.44.843 7.311 4.463 5.616 10.861-1.695 6.398-5.184 21.406-10.465 45.025-4.716.239-8.37-.145-10.961-1.152-2.592-1.007-4.491-1.986-5.699-2.937l7.105-31.23-8.165-22.004z"/>
                <path fill="#C77D74" d="M33.783 55.755l.702-5.433 3.517-18.921 14.154 2.603c1.7 2.998 2.359 5.875 1.978 8.632-.381 2.757-.226 4.04.466 3.848.709.953.96 1.616.751 1.987-.207.372-.458.586-.751.643H52.76v3.664c-.27 1.072-.753 1.836-1.449 2.292-.696.457-1.297.786-1.805.99l-2.543-.63-.356 1.626-12.825-1.301z"/>
                <path fill="#2380E0" d="M31.453 58.95c.032-1.49.318-2.457.86-2.9.54-.445.94-.737 1.198-.877 2.303-.31 4.364-.464 6.184-.464 1.82 0 4.473.796 7.96 2.386v3.27L31.452 58.95z"/>
                <path fill="#EAF1F7" d="M17.62 88.048c-1.034-10.758.088-17.713 3.366-20.866 3.278-3.152 6.569-5.835 9.87-8.049 1.944-.702 4.9-1.053 8.866-1.053 3.966 0 6.302.351 7.007 1.053 1.813 2.444 3.624 3.667 5.432 3.667 2.713 0 5.059.865 6.324 3.022 1.265 2.157 5.13 10.85 7.67 13.012 2.541 2.163 9.81 9.004 10.462 10.28.435.85.916 2.743 1.443 5.68H64.737l-9.109-7.212c-3.068 4.664-3.59 9.896-1.568 15.696 2.022 5.8 6.948 9.824 14.777 12.072 3.935 1.41 5.902 4.841 5.902 10.29v5.427l-35.017-2.268L17.62 88.048z"/>
                <path fill="#A1DEFB" d="M13.657 95.18c-.519-2.79-.649-4.547-.39-5.27.39-1.084 1.847-3.553 4.07-3.553 2.221 0 8.663.755 13.343.755s10.392-1.181 11.811-1.181c1.419 0 4.468-.382 6.934 4.26 1.644 3.095 3.9 11.895 6.768 26.4 1.375 5.758 3.922 9.643 7.642 11.655 3.72 2.012 7.637 2.849 11.753 2.509 1.175.17 1.603.532 1.283 1.09-.479.834-1.057 1.39-2.824 1.39-1.178 0-1.85.149-2.016.448-6.29 5.764-13.984 8.647-23.08 8.647-13.647 0-19.777.588-26.293-5.494-4.343-4.054-6.51-8.411-6.501-13.07.605-8.054.605-13.699 0-16.935-.605-3.236-1.438-7.12-2.5-11.65z"/>
                <path stroke="#458EB1" stroke-width=".55" d="M14.32 91.8c.491-2.883 1.867-4.104 4.127-3.665 3.391.659 4.901 1.121 10.506 1.121 3.737 0 7.732-.373 11.987-1.121 2.652-.058 4.406.538 5.263 1.789.857 1.25 1.358 2.158 1.503 2.721M51.782 110.6c.783 9.887 3.677 16.134 8.681 18.739 5.004 2.605 9.532 3.904 13.584 3.895"/>
                <path stroke="#2949A7" stroke-width=".55" d="M26.881 138.962L27.447 182.088M29.866 140.488L18.597 182.088M39.036 142.345L27.447 182.088M44.243 142.345L55.03 182.088 53.68 182.088 57.119 182.088M57.119 141.851L68.232 182.088 66.442 182.088 69.674 182.088"/>
                <path stroke="#2949A7" stroke-width=".986" d="M24.85 158.736L61.675 158.736"/>
                <path stroke="#2949A7" stroke-width=".55" d="M16.535 182.088L20.302 182.088M25.724 182.088L29.322 182.088"/>
                <path stroke="#76AFD2" stroke-width=".55" d="M28.412 61.174L32.793 60.692M40.371 60.692L49.507 61.866M48.429 78.351L57.184 87.07 48.099 82.711M58.907 110.6c.181 1.287.062 2.828-.357 4.624-.419 1.796-.713 2.947-.881 3.454M61.36 112.534c.181 1.288.062 2.83-.357 4.625-.419 1.796-.713 2.947-.881 3.453M67.163 114.639c2.088 1.074 3.132 2.42 3.132 4.039 0 2.426-.194 3.47-1.137 3.914-.943.445-.888.586-1.995.586-.738 0-1.8-.42-3.188-1.261M73.662 93.562c.12-.659.308-1.607.565-2.845.258-1.237-.069-2.835-.98-4.794 1.836 1.375 2.862 2.74 3.078 4.094.216 1.355.3 2.756.253 4.204"/>
                <path fill="#423E3E" stroke="#271E25" stroke-width=".55" d="M87.966 165.45l4.643-5.682c.95-.812 1.985-1.082 3.106-.81 1.121.27 2.333.876 3.636 1.816 1.214 1.823 1.214 3.544 0 5.163-1.215 1.618-3.079 4.508-5.592 8.67l-1.15-.452v2.293l-2.106 2.295c-3.305 1.263-5.498 1.263-6.58 0-1.083-1.262-2.18-2.406-3.292-3.432 2.141.228 3.899-.248 5.273-1.427 1.375-1.179 2.378-2.279 3.009-3.3v-1.562h-.947v-3.571z"/>
                <path fill="#000" fill-opacity=".443" d="M81.932 176.173c.333-.184 1.339-.184 3.017 0 1.68.183 3.15.784 4.412 1.802l-1.935 1.07-3.799-1.07-1.695-1.802z"/>
                <path stroke="#271E25" stroke-width=".55" d="M88.913 169.042c1.756.3 3.135-.123 4.135-1.27 1-1.145 2.335-2.92 4.003-5.325 1.014-1.456.827-2.654-.561-3.592"/>
                <path fill="#504B52" stroke="#3C353C" stroke-width=".55" d="M65.17 172.115l-2.255 8.606v1.367l.67.815h7.884l1.005-.815.857.815h17.471c.083-3.596-.668-5.394-2.25-5.394-2.375 0-8.845-.306-10.492-1.83-1.097-1.016-1.646-1.79-1.646-2.323l-4.443-.317-.502 1.116c-1.278.23-2.362.153-3.254-.228-.891-.38-1.575-.985-2.053-1.812h-.992z"/>
                <path stroke="#3C353C" stroke-width=".55" d="M62.915 181.418L90.808 181.418M71.469 174.607c.933 1.665 2.207 2.632 3.823 2.902s6.45.53 14.502.78"/>
                <path fill="#C77D74" d="M76.108 88.48H87.88c2.764.248 4.235.248 4.412 0 .266-.372 1.575-2.199 2.073-2.199s2.438-1.544 3.097-1.544c.659 0 1.172-.228 2.906 1.225 1.156.969 2.08 1.617 2.772 1.946 1.068 1.599 1.684 2.841 1.848 3.728.165.886.165 1.455 0 1.706h-.533l-2.518-2.627h-.705l-3.77 2.162H95.6l-4.562 1.917-12.978.125c-.38-1.929-.741-3.271-1.086-4.027-.345-.756-.634-1.56-.866-2.412z"/>
                <path fill="#55AD92" d="M92.248 90.779c.42.438.63.925.63 1.462 0 .537-.367 1.264-1.102 2.18l3.917-1.392c.566-1.185.653-2.016.26-2.493-.395-.476-.612-.896-.652-1.259l-3.053 1.502zM90.61 87.228c-1.204-.18-1.987-.097-2.348.245-.361.343-.698.666-1.01.97h2.208l1.15-1.215z"/>
                <path fill="#FFF" d="M88.688 87.987L88.688 88.809 91.631 90.892 95.759 89.277 95.759 88.533z"/>
                <path fill="#262453" d="M88.688 87.987L91.776 90.079 95.759 88.533 92.687 86.426z"/>
                <path fill="#4B2537" d="M34.008 54.426c.794-.889 2.246-1.23 4.357-1.025 2.11.206 4.19.548 6.237 1.025l1.575-4.16c-1.827-2.882-2.352-4.895-1.575-6.038 1.166-1.714 2.953-1.022 3.475 0 .348.682.825 1.558 1.43 2.63-.162-2.373.119-4.016.84-4.929.722-.912 1.213-1.517 1.471-1.812.05-1.247-.224-2.422-.823-3.526-.598-1.103-.886-1.751-.864-1.944 1.513.588 2.527.882 3.042.882.515 0 1.18-.294 1.993-.882-.253-1.69-1.207-2.989-2.863-3.898-2.483-1.362-5.974-2.07-7.7-2.07-1.728 0-1.363.399-2.366 0-1.003-.399-.519-2.263-4.84-1.86-2.88.27-4.58 2.119-5.099 5.547-2.692.629-3.934 2.037-3.728 4.225.206 2.189 1.147 4.093 2.823 5.714-.094 2.533.318 5.015 1.237 7.448.919 2.432 1.378 3.99 1.378 4.673z"/>
                <path stroke="#4B2537" stroke-width=".55" d="M46.456 56.4L47.188 53.19M46.036 46.519c-.28-.917-.28-1.456 0-1.617.42-.24.812-.116 1.152.314.227.287.379.68.455 1.182M53.519 48.957L53.519 48.131" opacity=".54"/>
                <path stroke="#ED3C64" stroke-width=".55" d="M53.912 46.243l1.51.526.333-3.094-8.1-.514c-2.035-.405-3.053.095-3.053 1.5s.098 2.21.293 2.415"/>
                <g>
                    <path fill="#74ADCB" d="M54.762 0c1.43 1.124 2.146 2.575 2.146 4.351 0 1.777-.715 12.465-2.146 32.066H1.214L0 35.204 54.762 0z" transform="translate(76.974 50.72)"/>
                    <path fill="#DD3E3E" stroke="#20214D" stroke-width="1.971" d="M3.185 0.876L1.214 34.005 51.287 34.005 53.584 0.876z" transform="translate(76.974 50.72)"/>
                </g>
                <g transform="translate(59.136)">
                    <path fill="#FFF" fill-rule="nonzero" d="M1.65 35.056L.494 51.97c-.045.66.185 1.308.637 1.791.45.483 1.082.757 1.743.757h22.866c1.232-.002 2.26-.941 2.375-2.168l1.538-16.918c.06-.667-.162-1.33-.614-1.823-.452-.495-1.092-.776-1.762-.774H4.031c-1.255-.003-2.297.97-2.38 2.222z"/>
                    <path fill="#5BCCA2" fill-rule="nonzero" d="M3.775 48.11s2.464-7.884 3.942-7.884c1.479 0 1.479 4.435 2.464 4.435.986 0 .493-6.406 3.943-6.406 0 0 1.478-.986 2.956 6.406 1.479 7.392.986-4.435 2.957-4.435 1.971 0 .493 5.42 1.971 6.406 1.479.986 3.943 1.479 3.943 1.479H3.775"/>
                    <path fill="#1976E5" fill-rule="nonzero" d="M3.775 48.11H25.95s-5.421 0-7.392-2.956c-1.971-2.957-1.971-3.943-2.957-3.943-.986 0-1.971 3.943-3.45 3.943-1.478 0-1.97-2.957-3.45-2.957-1.478 0-4.927 5.914-4.927 5.914z"/>
                    <path stroke="#000" stroke-width=".55" d="M3.775 43.183L3.775 42.69 5.007 42.69" opacity=".504"/>
                    <path stroke="#000" stroke-dasharray="2.188" stroke-width=".55" d="M7.195 42.69L23.625 42.69" opacity=".504"/>
                    <path stroke="#000" stroke-width=".55" d="M24.719 42.69L25.951 42.69" opacity=".504"/>
                    <path stroke="#000" stroke-width=".55" d="M6.732 51.067L11.66 51.067M16.095 51.067L21.023 51.067"/>
                    <circle cx="4.268" cy="50.575" r="1" fill="#0064E3" fill-rule="nonzero"/>
                    <circle cx="13.877" cy="50.821" r="1" fill="#5BCCA2" fill-rule="nonzero"/>
                    <path fill="#FFF" fill-rule="nonzero" d="M17.903 18.543H36.67c.344 0 .671.147.9.404.229.257.337.6.298.941l-.705 5.968c-.068.605-.579 1.063-1.188 1.064h-18.77c-.345.001-.673-.145-.902-.403-.23-.257-.337-.6-.296-.942l.705-5.968c.068-.607.582-1.066 1.192-1.064z"/>
                    <path fill="#EAF7F8" fill-rule="nonzero" d="M18.559 21.007H19.559V25.442H18.559z"/>
                    <path fill="#FFBC00" fill-rule="nonzero" d="M18.559 23.333H19.559V25.442H18.559z"/>
                    <path fill="#EAF7F8" fill-rule="nonzero" d="M21.107 21.007H22.107V25.442H21.107z"/>
                    <path fill="#FFBC00" fill-rule="nonzero" d="M21.107 23.756H22.107V25.441H21.107z"/>
                    <path fill="#EAF7F8" fill-rule="nonzero" d="M23.511 21.007H24.511V25.442H23.511z"/>
                    <path fill="#FFBC00" fill-rule="nonzero" d="M23.511 22.731H24.511V25.441000000000003H23.511z"/>
                    <path fill="#EAF7F8" fill-rule="nonzero" d="M25.951 21.007H26.951V25.442H25.951z"/>
                    <path fill="#FFBC00" fill-rule="nonzero" d="M25.951 23.756H26.951V25.441H25.951z"/>
                    <path fill="#EAF7F8" fill-rule="nonzero" d="M28.356 21.007H29.356V25.442H28.356z"/>
                    <path fill="#FFBC00" fill-rule="nonzero" d="M28.356 22.111H29.356V25.442H28.356z"/>
                    <path fill="#EAF7F8" fill-rule="nonzero" d="M30.761 21.007H31.761V25.442H30.761z"/>
                    <path fill="#FFBC00" fill-rule="nonzero" d="M30.761 24.087H31.761V25.442H30.761z"/>
                    <path fill="#FFF" fill-rule="nonzero" d="M43.593 21.253h18.465c.388-.001.757.164 1.014.453.258.29.378.675.332 1.06l-.666 5.667c-.08.683-.658 1.197-1.345 1.198H42.928c-.386-.002-.754-.168-1.01-.457-.257-.288-.379-.672-.336-1.056l.67-5.672c.08-.68.657-1.193 1.341-1.193z"/>
                    <path fill="#B3D5E4" fill-rule="nonzero" d="M43.036 25.802h2.957s.118-1.479.493-1.208c.374.271.493 1.444 1.064 1.208.572-.237.986-1.725 1.774-1.72.789.005.887 1.345 1.651 1.355.764.01 2.78.167 2.957 0 .177-.168.06-.655.946-.68.887-.025.646.61 1.355.68.591.03 1.184.03 1.774 0 .414 0 .77-.833 2.184-.68 1.414.153.236.926 1.715 1.074l-18.87-.03z"/>
                    <path fill="#B3D5E4" fill-rule="nonzero" d="M43.036 25.866h2.957s.118 1.478.493 1.207c.374-.271.493-1.444 1.064-1.207.572.236.986 1.724 1.774 1.72.789-.005.887-1.346 1.651-1.356.764-.01 2.78-.167 2.957 0 .177.168.06.656.946.675.887.02.646-.606 1.355-.675.591-.03 1.184-.03 1.774 0 .414 0 .77.833 2.184.675 1.414-.157.236-.921 1.715-1.069l-18.87.03z"/>
                    <path fill="#52CAF9" fill-rule="nonzero" d="M43.248 22.13H44.568999999999996V23.451H43.248z"/>
                    <path fill="#FFF" fill-rule="nonzero" d="M42.06 45.257h18.466c.386 0 .755.166 1.012.455.257.289.378.674.333 1.058l-.665 5.672c-.083.68-.66 1.193-1.346 1.193H41.395c-.386 0-.753-.165-1.01-.453-.257-.288-.379-.672-.335-1.055l.67-5.672c.08-.68.655-1.195 1.34-1.198z"/>
                    <path fill="#B3D5E4" fill-rule="nonzero" d="M41.504 49.81h2.956s.119-1.478.493-1.202c.375.276.493 1.44 1.065 1.203.571-.237.985-1.725 1.774-1.72.788.005.862 1.365 1.626 1.365.764 0 2.78.172 2.957 0 .177-.172.059-.655.946-.675.887-.02.646.601 1.38.675.59.033 1.183.033 1.774 0 .414 0 .769-.828 2.183-.675 1.414.153.237.926 1.715 1.074l-18.87-.044z"/>
                    <path fill="#B3D5E4" fill-rule="nonzero" d="M41.504 49.875h2.956s.119 1.478.493 1.202c.375-.276.493-1.439 1.065-1.202.571.236.985 1.725 1.774 1.72.788-.005.887-1.35 1.65-1.355.764-.005 2.78-.173 2.957 0 .178.172.06.655.947.675.887.02.645-.611 1.355-.675.59-.033 1.183-.033 1.774 0 .414 0 .769.832 2.183.675 1.414-.158.237-.927 1.715-1.07l-18.87.03z"/>
                    <path fill="#52CAF9" fill-rule="nonzero" d="M41.716 46.139H43.037V47.46H41.716z"/>
                    <path fill="#FFF" fill-rule="nonzero" d="M42.06 56.848h18.466c.386 0 .755.166 1.012.455.257.289.378.674.333 1.058l-.665 5.682c-.083.68-.66 1.192-1.346 1.192H41.395c-.382 0-.746-.163-1.002-.446-.256-.283-.38-.662-.343-1.042l.67-5.672c.066-.692.645-1.223 1.34-1.227z"/>
                    <path fill="#B3D5E4" fill-rule="nonzero" d="M60.348 61.411h-2.957s-.118-1.478-.492-1.207c-.375.271-.493 1.444-1.065 1.207-.571-.236-.985-1.724-1.774-1.72-.788.005-.838 1.346-1.626 1.356-.789.01-2.78.167-2.957 0-.177-.168-.059-.656-.941-.675-.882-.02-.65.606-1.36.675-.591.03-1.183.03-1.774 0-.414 0-.764-.833-2.183-.675-1.42.157-.237.926-1.715 1.069l18.844-.03z"/>
                    <path fill="#B3D5E4" fill-rule="nonzero" d="M60.348 61.475h-2.957s-.118 1.479-.492 1.203c-.375-.276-.493-1.44-1.065-1.203-.571.237-.985 1.725-1.774 1.715-.788-.01-.882-1.345-1.65-1.355-.77-.01-2.78-.167-2.958 0-.177.168-.059.656-.94.68-.883.025-.651-.61-1.36-.68-.71-.069-1.361 0-1.775 0-.414 0-.764.833-2.183.68-1.42-.153-.237-.926-1.715-1.074l18.87.034z"/>
                    <path fill="#52CAF9" fill-rule="nonzero" d="M41.716 57.735H43.037V59.056H41.716z"/>
                    <path fill="#FFF" fill-rule="nonzero" d="M40.198 68.458h18.445c.387 0 .755.166 1.012.455.257.289.379.674.334 1.058l-.666 5.672c-.082.681-.66 1.193-1.345 1.193H39.532c-.387.001-.756-.164-1.014-.453-.257-.29-.378-.675-.33-1.06l.664-5.662c.078-.685.657-1.202 1.346-1.203z"/>
                    <path fill="#ED3A4A" fill-rule="nonzero" d="M49.28 72.228v1.627c-.257.39-.67.65-1.133.714-.883 0-1.434-.986-2.144-1.064-.71-.08-.986-.128-1.42-.133-.433-.005-.147 1.577-1.566 1.419-1.42-.158-1.917-1.602-3.396-1.75 1.479-.143 1.971-1.591 3.396-1.749 1.424-.158 1.153 1.434 1.567 1.424.414-.01.71-.069 1.419-.138.71-.069 1.261-1.08 2.144-1.06.463.06.877.32 1.133.71z"/>
                    <path fill="#B3D5E4" fill-rule="nonzero" d="M53.316 73.022H49.28v-.799c.192.227.345.424.493.43h.754c.754 0 .399-1.124 1.168-1.13.768-.004.98 1.474 1.621 1.499zM58.486 73.012h-5.14c.63 0 .926-1.533 1.478-1.479.439 0 1.562 1.479 1.562 1.479h2.1zM49.817 73.061h3.509c-.646 0-.823 1.508-1.587 1.479-.764-.03-.4-1.124-1.168-1.134-.769-.01-.537 0-.754 0-.158 0-.31.197-.493.424v-.769h.493zM58.486 73.076h-2.11s-1.123 1.478-1.562 1.478c-.547.025-.843-1.478-1.478-1.478h5.15z"/>
                    <path fill="#52CAF9" fill-rule="nonzero" d="M39.853 69.336H41.174V70.657H39.853z"/>
                    <path fill="#FFF" fill-rule="nonzero" d="M43.593 33.686h18.465c.38 0 .744.16 1 .442.256.281.382.658.346 1.037l-.666 5.672c-.068.693-.648 1.223-1.345 1.227H42.928c-.386-.002-.754-.168-1.01-.456-.257-.289-.379-.673-.336-1.057l.67-5.672c.08-.68.657-1.192 1.341-1.193z"/>
                    <path fill="#B3D5E4" fill-rule="nonzero" d="M43.036 38.21h2.957s.118-1.478.493-1.202c.374.276.493 1.439 1.064 1.202.572-.236.912-2.552 1.676-2.552.764 0 .985 2.188 1.725 2.197.739.01 2.197 0 2.464 0 .492 0 .6-1.434 1.478-1.478.877-.044 1.232 1.39 1.942 1.478.388.031.779.031 1.168 0 .414 0 .034-.822 1.478-.665 1.444.158.986.912 2.464 1.06l-18.909-.04z"/>
                    <path fill="#B3D5E4" fill-rule="nonzero" d="M43.036 38.274h2.957s.118 1.479.493 1.208c.374-.271.493-1.444 1.064-1.208.572.237.937 2.568 1.7 2.563.764-.005.986-2.188 1.725-2.198.74-.01 2.198 0 2.464 0 .493 0 .601 1.434 1.479 1.478.877.045 1.232-1.384 1.941-1.478.389-.03.78-.03 1.168 0 .414 0 .035.818 1.479.665 1.444-.152.985-.916 2.464-1.06l-18.934.03z"/>
                    <path fill="#52CAF9" fill-rule="nonzero" d="M43.248 34.539H44.568999999999996V35.86H43.248z"/>
                    <path fill="#261E55" fill-rule="nonzero" d="M49.3 68.956H50.3V76.33800000000001H49.3z"/>
                    <g>
                        <path fill="#FFF" fill-rule="nonzero" d="M29.514 44.569H2.82c-.78.001-1.524-.32-2.057-.887-.533-.567-.808-1.33-.758-2.107L2.414 2.649C2.504 1.161 3.738.001 5.228 0h26.7c.778.002 1.52.325 2.052.891.533.567.809 1.327.763 2.103l-2.408 38.932c-.098 1.487-1.332 2.643-2.821 2.643z" transform="translate(73.744)"/>
                        <path fill="#52CAF9" fill-rule="nonzero" d="M5.201 4.105H7.754V5.105H5.201zM8.747 4.105H11.3V5.105H8.747zM12.3 4.105H14.853000000000002V5.105H12.3zM2.579 35.772H5.132V36.772H2.579zM6.132 35.772H8.684999999999999V36.772H6.132zM9.685 35.772H12.238V36.772H9.685zM2.579 37.911H5.132V38.911H2.579zM6.132 37.911H8.684999999999999V38.911H6.132zM9.685 37.911H12.238V38.911H9.685zM27.623 4.105H32.494V5.105H27.623zM32.991 4.105H34.267V5.105H32.991zM27.623 5.65H29.617V6.65H27.623zM30.052 5.65H32.046V6.65H30.052z" transform="translate(73.744)"/>
                        <path stroke="#EB0B31" stroke-width=".616" d="M17.95 9.39c-.061-.571-.23-1.126-.496-1.635-.283-.733-.333-1.535-.145-2.298.211-.76.761-1.381 1.49-1.683.808-.296 1.715-.103 2.332.497 1.076 1.22-.159 3.836-.228 3.987-.42.87-.89 1.277-.69 1.629.2.351.835.365 2.174.503.745.076.745.042.883.104.938.448 1.131 2.304 1.007 3.518-.09.897-.324 1.194-.124 1.835.2.642.517.69.8 1.38.204.61.27 1.259.193 1.898-.048 1.828-.483 2.4-.055 2.946.428.545.773.22 1.076.724.223.555.26 1.168.104 1.745.16.51-.015 1.067-.439 1.393-.423.327-1.005.355-1.458.07-.5-.304-.85-.805-.96-1.38-.344-1.055.056-1.455 0-2.546-.103-2.07-1.53-2.428-1.283-4.14.164-.549.261-1.116.29-1.69 0-.841-.296-1.724-.503-1.717-.042 0-.2.048-.387 1.455-.196 1.637-.228 3.29-.096 4.933.103 1.773.241 2.974.283 3.319.248 2.028.358 1.807.4 2.684.13 2.476-.814 3.015-.69 5.519.083 1.656.49 1.421.4 2.601-.173 2.284-1.732 3.45-1.145 4.678.31.655 1.007.938.876 1.297-.131.359-.649.345-1.014.38-.366.034-1.318.13-1.69-.373-.373-.504.089-.966.282-1.925.421-2.118-.952-2.822-.545-4.975.22-1.172.635-.952.752-2.028.117-1.076-.296-1.476-.883-4.001-.262-1.146-.31-1.629-.497-1.636-.186-.006-.317.373-1.097 2.85-.262.669-.458 1.362-.586 2.07-.124 1.476.538 1.655.586 3.063.062 2-1.241 2.394-.938 4.195.173 1.007.69 1.607.366 2.07-.221.275-.642.296-1.49.33-.69 0-1.311.049-1.45-.234-.137-.283.263-.51.56-1.304.119-.366.202-.743.248-1.125.207-1.552-.759-2.49-.807-4.084-.035-1.332.62-1.187.786-2.829.166-1.642-.497-1.897-.655-4.174-.1-1.235.012-2.479.33-3.677.296-.85.673-1.67 1.125-2.45 1.38-3.138.449-6.609.228-6.615-.11 0-.034.938-.552 2.58-.267.635-.497 1.284-.69 1.945-.29 1.311.083 1.38-.186 2.243-.455 1.435-1.628 1.38-1.897 2.76-.18.89.255 1.31-.124 1.841-.38.532-1.38.752-1.725.421-.345-.33-.049-1.007.407-2.49.324-1.07.338-.918.531-1.622.414-1.47.304-1.994.787-2.828.345-.6.503-.476.807-1 .545-.918.359-1.698.38-2.967 0-1.753.054-3.319 1.02-4.14.686-.542 1.542-.82 2.415-.786.504.034.938.193 1.27-.076.25-.284.371-.658.338-1.035h0z" transform="translate(73.744)"/>
                    </g>
                </g>
                <path fill="#F9FCFF" d="M140.052 90.143H151.386V94.08500000000001H140.052z"/>
                <path fill="#FFCD00" d="M151.858 90.862V89.86H123.54c-.655.19-.982.993-.982 2.407 0 1.414.193 2.297.581 2.651l28.72-.125v-.84h-10.02c-.506-.024-.76-.545-.76-1.564 0-1.019.15-1.528.45-1.528h10.33z"/>
                <path fill="#FCFDFF" d="M123.79 91.129H125.76100000000001V94.086H123.79z"/>
                <path fill="#FDFDFF" d="M138.081 91.129H139.081V94.086H138.081z"/>
                <circle cx="84.269" cy="59.312" r="1" fill="#30BDF4"/>
                <circle cx="83.283" cy="77.053" r="1" fill="#72B1FF"/>
                <circle cx="84.269" cy="65.226" r="1" fill="#3917A4"/>
                <path fill="#EBF2F8" d="M166.538 81.624L167.531 94.794 178.258 94.794 179.486 82.021z"/>
                <path fill="#E1EBF4" d="M167.15 88.209L178.77 88.209 178.604 90.932 167.283 90.932z"/>
                <path fill="#262453" d="M91.323 94.794l27.457.125c-.056-1.286-.9-1.93-2.534-1.93H94.864l-3.541 1.805z"/>
                <path fill="#FFF" d="M87.226 58.326H92.647V59.326H87.226zM93.632 58.326H96.589V59.326H93.632z"/>
                <path fill="#FFF" d="M92.646 59.312H95.603V60.312H92.646zM89.69 59.312H92.154V60.312H89.69zM87.226 59.312H89.197V60.312H87.226zM87.226 64.24H88.226V65.24H87.226zM89.197 64.24H92.647V65.24H89.197zM86.733 70.154H89.197V71.154H86.733zM86.733 71.632H90.183V72.632H86.733zM86.733 76.56H91.661V77.56H86.733zM86.24 78.038H88.211V79.038H86.24zM88.704 78.038H92.154V79.038H88.704zM92.646 78.038H95.11V79.038H92.646zM92.646 76.56H95.603V77.56H92.646zM91.168 71.632H93.13900000000001V72.632H91.168zM94.125 71.632H96.096V72.632H94.125zM90.182 70.154H92.153V71.154H90.182zM93.139 70.154H96.09599999999999V71.154H93.139zM91.168 65.718H93.13900000000001V66.718H91.168zM94.125 65.718H96.096V66.718H94.125zM93.632 64.24H96.096V65.24H93.632z"/>
                <path fill="#53D522" d="M171.06 81.897c2.526-.581 4.112-1.165 4.755-1.752.643-.586.916-2.444.818-5.572-2.047.036-3.47.983-4.267 2.841-.798 1.859-1.234 3.353-1.307 4.483zM168.792 81.624c-1.061-2.086-2.35-3.01-3.869-2.77-1.518.24-2.803 1.46-3.857 3.662 1.351-.951 2.478-1.427 3.38-1.427.903 0 2.351.178 4.346.535z"/>
                <path fill="#214F0F" d="M168.435 74.386c-.183-.404-.442-.679-.775-.824-.334-.146-.564-.21-.69-.196-.114 1.376-.647 2.064-1.596 2.064-.95 0-3.013-.057-6.19-.172.525-2.413 1.396-3.783 2.613-4.108 1.824-.49 3.35-.666 4.74.51.928.785 1.56 1.693 1.898 2.726z"/>
                <path fill="#36A708" d="M170.749 73.488c.172-.488.172-.915 0-1.281-.259-.55-2.563-1.809-1.957-4.678.404-1.912 1.716-3.59 3.935-5.036 1.739 2.411 2.212 4.425 1.42 6.042-1.187 2.426-2.334 2.97-2.542 3.672-.139.467-.285 1.194-.439 2.179l-.417-.898z"/>
                <path fill="#53D522" d="M169.027 80.667c-1.707-1.966-3.073-2.95-4.098-2.95-1.538 0-3.151.64-4.84.32-1.125-.213-2.275-.828-3.449-1.846 1.282-1.42 2.597-2.002 3.946-1.746 2.024.383 4.59 1.943 5.142 2.608.367.443 1.467 1.648 3.3 3.614z"/>
                <path fill="#35C200" d="M170.877 81.624c-1.928-1.734-3.031-3.013-3.31-3.838-.278-.825.384-2.582 1.986-5.27 1.773 1.024 2.558 2.542 2.355 4.554-.203 2.012-.547 3.53-1.03 4.554z"/>
                <path fill="#3A821D" d="M173.519 81.305c.826-1.285 1.633-2.02 2.419-2.208.786-.187 1.568-.187 2.345 0-.485 1.11-.998 1.756-1.537 1.937-.539.18-1.615.271-3.227.271z"/>
                <path fill="#204D0D" d="M164.93 70.955c-.549-.234-.922-.66-1.12-1.275-.198-.616-.346-1.305-.443-2.068 1.912-.257 3.16.085 3.743 1.029.584.943.834 2.479.749 4.607l-2.93-2.293z"/>
                <path fill="#36A708" d="M172.23 79.797c.859-1.648 1.289-2.88 1.289-3.695 0-1.223-1.001-4.114 0-5.328 1-1.214 1.564-1.75 2.382-2.042.545-.195 1.501-.377 2.87-.547-.346 1.575-1.07 2.937-2.175 4.085-1.656 1.721-2.703 3.262-2.703 3.547 0 .19-.555 1.517-1.664 3.98z"/>
                <path fill="#277E04" d="M173.304 78.328c.965-2.31 1.83-3.37 2.597-3.182 1.15.284 2.276 1.985 3.363 1.58.724-.27 2.224-1.429 4.499-3.478-1.239-1.992-2.665-2.816-4.277-2.474-2.419.514-3.428 1.73-3.986 2.474-.372.495-1.104 2.189-2.196 5.08z"/>
                <path fill="#36A708" d="M172.96 80.667c.954-2.14 1.8-3.34 2.54-3.597 1.109-.387 1.932-.457 2.483 0 .367.304.868.63 1.503.98-.166.368-.567.588-1.203.66-.955.107-2.918-.14-3.34.247-.283.258-.943.828-1.983 1.71z"/>
                <path fill="#204D0D" d="M177 80.131c.704-.525 1.294-.788 1.77-.788.477 0 1.249.132 2.315.394-.357 1.046-.832 1.568-1.425 1.568-.593 0-1.846.106-3.76.319l1.1-1.493z"/>
            </g>
        </g>
        <g>
            <g transform="translate(-1) translate(276.583 112.343) matrix(-1 0 0 1 82.917 65.567)">
                <g>
                    <path fill="#C6DDEC" d="M0 0h25.217v.857H24.16c.179 4.328-.156 7.454-1.005 9.378-.849 1.923-1.504 3.92-1.965 5.992H4.164C2.015 12.687.94 9.982.94 8.114V.857L0 0z" transform="matrix(-1 0 0 1 39.424 0)"/>
                    <path fill="#97C5DF" d="M0 0h7.03c-.453 3.093-.453 5.572 0 7.437.453 1.865 1.748 4.795 3.884 8.79h-6.75c-2.12-3.283-3.18-5.763-3.18-7.441V.932L0 0z" transform="matrix(-1 0 0 1 39.424 0)"/>
                </g>
                <rect width="42.504" height="3.08" x=".328" y="16.074" fill="#B1D5EB" rx="1.54"/>
            </g>
            <g>
                <path fill="#FFF" d="M3.893 56.496C.427 35.964-.555 22.526.949 16.183 2.453 9.84 4.585 4.446 7.344 0c4.09 16.095 5.704 26.113 4.841 30.054-.863 3.94-1.601 12.755-2.213 26.442H3.893z" transform="translate(-1) translate(276.583 112.343) translate(46.13 9.071)"/>
                <path fill="#FF8E76" d="M6.893 56.496c-2.458-17.11-3.458-28.96-3-35.549C4.352 14.357 5.502 7.375 7.344 0 2.171 9.243-.188 18.29.267 27.14c.455 8.85 1.625 18.635 3.51 29.356h3.116z" transform="translate(-1) translate(276.583 112.343) translate(46.13 9.071)"/>
                <path stroke="#FFF" stroke-width=".5" d="M4.547 14.327L2.56 10.931M3.554 24.687L0 23.599M4.547 38.654L.949 36.728" transform="translate(-1) translate(276.583 112.343) translate(46.13 9.071)"/>
            </g>
            <g>
                <path stroke="#FF8E76" stroke-width=".616" d="M.19 60.023c-.74-20.954.685-35.29 4.275-43.01C8.055 9.295 11.816 3.624 15.749 0c1.565 9.677 1.905 18.505 1.02 26.485-.883 7.979-3.19 19.158-6.92 33.538H.19z" transform="translate(-1) translate(276.583 112.343) translate(55.931 5.544)"/>
                <path fill="#FF8E76" d="M0 60.023C.005 37.016 1.403 22.96 4.194 17.854c2.79-5.105 4.874-8.958 6.252-11.557 1.215 13.904 1.215 24.45 0 31.64-1.214 7.19-2.79 14.693-4.728 22.51L0 60.024z" transform="translate(-1) translate(276.583 112.343) translate(55.931 5.544)"/>
                <path stroke="#FFF" stroke-width=".5" d="M2.596 60.023c1.32-19.696 2.614-31.827 3.882-36.392 1.268-4.565 2.248-8.842 2.94-12.83M6.582 22.279L6.582 13.894M5.084 30.823L10.81 28.236M4.056 41.706L9.419 40.59M3.134 53.254L6.007 53.843" transform="translate(-1) translate(276.583 112.343) translate(55.931 5.544)"/>
            </g>
            <path stroke="#FF8E76" stroke-width=".616" d="M47.079 65.567c-6.337-14.094-9.653-23.88-9.949-29.356-.296-5.477.228-11.2 1.571-17.172 6.457 8.407 9.873 15.85 10.249 22.328.376 6.478.564 14.616.564 24.414l-2.435-.214z" transform="translate(-1) translate(276.583 112.343)"/>
            <g>
                <path fill="#FF8E76" d="M18.84 35.549C12.91 28.375 8.838 22.23 6.628 17.115 4.419 11.998 2.209 6.294 0 0c6.207 3.301 10.22 6.726 12.042 10.274 2.732 5.323 3.274 11.975 4.615 13.972.894 1.332 3.221 5.1 6.982 11.303h-4.8z" transform="translate(-1) translate(276.583 112.343) translate(25.31 30.019)"/>
                <path stroke="#FFF" stroke-width=".5" d="M21.768 35.549c-3.657-5.186-6.084-9.084-7.282-11.695-1.797-3.916-2.224-9.329-3.439-10.743-.81-.944-4.165-4.947-10.064-12.01M5.289 6.192L.983 6.192M11.82 17.707L6.732 17.707M13.391 22.193L16.082 19.938M16.657 28.009L13.391 29.368" transform="translate(-1) translate(276.583 112.343) translate(25.31 30.019)"/>
            </g>
            <g>
                <path stroke="#70A5C4" stroke-width=".616" d="M46.656 28.528c-4.601-10.346-11.77-16.13-21.504-17.355-9.734-1.224-14.587-1.552-14.56-.985" transform="translate(-1) translate(276.583 112.343) translate(0 37.04)"/>
                <path fill="#6CA7C7" d="M40.085 19.223c-1.942 3.433-3.452 5.564-4.53 6.393-1.08.83-2.055 1.8-2.925 2.912.228-3.685.772-5.939 1.633-6.762 1.291-1.234 2.63-2.592 4.226-3.084 1.064-.328 1.596-.328 1.596 0v.541zM31.94 12.917c-.17 2.445-.766 4.285-1.786 5.52-1.02 1.234-3.325 2.266-6.915 3.097.966-2.679 2.105-4.494 3.417-5.446 1.312-.951 3.073-2.008 5.283-3.17zM20.87 10.685c.417 1.554.085 3.033-.996 4.436s-3.759 1.944-8.034 1.623c1.403-1.898 2.937-3.173 4.602-3.827 1.665-.654 3.14-1.397 4.427-2.232zM18.026 10.093c.417-2.024.085-3.95-.996-5.777-1.08-1.827-3.758-2.532-8.033-2.114 1.403 2.471 2.937 4.133 4.601 4.984 1.665.852 3.141 1.821 4.428 2.907zM10.988 9.919c-1.507 1.975-3.238 3.11-5.195 3.402-1.957.292-3.888.438-5.793.438 1.003-2.5 2.072-3.921 3.208-4.263 1.704-.514 3.746-.92 5.565-.92 1.212 0 1.95.447 2.215 1.343zM26.725 11.168c-2.89-2.909-4.638-4.916-5.243-6.022-.605-1.106-1.088-2.821-1.45-5.146C24.38 1.699 26.9 3.265 27.59 4.699c.69 1.434.402 3.59-.864 6.469zM36.358 15.435c.45-2.013.45-3.851 0-5.516-.45-1.666-1.182-4.277-2.194-7.834 3.15 1 5.124 2.555 5.921 4.667 1.195 3.167-.214 7.248-1.294 7.965-.72.478-1.53.718-2.433.718zM44.045 23.482c-.736-4.802-.92-7.623-.552-8.463.368-.84 2.187-2.926 5.457-6.259-.143 5.537-.56 8.763-1.254 9.676-.693.914-1.91 2.596-3.65 5.046z" transform="translate(-1) translate(276.583 112.343) translate(0 37.04)"/>
            </g>
            <g>
                <path stroke="#70A5C4" stroke-width=".616" d="M61.552 30.367C55.5 19.408 46.073 13.28 33.271 11.984c-12.803-1.297-19.186-1.645-19.15-1.044" transform="translate(-1) translate(276.583 112.343) scale(-1 1) rotate(47 -38.14 -87.543)"/>
                <path fill="#6CA7C7" d="M52.966 20.543c-2.567 3.563-4.564 5.775-5.99 6.635-1.427.86-2.716 1.868-3.866 3.021.3-3.824 1.02-6.163 2.158-7.017 1.707-1.28 3.477-2.69 5.587-3.2 1.407-.34 2.11-.34 2.11 0v.561zM42.748 13.592c-.23 2.622-1.03 4.595-2.402 5.919-1.372 1.324-4.473 2.431-9.302 3.321 1.3-2.872 2.832-4.818 4.596-5.839 1.765-1.02 4.134-2.154 7.108-3.4zM28.055 10.713c.559 1.713.115 3.342-1.333 4.889-1.447 1.546-5.031 2.142-10.754 1.788 1.878-2.09 3.932-3.497 6.16-4.217 2.229-.72 4.204-1.54 5.927-2.46zM24.642 10.275c.559-2.18.115-4.254-1.332-6.222-1.448-1.968-5.032-2.727-10.755-2.277 1.878 2.662 3.932 4.45 6.16 5.368 2.23.917 4.205 1.96 5.927 3.13zM14.657 10.383c-1.942 2.113-4.175 3.326-6.699 3.639-2.523.313-5.012.47-7.469.47 1.293-2.675 2.672-4.195 4.137-4.561 2.196-.55 4.83-.984 7.175-.984 1.563 0 2.515.479 2.856 1.436zM35.941 11.898C32.12 8.85 29.81 6.747 29.01 5.588c-.8-1.16-1.438-2.957-1.916-5.394 5.748 1.78 9.077 3.422 9.99 4.925.911 1.503.53 3.762-1.143 6.78zM47.86 16.544c-1.808-2.694-3.017-4.924-3.626-6.691-.609-1.767-.389-4.26.66-7.477 2.542 1.602 4.352 3.523 5.43 5.764 1.077 2.24.256 5.042-2.464 8.404zM58.155 25.03c-2.578-4.798-3.625-7.653-3.143-8.567.483-.913.905-3.142 1.267-6.686 4.172 4.438 6.393 7.692 6.66 9.764.268 2.072-1.327 3.901-4.784 5.489z" transform="translate(-1) translate(276.583 112.343) scale(-1 1) rotate(47 -38.14 -87.543)"/>
            </g>
            <path stroke="#FF8E76" stroke-width=".616" d="M71.375 40.956c1.576-2.3 3.205-4.07 4.887-5.313 1.682-1.242 2.781-1.863 3.298-1.863-.336 8.013-2.206 14.474-5.612 19.38-3.406 4.908-6.128 9.102-8.167 12.583l2.928-12.582 10.12-18.087" transform="translate(-1) translate(276.583 112.343)"/>
        </g>
        <g>
            <g transform="translate(-1) translate(0 59.078) translate(23.292 118.832)">
                <path fill="#C6DDEC" d="M0 0h25.217v.857H24.16c.179 4.328-.156 7.454-1.005 9.378-.849 1.923-1.504 3.92-1.965 5.992H4.164C2.015 12.687.94 9.982.94 8.114V.857L0 0z"/>
                <path fill="#97C5DF" d="M0 0h7.03c-.453 3.093-.453 5.572 0 7.437.453 1.865 1.748 4.795 3.884 8.79h-6.75c-2.12-3.283-3.18-5.763-3.18-7.441V.932L0 0z"/>
                <rect width="28.336" height="3.08" x="2.792" y="16.074" fill="#B1D5EB" rx="1.54"/>
            </g>
            <g stroke-width=".616">
                <path stroke="#99C5E0" d="M31.725 92.178c-1.352-22.903-3.784-38.424-7.298-46.562-3.513-8.139-9.042-19.311-16.587-33.517" transform="translate(-1) translate(0 59.078) translate(0 26.655)"/>
                <path stroke="#97C5DF" d="M29.68 78.07c-1.912-.993-3.596-1.49-5.05-1.49-1.454 0-3.419-1.614-5.895-4.843l4.55-4.933v-1.436l-5.79-.604c.417-11.236.417-17.618 0-19.148-.418-1.53-.813-3.357-1.184-5.48l3.472-2.253-5.442.563-9.771-10.02-.7-8.602 4.801-1.808-4.8-.884L.052 6.758c-.19-3.571.133-5.715.968-6.432C1.857-.39 3.783.074 6.798 1.72l10.696 11.107c1.224 1.67 1.438 3.4.642 5.19-.796 1.792-1.405 2.873-1.825 3.244l6.056-4.128 8.767 5.583c2.79 2.09 3.913 5.332 3.368 9.727-.544 4.396-.544 7.269 0 8.62l9.489 15.496c.873 3.051 1.31 4.816 1.31 5.294 0 .479-1.94.479-5.823 0l7.796 4.058-12.772-2.483 11.457 6.832-4.822 5.63h-6.93l-3.073 2.181H29.68z" transform="translate(-1) translate(0 59.078) translate(0 26.655)"/>
            </g>
            <g>
                <path stroke="#99C5E0" stroke-width=".616" d="M13.517 118.832c-1.945-33.308-1.298-55.763 1.94-67.364 3.239-11.601 7.854-23.6 13.846-35.995" transform="translate(-1) translate(0 59.078) translate(23.637)"/>
                <path fill="#7AB8FF" d="M12.422 95.707L1.097 60.062 0 36.191c1.34-2.88 3.023-5.19 5.049-6.928 2.026-1.739 4.484-3.543 7.373-5.411l7.315 4.219-4.279-7.177L26.292 4.87C30.692.878 33.57-.66 34.925.257c1.356.916 2.042 3.948 2.059 9.096l-2.06 11.541h-5.621v2.958h5.622V36.19l-8.633 11.663-6.555-.753v.804l2.783 2.843V80.48L12.422 95.707z" transform="translate(-1) translate(0 59.078) translate(23.637)"/>
                <path stroke="#FFF" stroke-width=".616" d="M12.422 95.707c-1.215-17.891-.203-32.638 3.035-44.24 3.239-11.6 7.854-23.599 13.846-35.994" transform="translate(-1) translate(0 59.078) translate(23.637)"/>
            </g>
            <g>
                <path stroke="#979797" stroke-width=".616" d="M4.69 104.73c4.378-23.572 10.353-41.286 17.925-53.143 7.572-11.856 13.94-20.357 19.104-25.502" transform="translate(-1) translate(0 59.078) translate(35.562 14.102)"/>
                <path fill="#FF8E76" d="M7.267 90.622L0 75.753l8.69 2.164-3.497-3.546 4.723-.517-4.958-22.792 7.99-7.082 2.406-17.895 12.345 7.667-10.32-9.772 21.211-7.717 4.493 4.659-1.364-5.77L59.51 0v5.44l4.42-4.069 1.447 4.069-7.133 10.823-5.336 1.116 3.768 2.74-.67 8.327-3.718 7.145-8.6-5.337 6.2 9.306c-5.22 2.293-8.546 3.933-9.977 4.92-1.43.987-3.402 3.18-5.917 6.582l-7.26-1.438 4.874 4.618-4.874 27.363-10.002-1.53 7.19 5.444-6.545 4.313-10.11.79z" transform="translate(-1) translate(0 59.078) translate(35.562 14.102)"/>
                <path stroke="#FFF" stroke-width=".616" d="M7.67 91.097c2.391-14.483 7.373-27.653 14.945-39.51 7.572-11.856 13.94-20.357 19.104-25.502" transform="translate(-1) translate(0 59.078) translate(35.562 14.102)"/>
            </g>
        </g>
    </g>
</svg>
