<svg xmlns="http://www.w3.org/2000/svg" width="70" height="67" viewBox="0 0 70 67">
    <defs>
        <filter id="prefix__a" width="207.1%" height="207.1%" x="-53.6%" y="-53.6%" filterUnits="objectBoundingBox">
            <feGaussianBlur in="SourceGraphic" stdDeviation="6.5"/>
        </filter>
    </defs>
    <g fill="none" fill-rule="evenodd" transform="translate(0 2)">
        <circle cx="36.4" cy="31.2" r="18.2" fill="#5E5E5E" filter="url(#prefix__a)" opacity=".383"/>
        <circle cx="24.7" cy="24.7" r="23.4" fill="#D41736" stroke="#FCFCFB" stroke-width="2.6"/>
        <g fill="#FFF" fill-rule="nonzero">
            <path d="M19.058 23.062H17.55V8.58c0-.234-.182-.416-.416-.416h-2.912V1.976c0-.234-.182-.416-.416-.416h-1.56V.546c0-.234-.182-.416-.416-.416H7.488c-.234 0-.416.182-.416.416V1.56h-1.56c-.234 0-.416.182-.416.416v6.188H2.184c-.234 0-.416.182-.416.416v14.482H.182c-.104 0-.156.078-.156.156v1.43c0 .104.078.156.156.156h18.876c.104 0 .156-.078.156-.156v-1.43c0-.078-.078-.156-.156-.156zm-13.546-5.98c0 .104-.078.156-.156.156H4.03c-.104 0-.156-.078-.156-.156v-2.158c0-.104.078-.156.156-.156h1.326c.104 0 .156.078.156.156v2.158zm0-4.16c0 .104-.078.156-.156.156H4.03c-.104 0-.156-.078-.156-.156v-2.158c0-.104.078-.156.156-.156h1.326c.104 0 .156.078.156.156v2.158zm6.474.182H10.66c-.104 0-.156-.078-.156-.156V10.79c0-.104.078-.156.156-.156h1.326c.104 0 .156.078.156.156v2.158c0 .078-.052.156-.156.156zm.156 1.82v2.158c0 .104-.078.156-.156.156H10.66c-.104 0-.156-.078-.156-.156v-2.158c0-.104.078-.156.156-.156h1.326c.104 0 .156.078.156.156zm-2.964 7.878c0 .104-.078.156-.156.156h-1.82c-.104 0-.156-.078-.156-.156v-3.718c0-.104.078-.156.156-.156h1.82c.104 0 .156.078.156.156v3.718zm-1.846-8.034h1.326c.104 0 .156.078.156.156v2.158c0 .104-.078.156-.156.156H7.332c-.104 0-.156-.078-.156-.156v-2.158c0-.078.078-.156.156-.156zm-.156-1.846v-2.158c0-.104.078-.156.156-.156h1.326c.104 0 .156.078.156.156v2.158c0 .104-.078.156-.156.156H7.332c-.078.026-.156-.052-.156-.156zm-.078-7.54c0-1.404 1.118-2.522 2.522-2.522 1.404 0 2.522 1.118 2.522 2.522 0 1.404-1.118 2.522-2.522 2.522-1.404 0-2.522-1.118-2.522-2.522zm5.226 17.42c0 .104-.078.156-.156.156h-1.82c-.104 0-.156-.078-.156-.156v-3.718c0-.104.078-.156.156-.156h1.82c.104 0 .156.078.156.156v3.718zm3.146-5.72c0 .104-.078.156-.156.156h-1.326c-.104 0-.156-.078-.156-.156v-2.158c0-.104.078-.156.156-.156h1.326c.104 0 .156.078.156.156v2.158zm0-4.16c0 .104-.078.156-.156.156h-1.326c-.104 0-.156-.078-.156-.156v-2.158c0-.104.078-.156.156-.156h1.326c.104 0 .156.078.156.156v2.158z" transform="translate(14.3 11.7)"/>
            <path d="M10.946 4.888h-.832v-.832c0-.104-.078-.182-.182-.182h-.65c-.104 0-.182.078-.182.182v.832h-.832c-.104 0-.182.078-.182.182v.65c0 .104.078.182.182.182H9.1v.832c0 .104.078.182.182.182h.65c.104 0 .182-.078.182-.182v-.832h.832c.104 0 .182-.078.182-.182v-.65c0-.104-.078-.182-.182-.182z" transform="translate(14.3 11.7)"/>
        </g>
    </g>
</svg>
